{"glyphs":{":":{"x_min":0,"x_max":833,"ha":833,"o":"m 8 452 q 10 452 10 450 l 10 445 q 10 442 8 442 q 6 442 6 445 l 6 450 q 6 452 8 452 z m 8 438 q 10 438 10 435 l 10 433 q 10 431 8 431 q 6 431 6 433 l 6 435 q 6 438 8 438 z m 8 480 q 10 480 10 478 l 10 473 q 10 471 8 471 q 6 471 6 473 l 6 478 q 6 480 8 480 z m 8 466 q 10 466 10 464 l 10 459 q 10 457 8 457 q 6 457 6 459 l 6 464 q 6 466 8 466 z m 8 163 q 10 163 10 160 l 10 158 q 10 156 8 156 q 6 156 6 158 l 6 160 q 6 163 8 163 z m 8 177 q 10 177 10 174 l 10 170 q 10 167 8 167 q 6 167 6 170 l 6 174 q 6 177 8 177 z m 8 191 q 10 191 10 189 l 10 184 q 10 182 8 182 q 6 182 6 184 l 6 189 q 6 191 8 191 z m 8 205 q 10 205 10 203 l 10 198 q 10 196 8 196 q 6 196 6 198 l 6 203 q 6 205 8 205 z"},"$":{"x_min":0,"x_max":289,"ha":289,"o":"m 15 160 q 13 160 13 163 l 13 167 q 13 170 15 170 q 17 170 17 168 q 17 166 18 165 q 18 164 18 163 q 18 160 16 160 z m 15 175 q 12 175 12 177 l 12 182 q 12 184 15 184 q 17 184 17 182 l 17 177 q 17 175 15 175 z m 15 450 q 12 450 12 453 l 12 455 l 12 457 q 12 460 15 460 q 17 460 17 457 l 17 455 l 17 453 q 17 450 15 450 z m 25 122 q 25 119 23 119 q 21 119 20 120 q 20 122 20 122 q 19 123 19 125 q 19 127 21 128 q 22 128 24 126 q 24 123 25 122 z m 15 464 q 12 464 12 467 q 13 468 13 472 q 13 474 15 474 q 18 474 17 471 l 17 467 q 17 464 15 464 z m 17 146 q 16 146 14 148 l 14 153 q 14 156 16 156 q 17 156 19 154 l 19 149 q 19 146 17 146 z m 19 132 q 17 132 17 134 q 16 136 16 139 q 16 140 18 142 q 19 142 21 140 l 21 135 q 22 134 20 132 z m 25 520 q 21 520 24 523 q 24 524 24 525 q 25 526 25 527 q 26 529 29 529 q 30 528 30 526 q 29 524 29 524 q 29 523 28 521 q 28 520 26 520 z m 30 384 q 30 384 28 388 q 27 389 29 391 q 30 392 32 390 q 34 388 34 386 q 35 384 34 383 l 32 383 q 32 383 30 384 z m 18 493 q 16 493 16 495 q 16 497 16 498 q 17 498 17 500 q 17 502 20 502 q 24 502 21 499 l 21 494 q 20 493 18 493 z m 21 506 q 19 508 19 509 q 20 511 20 512 q 20 512 21 514 q 21 517 23 515 q 25 515 25 513 q 25 511 24 510 q 24 510 24 508 q 22 506 21 506 z m 16 479 q 14 479 14 481 l 14 486 q 16 488 17 488 q 19 488 19 485 q 19 482 18 481 q 18 478 16 478 z m 48 361 q 46 363 45 365 q 42 365 45 368 q 46 369 48 368 q 49 367 50 366 q 50 365 52 364 l 52 361 q 51 361 51 360 q 51 360 50 360 q 49 360 49 360 q 49 361 48 361 z m 75 59 q 77 57 76 56 q 76 54 74 54 q 74 54 73 55 q 71 55 69 57 q 65 57 68 60 q 68 64 71 61 q 72 60 73 60 q 74 60 75 59 z m 72 342 q 71 342 70 343 l 67 346 q 63 346 66 349 q 67 350 69 349 q 73 347 73 347 q 74 346 74 343 q 73 343 73 342 q 73 342 72 342 z m 63 66 q 64 65 64 62 q 63 62 62 61 q 61 61 60 62 q 60 62 56 64 q 54 66 56 68 q 57 69 59 68 q 61 66 63 66 z m 83 335 q 81 336 80 336 q 80 337 78 338 q 75 338 78 341 q 78 342 81 342 q 82 341 83 340 q 84 340 85 339 q 86 339 86 336 q 85 335 84 335 z m 59 351 q 58 352 57 352 q 56 353 55 354 q 53 356 55 358 q 56 359 58 358 q 60 357 62 355 q 63 353 62 352 q 62 351 60 351 z m 88 54 q 90 54 90 51 q 89 50 87 50 q 85 50 84 50 q 83 51 82 51 q 80 51 80 54 q 82 56 83 56 q 85 55 86 55 q 86 55 88 54 z m 95 328 q 93 330 91 330 q 89 332 90 334 q 91 335 93 335 q 95 334 97 332 q 101 332 98 329 q 98 328 96 328 z m 40 371 q 40 371 39 372 q 37 374 36 376 q 34 377 36 379 q 38 381 40 378 q 40 377 42 375 q 44 373 42 371 z m 40 88 q 42 86 43 84 q 44 83 42 81 l 41 81 l 39 81 q 38 83 36 85 q 36 88 37 89 q 39 89 40 88 z m 52 74 q 53 72 52 71 q 52 70 50 70 q 50 70 49 71 q 47 73 45 74 l 45 77 q 47 79 49 77 z m 33 100 q 35 98 35 96 q 38 93 34 93 q 34 92 33 92 q 33 92 31 94 q 31 94 29 98 q 28 99 30 101 q 33 104 33 100 z m 43 553 q 46 553 43 550 q 41 548 41 546 q 40 545 39 545 l 37 545 q 35 547 37 549 q 37 549 39 553 q 40 554 43 553 z m 29 108 q 30 107 28 105 l 27 105 q 25 105 25 107 q 24 108 24 109 q 24 110 23 111 q 23 114 25 114 q 26 115 28 113 q 28 111 28 110 q 29 110 29 108 z m 24 396 q 22 400 22 401 q 19 404 23 404 q 26 404 26 403 q 27 401 27 400 q 27 400 28 398 q 29 397 27 395 l 26 395 q 25 395 24 396 z m 223 515 q 223 516 225 518 q 228 518 228 516 q 228 514 228 514 q 229 513 229 511 q 229 509 227 509 l 227 508 q 225 508 225 510 q 224 512 224 512 q 224 513 223 515 z m 232 476 q 234 476 234 474 q 234 472 234 471 q 235 470 235 469 q 235 466 232 466 q 230 466 230 469 l 230 473 q 230 476 232 476 z m 231 490 q 233 490 233 488 q 233 486 234 486 q 234 485 234 483 q 234 482 232 480 l 231 480 q 229 480 229 483 q 229 486 228 487 q 228 490 231 490 z m 228 504 q 231 504 231 502 q 231 500 232 500 q 232 499 232 497 q 232 495 230 495 q 227 495 227 497 q 227 500 226 501 q 226 504 228 504 z m 214 541 q 213 542 215 544 q 216 545 218 543 q 219 542 219 541 q 219 540 220 539 q 221 537 219 535 l 218 535 q 216 535 216 537 q 214 539 214 541 z m 209 259 q 212 262 212 258 q 214 256 215 254 q 216 253 214 251 l 213 251 q 212 251 211 252 q 209 254 208 256 q 208 258 209 259 z m 219 528 q 219 531 221 531 q 222 532 224 530 q 224 528 224 528 q 225 527 225 525 q 226 524 224 522 l 223 522 q 221 522 221 524 q 220 525 220 526 q 220 527 219 528 z m 233 462 q 235 462 235 459 l 235 455 q 235 452 233 452 q 230 452 230 455 l 230 459 q 230 462 233 462 z m 223 227 q 223 228 222 229 q 222 230 222 231 q 219 234 223 234 q 226 237 226 233 q 227 232 227 231 q 227 230 228 228 q 228 227 226 225 l 225 225 q 225 225 223 227 z m 222 242 q 225 239 221 239 q 221 238 220 238 q 218 238 218 240 q 217 241 217 242 q 217 243 216 244 q 215 245 217 247 q 218 248 220 246 q 221 245 221 244 q 221 243 222 242 z m 229 204 q 227 207 231 207 q 233 207 233 205 q 234 204 234 200 q 234 198 232 198 q 229 198 229 200 z m 227 214 q 227 215 226 216 q 226 217 226 218 q 226 221 228 221 q 230 221 230 219 q 231 218 231 217 q 231 216 232 215 q 232 212 230 212 l 229 212 q 227 212 227 214 z m 15 424 q 15 426 14 426 q 14 427 14 429 q 14 431 16 431 q 19 434 19 429 q 19 426 20 425 q 20 422 18 422 l 17 422 q 15 422 15 424 z m 47 556 q 46 556 46 556 q 46 557 45 557 q 43 558 45 560 q 46 562 48 564 q 50 566 52 564 q 53 562 52 561 q 51 560 50 559 q 50 558 49 557 q 48 557 48 556 q 48 556 47 556 z m 55 567 q 53 569 55 571 q 57 572 59 574 q 62 577 62 573 q 63 571 62 570 q 60 568 58 567 l 57 567 z m 30 533 q 29 534 29 536 q 30 538 32 540 q 32 544 35 541 q 36 541 36 538 q 34 536 34 534 q 33 533 32 533 z m 19 410 q 18 412 18 412 q 18 413 17 415 q 17 416 19 418 q 20 418 22 416 q 22 414 22 414 q 23 413 23 411 q 23 409 22 408 l 21 408 q 19 408 19 410 z m 15 436 q 13 436 13 438 l 13 443 q 11 445 15 445 q 17 447 17 443 q 17 440 18 439 q 18 436 16 436 z m 209 549 q 207 551 207 553 q 205 554 207 556 q 210 559 210 555 q 212 553 213 551 q 214 550 212 548 l 211 548 q 210 548 209 549 z m 68 575 q 67 575 67 576 q 67 576 66 576 q 63 579 67 579 q 68 580 69 580 q 70 581 71 582 q 74 585 74 581 q 75 580 73 578 q 71 576 69 576 q 69 575 68 575 z m 122 591 q 120 591 120 593 q 118 595 122 595 l 127 595 q 129 595 129 593 q 129 591 127 591 l 125 591 q 125 590 126 590 q 126 589 126 588 l 126 584 q 126 581 124 581 q 121 581 121 584 l 121 588 q 121 589 123 591 z m 136 590 q 134 590 134 593 q 134 595 136 595 q 139 595 141 594 q 143 594 143 592 q 143 590 141 590 l 140 590 z m 94 587 q 92 587 92 588 q 90 591 93 591 q 95 592 96 592 q 96 592 98 593 q 99 593 101 591 q 101 588 99 588 q 97 588 96 588 q 96 587 95 587 z m 81 582 q 79 582 78 583 q 78 586 80 586 q 82 588 84 588 q 87 591 87 587 q 90 584 86 584 q 82 582 82 582 z m 108 590 q 106 590 105 592 q 105 594 107 594 q 109 594 110 594 q 111 595 112 595 q 115 595 115 593 q 115 590 113 590 z m 143 51 q 146 51 146 49 q 146 47 144 47 q 142 46 139 46 q 138 46 136 48 q 136 49 138 51 z m 129 50 q 132 50 132 48 q 132 45 129 45 l 126 45 q 126 43 124 43 q 121 43 121 45 l 121 50 q 121 52 124 52 q 126 52 126 50 z m 135 313 q 137 311 136 310 q 136 308 134 308 q 134 308 133 309 q 131 309 129 311 q 125 311 128 314 q 128 315 131 315 q 132 314 133 314 q 134 314 135 313 z m 154 587 q 153 588 150 588 q 148 589 148 591 q 148 593 151 593 q 152 593 153 592 q 154 592 155 592 q 157 592 157 589 q 157 587 155 587 z m 148 307 q 150 305 149 304 q 149 302 147 302 q 147 302 146 303 q 144 303 142 305 q 140 305 140 308 q 141 309 144 309 q 144 309 148 307 z m 185 285 q 186 285 186 282 q 185 281 184 281 q 183 281 182 282 q 181 283 180 283 q 180 283 179 284 q 176 286 178 288 q 179 289 181 288 q 183 287 185 285 z m 192 75 q 195 78 195 75 q 197 73 195 71 l 192 68 l 190 68 l 188 68 q 188 71 189 72 z m 193 569 q 192 569 191 570 q 190 571 190 571 q 189 571 188 572 q 185 574 187 576 q 188 577 190 576 q 192 575 194 573 q 195 571 194 570 q 194 569 193 569 z m 196 276 q 197 274 196 273 q 196 272 195 272 q 194 272 193 273 l 190 276 q 188 278 189 279 q 191 281 193 279 z m 157 54 q 159 56 159 53 q 162 50 158 50 q 156 49 153 49 l 153 48 q 152 48 150 50 q 150 53 152 53 q 154 53 154 54 q 155 54 157 54 z m 181 66 q 183 68 185 66 q 185 63 184 62 q 183 61 182 61 q 181 61 180 60 q 180 59 179 59 q 178 59 177 60 q 176 63 177 64 q 181 66 181 66 z m 169 59 q 171 60 173 58 q 173 56 171 55 q 170 54 169 54 q 168 54 167 53 l 166 53 q 164 53 164 54 q 162 57 165 57 q 169 59 169 59 z m 180 577 q 179 578 178 578 q 177 579 176 580 q 172 580 175 583 q 175 584 178 584 q 180 582 182 582 q 184 579 183 578 q 183 578 181 577 z m 161 301 q 162 300 162 297 q 161 297 160 296 l 159 296 q 155 298 154 298 q 153 299 153 302 q 154 303 156 303 q 160 301 161 301 z m 167 583 q 167 583 163 585 q 159 585 162 588 q 162 590 165 589 q 166 589 167 588 q 168 588 169 588 q 171 586 170 585 q 170 583 168 583 z m 173 293 q 177 293 174 290 q 174 289 172 289 l 171 289 q 169 290 167 292 q 163 292 166 295 q 168 297 169 296 q 170 295 171 294 q 172 294 173 293 z m 224 123 q 226 123 226 120 q 225 118 225 118 q 225 117 224 115 q 224 115 222 114 l 221 114 q 219 116 220 117 q 220 119 220 120 q 221 120 221 122 q 222 123 224 123 z m 219 110 q 221 108 220 107 q 220 106 218 102 q 218 101 216 101 l 215 101 q 213 103 214 104 q 215 106 215 106 q 215 107 216 109 q 216 110 219 110 z m 233 179 q 235 179 235 176 l 235 172 q 235 169 232 169 q 230 169 230 172 l 230 177 q 230 179 233 179 z m 230 151 q 233 149 232 148 l 232 143 q 230 141 229 141 q 227 143 227 144 q 227 147 228 149 q 228 151 230 151 z m 101 51 q 105 51 103 49 q 103 47 101 47 l 96 47 q 94 49 94 50 q 94 52 97 52 q 98 52 99 52 q 100 51 101 51 z m 203 559 q 201 559 201 560 l 198 563 q 196 565 198 567 q 199 568 201 567 q 202 564 205 563 q 205 561 204 560 q 204 559 203 559 z m 228 137 q 230 135 230 134 q 229 132 229 132 q 229 131 228 129 q 228 127 226 127 l 225 128 q 222 128 224 130 q 224 132 224 132 q 225 133 225 135 q 225 137 228 137 z m 206 266 q 209 263 206 263 q 206 262 205 262 q 203 262 203 263 l 200 266 q 198 268 200 270 q 202 270 203 269 z m 115 50 q 118 50 118 47 q 116 45 115 45 l 110 45 q 108 47 108 48 q 108 50 111 50 z m 232 165 q 234 165 234 162 l 234 157 q 234 155 231 155 q 229 155 229 158 l 229 163 q 231 165 232 165 z m 213 97 q 214 95 213 94 q 213 92 211 90 q 210 89 209 89 l 208 89 q 206 91 207 92 q 209 96 209 96 q 211 98 213 97 z m 205 85 q 208 85 205 82 q 203 80 202 78 l 200 78 l 199 78 q 197 79 199 81 q 201 85 201 85 q 203 87 205 85 z m 232 193 q 235 193 235 191 l 235 186 q 235 184 233 184 q 230 184 230 186 l 230 191 q 230 193 232 193 z m 110 326 l 108 322 l 104 324 q 100 324 103 327 q 103 331 106 328 z m 126 357 q 126 354 124 354 q 121 354 121 357 l 121 362 q 121 364 124 364 q 126 364 126 362 z m 126 428 q 126 425 124 425 q 121 425 121 428 l 121 432 q 121 435 124 435 q 126 435 126 432 z m 126 414 q 126 411 124 411 q 121 411 121 414 l 121 418 q 121 421 124 421 q 126 421 126 418 z m 126 442 q 126 440 124 440 q 121 440 121 442 l 121 447 q 121 449 124 449 q 126 449 126 447 z m 126 399 q 126 397 124 397 q 121 397 121 399 l 121 404 q 121 406 124 406 q 126 406 126 404 z m 126 371 q 126 369 124 369 q 121 369 121 371 l 121 376 q 121 378 124 378 q 126 378 126 376 z m 126 385 q 126 383 124 383 q 121 383 121 385 l 121 390 q 121 392 124 392 q 126 392 126 390 z m 126 456 q 126 454 124 454 q 121 454 121 456 l 121 461 q 121 463 124 463 q 126 463 126 461 z m 124 624 q 121 624 121 626 l 121 631 q 121 633 124 633 q 126 633 126 631 l 126 626 q 126 624 124 624 z m 124 638 q 121 638 121 640 l 121 645 q 121 648 124 648 q 126 648 126 645 l 126 640 q 126 638 124 638 z m 124 610 q 121 610 121 612 l 121 617 q 121 619 124 619 q 126 619 126 617 l 126 612 q 126 610 124 610 z m 124 596 q 121 596 121 598 l 121 603 q 121 605 124 605 q 126 605 126 603 l 126 598 q 126 596 124 596 z m 124 336 q 126 336 126 333 l 126 328 q 126 326 124 326 q 121 326 121 328 l 121 333 q 121 336 124 336 z m 126 343 q 126 340 124 340 q 121 340 121 343 l 121 347 q 121 350 124 350 q 126 350 126 347 z m 126 116 q 126 113 124 113 q 121 113 121 116 l 121 121 q 121 123 124 123 q 126 123 126 121 z m 126 144 q 126 142 124 142 q 121 142 121 144 l 121 149 q 121 151 124 151 q 126 151 126 149 z m 126 173 q 126 170 124 170 q 121 170 121 173 l 121 177 q 121 180 124 180 q 126 180 126 177 z m 126 158 q 126 156 124 156 q 121 156 121 158 l 121 163 q 121 165 124 165 q 126 165 126 163 z m 126 187 q 126 184 124 184 q 121 184 121 187 l 121 191 q 121 194 124 194 q 126 194 126 191 z m 126 243 q 126 241 124 241 q 121 241 121 243 l 121 248 q 121 250 124 250 q 126 250 126 248 z m 126 201 q 126 199 124 199 q 121 199 121 201 l 121 206 q 121 208 124 208 q 126 208 126 206 z m 126 215 q 126 213 124 213 q 121 213 121 215 l 121 220 q 121 222 124 222 q 126 222 126 220 z m 126 229 q 126 227 124 227 q 121 227 121 229 l 121 234 q 121 236 124 236 q 126 236 126 234 z m 124 66 q 126 66 126 64 l 126 59 q 126 57 124 57 q 121 57 121 59 l 121 64 q 121 66 124 66 z m 126 73 q 126 71 124 71 q 121 71 121 73 l 121 78 q 121 80 124 80 q 126 80 126 78 z m 121 315 l 120 315 q 118 317 116 317 q 115 318 115 321 q 116 322 118 322 q 119 321 120 321 q 120 321 121 320 q 122 321 124 321 q 126 321 126 319 l 126 314 q 126 312 124 312 q 121 312 121 314 z m 126 87 q 126 85 124 85 q 121 85 121 87 l 121 92 q 121 95 124 95 q 126 95 126 92 z m 126 130 q 126 128 124 128 q 121 128 121 130 l 121 135 q 121 137 124 137 q 126 137 126 135 z m 126 470 q 126 468 124 468 q 121 468 121 470 l 121 475 q 121 477 124 477 q 126 477 126 475 z m 126 102 q 126 99 124 99 q 121 99 121 102 l 121 106 q 121 109 124 109 q 126 109 126 106 z m 126 527 q 126 525 124 525 q 121 525 121 527 l 121 532 q 121 534 124 534 q 126 534 126 532 z m 126 541 q 126 539 124 539 q 121 539 121 541 l 121 546 q 121 548 124 548 q 126 548 126 546 z m 126 555 q 126 553 124 553 q 121 553 121 555 l 121 560 q 121 562 124 562 q 126 562 126 560 z m 126 513 q 126 510 124 510 q 121 510 121 513 l 121 518 q 121 520 124 520 q 126 520 126 518 z m 126 484 q 126 482 124 482 q 121 482 121 484 l 121 489 q 121 492 124 492 q 126 492 126 489 z m 126 499 q 126 496 124 496 q 121 496 121 499 l 121 503 q 121 506 124 506 q 126 506 126 503 z m 126 570 q 126 567 124 567 q 121 567 121 570 l 121 574 q 121 577 124 577 q 126 577 126 574 z m 126 286 q 126 284 124 284 q 121 284 121 286 l 121 291 q 121 293 124 293 q 126 293 126 291 z m 126 258 q 126 255 124 255 q 121 255 121 258 l 121 262 q 121 265 124 265 q 126 265 126 262 z m 124 38 q 126 38 126 35 l 126 31 q 126 28 124 28 q 121 28 121 31 l 121 35 q 121 38 124 38 z m 126 272 q 126 269 124 269 q 121 269 121 272 l 121 276 q 121 279 124 279 q 126 279 126 276 z m 126 300 q 126 298 124 298 q 121 298 121 300 l 121 305 q 121 307 124 307 q 126 307 126 305 z m 124 9 q 126 9 126 7 l 126 2 q 126 0 124 0 q 121 0 121 2 l 121 7 q 121 9 124 9 z m 124 24 q 126 24 126 21 l 126 17 q 126 14 124 14 q 121 14 121 17 l 121 21 q 121 24 124 24 z"},"?":{"x_min":0,"x_max":259,"ha":259,"o":"m 26 587 q 28 585 27 584 q 26 582 26 582 q 26 581 25 579 q 25 579 23 578 l 22 578 q 20 580 21 581 q 22 583 22 584 q 22 584 23 586 q 24 587 26 587 z m 34 599 q 35 597 34 596 q 32 592 32 592 q 31 591 30 591 l 28 591 q 26 592 28 594 q 28 596 30 598 q 32 600 34 599 z m 50 620 q 52 620 53 619 q 54 617 53 616 q 52 615 51 614 q 50 614 49 613 l 48 612 q 47 612 46 613 q 43 616 46 616 q 47 619 50 620 z m 39 610 q 41 612 43 610 q 43 606 43 606 l 40 603 q 39 602 38 602 q 37 602 36 603 q 34 604 36 606 q 38 608 39 610 z m 20 574 q 24 574 21 571 q 21 569 20 568 q 20 568 20 567 q 20 565 18 565 l 17 565 q 15 567 15 568 q 17 572 17 573 q 18 574 20 574 z m 15 561 q 17 560 17 558 q 17 556 16 556 q 16 555 16 553 q 16 551 14 551 q 13 551 13 552 q 11 552 11 554 q 12 556 12 559 q 14 561 15 561 z m 87 120 q 85 120 85 123 l 85 127 q 85 130 87 130 q 90 130 90 127 l 90 123 q 90 120 87 120 z m 12 547 q 14 547 14 544 q 13 543 13 540 q 12 538 10 538 q 8 538 8 540 q 8 542 8 543 q 9 544 9 545 q 9 547 12 547 z m 88 106 q 85 106 85 108 l 85 113 q 85 116 88 116 q 90 116 90 113 l 90 109 q 90 106 88 106 z m 62 628 q 64 628 65 627 q 68 624 64 624 q 63 623 62 622 q 61 622 60 621 l 59 621 q 57 621 57 622 q 54 625 58 625 q 60 627 62 628 z m 87 149 q 85 149 85 151 l 85 156 q 85 158 87 158 q 90 158 90 156 l 90 151 q 90 149 87 149 z m 75 634 q 78 634 78 632 q 78 630 77 629 q 75 629 74 628 q 74 628 72 628 q 72 628 71 627 l 69 629 q 69 631 70 632 q 72 633 72 633 q 73 633 75 634 z m 90 633 q 88 633 88 632 q 87 632 85 632 q 83 632 83 634 q 82 635 84 637 q 87 637 89 638 q 90 638 92 636 q 92 633 90 633 z m 85 142 q 85 144 87 144 q 90 144 90 142 l 90 137 q 90 134 87 134 q 85 134 85 137 z m 217 543 q 218 543 220 541 q 220 538 221 536 q 221 534 219 534 l 218 534 q 216 534 216 535 q 216 539 215 540 q 215 543 217 543 z m 212 554 q 211 555 213 557 q 216 557 216 555 q 217 553 217 550 q 218 549 216 547 l 215 547 q 213 547 213 549 q 212 551 212 554 z m 207 567 q 206 568 208 570 q 211 570 211 569 q 212 567 212 566 q 212 566 213 564 q 213 561 212 561 l 211 561 q 209 561 209 562 q 208 564 208 564 q 208 565 207 567 z m 88 172 q 90 172 90 170 l 90 165 q 90 163 88 163 l 87 163 q 85 163 85 165 l 85 170 q 85 172 88 172 z m 201 579 q 201 582 202 583 q 205 583 205 582 q 206 580 206 580 q 207 579 208 577 q 208 575 206 574 l 205 574 q 204 574 203 575 q 203 577 201 579 z m 220 529 q 221 529 223 527 l 223 522 q 223 520 221 520 q 219 520 219 522 q 218 523 218 526 q 218 529 220 529 z m 223 501 q 225 501 225 499 q 226 497 226 494 q 226 491 223 491 q 221 491 221 494 l 221 498 q 221 501 223 501 z m 222 515 q 224 515 224 513 q 225 511 225 508 q 225 506 223 506 l 222 506 q 220 506 220 508 l 220 512 q 220 515 222 515 z m 140 632 q 138 634 139 635 q 139 637 142 637 q 143 636 144 636 q 145 636 146 635 q 148 635 148 632 q 147 631 145 631 q 143 631 142 632 q 142 632 140 632 z m 6 505 q 8 505 8 502 l 8 498 q 8 495 6 495 q 3 495 3 498 q 3 501 4 503 q 4 505 6 505 z m 7 519 q 9 519 9 516 l 9 512 q 9 510 7 510 l 6 510 q 4 510 4 512 q 4 515 5 517 q 5 519 7 519 z m 197 588 q 195 590 194 592 q 193 593 195 595 q 197 595 198 594 q 199 593 200 592 q 200 591 201 590 q 201 587 200 587 l 199 586 q 197 586 197 588 z m 5 491 q 8 491 8 488 l 8 484 q 8 481 5 481 q 3 481 3 484 l 3 488 q 3 491 5 491 z m 189 599 q 187 601 186 603 q 184 604 186 606 q 188 608 190 606 q 191 604 193 602 q 193 599 192 599 q 192 598 191 598 q 189 598 189 599 z m 99 635 q 97 635 96 637 q 96 639 98 639 q 100 640 103 640 q 106 640 106 638 q 106 635 104 635 z m 9 533 q 11 533 11 530 q 11 527 10 526 q 10 524 8 524 q 6 524 6 526 l 6 531 q 8 533 9 533 z m 137 312 q 139 314 141 312 q 142 310 141 309 q 140 308 139 308 q 138 307 137 306 q 137 305 136 305 q 134 305 134 306 q 132 307 134 309 z m 186 367 q 187 366 187 363 q 185 361 184 359 q 184 359 182 358 l 181 359 q 179 361 180 362 q 181 363 182 364 q 182 365 183 366 q 184 367 186 367 z m 194 379 q 195 378 194 375 q 194 375 192 371 q 191 371 191 370 q 191 370 190 370 q 189 370 189 371 q 185 371 188 374 q 190 376 190 378 q 191 379 194 379 z m 181 609 l 180 609 l 176 613 q 173 613 176 616 q 177 617 179 616 q 181 615 183 613 q 185 611 183 609 z m 157 333 q 158 334 160 333 q 161 331 160 330 q 159 328 157 326 q 157 326 155 325 q 155 325 154 326 q 152 327 154 329 q 155 330 156 331 q 156 332 157 333 z m 178 355 q 179 353 178 352 q 176 348 176 348 q 175 347 174 347 l 172 347 q 170 349 172 351 l 175 354 q 175 358 178 355 z m 166 343 q 168 345 169 344 q 170 343 170 340 l 167 337 q 166 336 165 336 l 163 336 q 161 338 163 340 z m 172 619 q 172 618 171 618 l 169 618 q 167 620 165 621 q 163 622 165 624 q 165 628 168 625 q 169 624 170 624 q 171 623 172 622 q 173 620 172 619 z m 200 391 q 203 390 201 388 q 201 386 199 384 q 199 382 197 382 l 196 383 q 192 383 195 386 q 196 387 196 388 q 196 389 197 390 q 199 392 200 391 z m 223 472 q 225 472 225 470 l 225 465 q 225 463 222 463 q 220 463 220 466 l 220 470 q 222 473 223 472 z m 206 404 q 208 403 208 401 q 206 397 206 396 q 205 396 204 396 q 204 395 203 395 l 202 395 q 201 396 201 398 q 203 402 203 403 q 204 404 206 404 z m 223 487 q 226 487 226 484 l 226 479 q 226 477 223 477 q 221 477 221 480 l 221 484 q 221 487 223 487 z m 222 458 q 224 458 224 456 q 223 454 223 451 q 223 449 221 449 l 220 449 q 218 449 218 452 q 218 453 218 454 q 219 455 219 456 q 219 459 222 458 z m 212 417 q 213 417 213 414 q 212 413 212 412 q 212 411 211 410 q 211 408 209 408 l 208 408 q 206 410 207 411 q 207 412 209 416 q 209 418 212 417 z m 216 431 q 218 429 217 428 q 217 425 216 423 q 216 421 214 421 l 213 422 q 210 422 212 425 q 212 426 212 427 q 213 428 213 429 q 213 431 216 431 z m 219 444 q 221 444 221 442 q 221 440 220 439 q 220 438 220 437 q 220 435 218 435 l 217 435 q 215 435 215 438 q 216 440 216 443 q 218 445 219 444 z m 104 270 q 105 269 105 267 q 104 265 104 264 q 104 264 103 262 q 103 261 101 261 l 100 261 q 96 261 99 264 q 99 266 101 268 q 101 270 104 270 z m 95 243 q 97 241 97 240 q 97 238 96 238 q 96 237 96 235 q 96 233 94 233 l 93 233 q 91 235 91 236 q 92 238 92 241 q 92 243 95 243 z m 92 229 q 97 229 94 226 l 94 221 q 94 219 91 219 q 89 221 89 222 q 89 225 90 227 q 90 229 92 229 z m 157 626 q 157 626 153 628 q 152 628 152 631 q 153 632 155 632 q 157 631 158 631 q 158 631 160 630 q 161 629 161 627 q 159 625 158 625 z m 99 256 q 102 256 100 254 q 100 252 100 252 q 99 251 99 249 q 99 247 97 247 l 96 247 q 94 249 94 250 q 95 252 95 252 q 95 253 96 255 q 96 257 99 256 z m 88 186 q 92 186 90 184 l 90 179 q 90 177 88 177 q 86 177 86 179 l 86 184 q 86 188 88 186 z m 89 201 q 91 201 91 198 l 91 193 q 91 191 89 191 l 88 191 q 86 191 86 194 q 86 197 87 198 q 87 201 89 201 z m 90 215 q 93 215 93 212 q 92 211 92 207 q 92 205 90 205 q 87 205 87 208 q 88 210 88 213 q 88 215 90 215 z m 132 639 q 134 639 134 636 q 134 634 132 634 l 131 634 q 130 634 129 634 q 128 635 127 635 q 125 635 125 637 q 125 641 127 639 z m 127 302 q 129 304 131 302 q 131 300 130 299 l 127 296 q 127 295 125 295 q 125 295 124 296 q 122 297 124 299 z m 111 282 q 112 280 111 279 q 111 277 109 275 q 109 274 107 274 l 106 274 q 104 276 105 277 q 107 281 107 281 q 109 283 111 282 z m 147 322 q 149 324 151 322 q 154 322 151 319 q 150 318 149 318 q 148 317 147 316 q 147 315 146 315 q 144 315 144 316 q 142 317 144 319 z m 88 101 q 90 101 90 99 l 90 94 q 90 92 88 92 q 85 92 85 94 l 85 99 q 85 101 88 101 z m 117 292 q 118 293 120 292 q 123 292 120 289 l 117 286 q 117 285 115 285 q 115 285 114 286 q 112 287 114 289 z m 118 635 q 116 636 113 636 q 111 636 111 638 q 109 640 113 640 l 118 640 q 120 640 120 638 q 120 635 118 635 z m 87 9 q 90 9 90 7 l 90 2 q 90 0 87 0 q 85 0 85 2 l 85 7 q 85 9 87 9 z"},"<":{"x_min":0,"x_max":833,"ha":833,"o":""},"'":{"x_min":0,"x_max":49,"ha":49,"o":"m 4 640 q 6 640 6 637 l 6 633 q 6 630 4 630 q 2 630 2 633 l 2 637 q 2 640 4 640 z m 4 626 q 6 626 6 623 l 6 618 q 6 616 4 616 q 2 616 2 618 l 2 623 q 2 626 4 626 z m 4 583 q 6 583 6 581 l 6 576 q 6 574 4 574 q 2 574 2 576 l 2 581 q 2 583 4 583 z m 4 597 q 6 597 6 595 l 6 590 q 6 588 4 588 q 2 588 2 590 l 2 595 q 2 597 4 597 z m 4 611 q 6 611 6 609 l 6 604 q 6 602 4 602 q 2 602 2 604 l 2 609 q 2 611 4 611 z"},"=":{"x_min":0,"x_max":283,"ha":283,"o":"m 221 412 l 216 412 q 214 412 214 414 q 214 417 216 417 l 221 417 q 223 417 223 414 q 223 412 221 412 z m 207 412 l 202 412 q 200 412 200 414 q 200 417 202 417 l 207 417 q 209 417 209 414 q 209 412 207 412 z m 193 412 l 188 412 q 186 412 186 414 q 186 417 188 417 l 193 417 q 195 417 195 414 q 195 412 193 412 z m 178 412 l 174 412 q 171 412 171 414 q 171 417 174 417 l 178 417 q 181 417 181 414 q 181 412 178 412 z m 164 412 l 160 412 q 157 412 157 414 q 157 417 160 417 l 164 417 q 167 417 167 414 q 167 412 164 412 z m 150 412 l 145 412 q 143 412 143 414 q 143 417 145 417 l 150 417 q 152 417 152 414 q 152 412 150 412 z m 136 412 l 131 412 q 129 412 129 414 q 129 417 131 417 l 136 417 q 138 417 138 414 q 138 412 136 412 z m 122 412 l 117 412 q 115 412 115 414 q 115 417 117 417 l 122 417 q 124 417 124 414 q 124 412 122 412 z m 108 412 l 103 412 q 100 412 100 414 q 100 417 103 417 l 108 417 q 110 417 110 414 q 110 412 108 412 z m 93 412 l 89 412 q 86 412 86 414 q 86 417 89 417 l 93 417 q 96 417 96 414 q 96 412 93 412 z m 79 412 l 74 412 q 72 412 72 414 q 72 417 74 417 l 79 417 q 82 417 82 414 q 82 412 79 412 z m 65 412 l 60 412 q 58 412 58 414 q 58 417 60 417 l 65 417 q 67 417 67 414 q 67 412 65 412 z m 51 412 l 46 412 q 44 412 44 414 q 44 417 46 417 l 51 417 q 53 417 53 414 q 53 412 51 412 z m 37 412 l 32 412 q 30 412 30 414 q 30 417 32 417 l 37 417 q 39 417 39 414 q 39 412 37 412 z m 22 412 l 18 412 q 15 412 15 414 q 15 417 18 417 l 22 417 q 25 417 25 414 q 25 412 22 412 z m 8 412 q 6 412 6 414 q 6 417 8 417 q 11 417 11 414 q 11 412 8 412 z m 221 212 l 216 212 q 214 212 214 214 q 214 217 216 217 l 221 217 q 223 217 223 214 q 223 212 221 212 z m 207 212 l 202 212 q 200 212 200 214 q 200 217 202 217 l 207 217 q 209 217 209 214 q 209 212 207 212 z m 193 212 l 188 212 q 186 212 186 214 q 186 217 188 217 l 193 217 q 195 217 195 214 q 195 212 193 212 z m 178 212 l 174 212 q 171 212 171 214 q 171 217 174 217 l 178 217 q 181 217 181 214 q 181 212 178 212 z m 164 212 l 160 212 q 157 212 157 214 q 157 217 160 217 l 164 217 q 167 217 167 214 q 167 212 164 212 z m 150 212 l 145 212 q 143 212 143 214 q 143 217 145 217 l 150 217 q 152 217 152 214 q 152 212 150 212 z m 136 212 l 131 212 q 129 212 129 214 q 129 217 131 217 l 136 217 q 138 217 138 214 q 138 212 136 212 z m 122 212 l 117 212 q 115 212 115 214 q 115 217 117 217 l 122 217 q 124 217 124 214 q 124 212 122 212 z m 108 212 l 103 212 q 100 212 100 214 q 100 217 103 217 l 108 217 q 110 217 110 214 q 110 212 108 212 z m 93 212 l 89 212 q 86 212 86 214 q 86 217 89 217 l 93 217 q 96 217 96 214 q 96 212 93 212 z m 79 212 l 74 212 q 72 212 72 214 q 72 217 74 217 l 79 217 q 82 217 82 214 q 82 212 79 212 z m 65 212 l 60 212 q 58 212 58 214 q 58 217 60 217 l 65 217 q 67 217 67 214 q 67 212 65 212 z m 51 212 l 46 212 q 44 212 44 214 q 44 217 46 217 l 51 217 q 53 217 53 214 q 53 212 51 212 z m 37 212 l 32 212 q 30 212 30 214 q 30 217 32 217 l 37 217 q 39 217 39 214 q 39 212 37 212 z m 22 212 l 18 212 q 15 212 15 214 q 15 217 18 217 l 22 217 q 25 217 25 214 q 25 212 22 212 z m 8 212 q 6 212 6 214 q 6 217 8 217 q 11 217 11 214 q 11 212 8 212 z"},"a":{"x_min":0,"x_max":372,"ha":372,"o":"m 15 33 q 18 33 17 30 l 16 26 q 16 24 14 24 l 13 24 q 9 24 12 27 l 13 31 q 13 33 15 33 z m 19 47 q 23 47 20 44 l 19 40 q 19 38 17 38 q 13 38 15 41 l 16 45 q 16 47 19 47 z m 12 19 q 14 19 14 17 l 13 12 q 13 10 11 10 l 10 10 q 8 10 8 13 l 9 18 q 11 20 12 19 z m 25 75 q 27 73 27 72 l 26 67 q 26 65 23 65 q 21 67 21 68 l 22 73 q 24 75 25 75 z m 22 61 q 24 61 24 58 l 23 53 q 22 52 20 52 q 18 52 18 54 l 19 59 q 19 61 22 61 z m 61 231 q 57 231 60 234 l 61 239 q 61 242 63 240 q 67 240 65 238 l 64 233 q 64 231 62 231 z m 9 6 q 11 4 11 3 l 11 2 q 9 0 8 0 q 6 0 6 3 l 6 4 q 8 6 9 6 z m 81 314 q 76 314 79 317 l 80 322 q 80 324 83 323 q 85 323 84 320 l 83 316 q 83 314 81 314 z m 90 356 q 88 356 88 358 l 89 363 q 91 365 92 365 q 94 364 94 362 l 93 357 q 93 355 91 355 q 90 355 90 356 z m 77 300 q 75 302 76 303 l 77 308 q 77 311 79 309 q 83 309 81 307 l 80 302 q 80 300 78 300 z m 31 102 q 34 102 33 99 l 32 95 q 32 93 30 93 l 29 93 q 25 93 28 96 l 29 100 q 29 104 31 102 z m 65 245 q 60 245 63 248 l 64 252 q 64 255 67 254 q 69 254 68 251 l 67 247 q 67 245 65 245 z m 74 286 q 72 288 72 289 l 73 294 q 75 296 76 296 q 78 295 78 293 l 77 288 q 77 286 75 286 z m 61 219 q 61 217 59 217 l 58 217 q 56 219 56 220 l 57 225 q 59 227 60 227 q 62 226 62 224 z m 57 213 q 59 211 59 210 l 58 205 q 58 203 55 203 l 55 204 q 53 204 53 206 l 54 211 q 56 213 57 213 z m 54 199 q 56 199 56 196 l 55 192 q 54 190 52 190 q 50 190 50 193 l 51 197 q 51 199 54 199 z m 70 268 q 72 268 72 265 l 71 261 q 70 259 68 259 q 66 259 66 262 l 67 266 q 67 268 70 268 z m 35 116 q 37 116 36 113 l 35 109 q 35 107 33 107 q 29 107 31 110 l 32 114 q 32 116 35 116 z m 86 337 q 88 337 88 334 l 87 330 q 85 328 84 328 q 82 328 82 331 l 83 335 q 83 337 86 337 z m 73 282 q 75 282 75 279 l 74 274 q 74 273 71 273 q 69 273 69 275 l 70 280 q 72 282 73 282 z m 38 130 q 40 130 40 127 l 39 122 q 38 121 36 121 q 34 121 34 124 l 35 128 q 35 130 38 130 z m 51 185 q 53 185 52 182 l 51 178 q 51 176 49 176 q 45 176 47 179 l 48 183 q 48 185 51 185 z m 41 144 q 43 142 43 141 l 42 136 q 42 134 39 134 q 37 136 37 137 l 38 142 q 40 144 41 144 z m 47 171 q 50 171 49 168 l 48 164 q 48 162 46 162 l 45 162 q 41 162 44 165 l 45 170 q 45 173 47 171 z m 44 158 q 46 157 46 155 l 45 150 q 45 148 43 148 l 42 148 q 40 150 40 151 l 41 156 q 43 158 44 158 z m 196 479 q 197 479 199 477 l 200 473 q 200 470 198 470 l 197 470 q 195 470 195 471 l 194 476 q 194 479 196 479 z m 90 343 q 90 342 87 342 q 85 342 85 345 l 86 349 q 88 351 89 351 q 91 351 91 348 z m 177 562 q 179 562 179 560 l 180 555 q 182 553 179 553 l 178 553 q 176 553 176 554 l 175 559 q 172 562 177 562 z m 209 424 q 211 424 211 422 l 212 417 q 213 416 211 414 l 210 414 q 208 414 208 416 l 207 421 q 206 422 209 424 z m 205 437 q 208 438 208 436 l 209 431 q 210 430 207 428 q 205 428 205 430 l 204 435 q 202 437 205 437 z m 180 548 q 181 548 183 546 l 184 542 q 184 539 182 539 l 181 539 q 179 539 179 541 l 178 545 q 178 548 180 548 z m 183 534 q 185 534 186 532 l 187 528 q 187 525 185 525 q 182 525 182 527 l 181 531 q 181 534 183 534 z m 193 493 q 195 493 195 491 l 196 486 q 198 484 195 484 l 194 483 q 192 483 192 485 l 191 490 q 190 491 193 493 z m 93 369 q 91 371 92 372 l 93 377 q 93 379 95 379 q 98 377 97 376 l 96 371 q 96 369 94 369 z m 250 244 q 253 244 253 242 l 254 238 q 254 235 252 235 q 251 235 249 237 l 248 241 q 248 244 250 244 z m 234 313 q 237 313 237 311 l 238 307 q 238 304 236 304 q 235 304 233 306 l 232 310 q 232 313 234 313 z m 237 299 q 240 300 240 298 l 241 293 q 244 290 239 290 q 237 290 237 292 l 236 296 q 234 299 237 299 z m 221 368 q 224 369 224 367 l 225 362 q 228 359 223 359 q 221 359 221 361 l 220 366 q 218 368 221 368 z m 225 355 q 227 355 227 353 l 228 348 q 229 347 227 345 l 226 345 q 224 345 224 347 l 223 352 q 222 353 225 355 z m 212 410 q 213 410 215 408 l 216 403 q 216 401 214 401 l 213 401 q 211 401 211 402 l 210 407 q 210 410 212 410 z m 132 535 q 130 535 130 538 l 131 543 q 131 547 134 544 q 136 544 136 541 l 135 537 q 133 535 132 535 z m 119 480 q 117 480 117 483 l 118 487 q 119 489 121 489 q 123 489 123 486 l 122 482 q 122 480 119 480 z m 122 494 q 120 494 120 497 l 121 501 q 123 503 124 503 q 126 503 126 500 l 125 495 q 125 494 123 494 z m 116 466 q 114 466 114 469 l 115 473 q 115 478 118 475 q 120 475 120 472 l 119 468 q 117 466 116 466 z m 103 411 q 101 411 101 414 l 102 418 q 104 420 105 420 q 107 420 107 417 l 106 413 q 106 411 103 411 z m 167 603 q 168 604 170 601 l 171 597 q 171 594 169 594 q 166 594 166 596 l 165 600 q 165 603 167 603 z m 106 425 q 104 425 104 427 l 105 432 q 107 434 108 434 q 110 434 110 431 l 109 426 q 109 425 107 425 z m 164 617 q 166 617 167 615 l 168 611 q 168 608 166 608 l 165 608 q 163 608 163 610 l 162 614 q 162 617 164 617 z m 151 618 q 149 618 149 621 l 150 625 q 152 628 153 627 q 155 627 155 624 l 154 620 q 154 618 151 618 z m 145 590 q 142 592 143 593 l 144 598 q 144 600 147 600 q 149 598 148 597 l 147 592 q 147 590 145 590 z m 135 549 q 133 549 133 552 l 134 556 q 135 558 137 558 q 139 558 139 555 l 138 551 q 138 549 135 549 z m 148 604 q 146 604 146 607 l 147 612 q 147 616 150 613 q 152 613 152 611 l 151 606 q 149 604 148 604 z m 28 88 q 30 88 30 86 l 29 81 q 29 79 27 79 l 26 79 q 24 81 24 82 l 25 87 q 27 89 28 88 z m 204 442 q 203 442 201 444 l 200 448 q 200 451 202 451 q 205 454 205 450 l 206 445 q 206 442 204 442 z m 255 221 q 253 221 253 223 l 252 227 q 250 230 253 230 q 256 231 256 228 l 257 224 q 260 221 255 221 z m 249 249 q 246 249 246 250 l 245 255 q 245 258 247 258 q 248 258 250 256 l 251 252 q 251 249 249 249 z m 245 262 q 243 262 243 264 l 242 269 q 242 271 244 272 q 245 272 247 270 l 248 265 q 248 264 246 262 z m 261 193 q 259 193 259 195 l 258 200 q 258 202 260 203 q 261 203 263 201 l 264 196 q 264 195 262 193 z m 265 180 q 262 180 262 181 l 261 186 q 261 189 263 189 q 264 189 266 187 l 267 182 q 267 180 265 180 z m 217 387 q 214 387 214 389 l 213 393 q 213 396 215 396 q 217 396 218 394 l 219 390 q 219 387 217 387 z m 220 373 q 219 373 217 375 l 216 379 q 216 382 218 382 q 221 385 221 380 l 222 376 q 222 373 220 373 z m 242 276 q 240 276 240 278 l 239 283 q 238 284 241 286 q 243 286 243 284 l 244 279 q 245 278 243 276 z m 268 166 q 266 166 265 168 l 264 172 q 264 175 266 175 q 269 175 269 173 l 270 169 q 270 166 268 166 z m 229 332 q 227 332 227 333 l 226 338 q 226 340 228 341 q 229 341 231 339 l 232 334 q 232 332 230 332 z m 233 318 q 230 318 230 320 l 229 324 q 229 327 231 327 q 232 327 234 325 l 235 321 q 235 318 233 318 z m 258 207 q 256 207 256 209 l 255 214 q 253 216 257 216 q 259 218 259 215 l 260 210 q 261 209 259 207 z m 290 69 q 288 69 288 71 l 287 75 q 285 78 289 78 q 291 80 291 77 l 292 72 q 295 69 291 69 z m 300 28 q 298 28 297 29 l 296 34 q 296 37 298 37 q 301 37 301 35 l 302 30 q 302 28 300 28 z m 293 55 q 291 55 291 57 l 290 62 q 290 64 292 64 q 293 65 295 63 l 296 58 q 296 57 294 55 z m 297 41 q 294 41 294 43 l 293 48 q 293 49 295 51 q 296 51 298 49 l 299 44 q 299 43 297 41 z m 308 3 q 311 0 307 0 l 306 0 q 304 0 304 2 l 303 6 q 301 9 305 9 q 307 11 307 7 z m 303 14 q 301 14 301 16 l 300 20 q 297 23 301 23 q 304 23 304 21 l 305 17 q 306 14 303 14 z m 287 83 q 285 83 285 85 l 284 89 q 282 92 285 92 q 288 92 288 90 l 289 86 q 290 83 287 83 z m 277 124 q 275 124 275 126 l 274 131 q 274 133 276 134 q 277 134 279 132 l 280 127 q 280 126 278 124 z m 274 138 q 272 138 272 140 l 271 145 q 269 147 273 147 q 275 149 275 146 l 276 141 q 279 138 275 138 z m 284 97 q 282 97 281 98 l 280 103 q 280 106 282 106 q 285 106 285 104 l 286 100 q 286 97 284 97 z m 281 110 q 278 110 278 112 l 277 117 q 277 118 279 120 q 280 120 282 118 l 283 113 q 283 111 281 111 z m 271 152 q 269 152 269 154 l 268 158 q 266 161 269 161 q 272 161 272 159 l 273 155 q 276 152 271 152 z m 188 511 q 187 511 185 513 l 184 518 q 184 520 186 520 q 189 523 189 519 l 190 514 q 190 511 188 511 z m 162 622 q 160 622 160 623 l 159 628 q 156 631 161 631 q 163 631 163 629 l 164 625 q 165 622 163 622 z m 115 461 q 118 461 116 459 l 115 454 q 115 452 113 452 q 110 454 111 455 l 112 460 q 112 462 115 461 z m 159 635 q 159 635 158 636 l 157 634 q 157 632 155 632 l 154 632 q 152 632 152 635 l 153 639 q 155 641 156 641 l 156 642 q 155 643 157 645 q 160 645 160 643 l 161 638 q 162 637 159 635 z m 111 448 q 114 446 113 445 l 112 440 q 112 438 110 438 l 109 438 q 107 440 108 441 l 109 446 q 109 448 111 448 z m 127 517 q 130 515 129 514 l 128 509 q 128 507 126 507 l 125 507 q 123 509 124 510 l 125 515 q 125 517 127 517 z m 172 580 q 171 580 169 582 l 168 587 q 168 589 170 589 q 173 592 173 588 l 174 583 q 174 581 172 580 z m 143 586 q 146 584 145 583 l 144 578 q 144 576 142 576 q 142 576 141 577 q 138 577 140 579 l 141 584 q 141 586 143 586 z m 140 572 q 142 572 142 569 l 141 565 q 141 563 139 563 l 138 563 q 136 563 136 566 l 137 570 q 139 572 140 572 z m 191 497 q 189 497 189 499 l 188 504 q 187 505 189 507 q 192 507 192 505 l 193 500 q 194 499 191 497 z m 131 531 q 133 529 132 528 l 131 523 q 131 521 129 521 q 126 523 127 524 l 128 529 q 128 531 131 531 z m 102 406 q 104 406 104 403 l 103 399 q 101 397 100 397 q 98 397 98 400 l 99 404 q 99 406 102 406 z m 201 456 q 198 456 198 458 l 197 462 q 197 465 199 465 q 201 465 202 463 l 203 459 q 203 456 201 456 z m 175 566 q 173 566 173 568 l 172 573 q 171 574 173 576 q 176 576 176 574 l 177 569 q 178 568 175 566 z m 99 392 q 102 392 100 390 l 99 385 q 99 383 97 383 q 92 383 95 386 l 96 391 q 96 393 99 392 z m 210 210 q 212 210 212 208 q 212 206 210 206 l 205 206 q 203 206 203 208 q 203 210 205 210 z m 111 210 q 113 210 113 208 q 113 206 111 206 l 106 206 q 103 206 103 208 q 103 210 106 210 z m 125 210 q 127 210 127 208 q 127 206 125 206 l 120 206 q 118 206 118 208 q 118 210 120 210 z m 68 210 q 70 210 70 208 q 70 206 68 206 l 63 206 q 61 206 61 208 q 61 210 63 210 z m 82 210 q 85 210 85 208 q 85 206 82 206 l 77 206 q 75 206 75 208 q 75 210 77 210 z m 224 210 q 226 210 226 208 q 226 206 224 206 l 219 206 q 217 206 217 208 q 217 210 219 210 z m 238 210 q 241 210 241 208 q 241 206 238 206 l 233 206 q 231 206 231 208 q 231 210 233 210 z m 96 210 q 99 210 99 208 q 99 206 96 206 l 92 206 q 89 206 89 208 q 89 210 92 210 z m 196 210 q 198 210 198 208 q 198 206 196 206 l 191 206 q 189 206 189 208 q 189 210 191 210 z m 167 210 q 170 210 170 208 q 170 206 167 206 l 163 206 q 160 206 160 208 q 160 210 163 210 z m 153 210 q 155 210 155 208 q 155 206 153 206 l 148 206 q 146 206 146 208 q 146 210 148 210 z m 181 210 q 184 210 184 208 q 184 206 181 206 l 177 206 q 174 206 174 208 q 174 210 177 210 z m 139 210 q 141 210 141 208 q 141 206 139 206 l 134 206 q 132 206 132 208 q 132 210 134 210 z m 250 210 q 252 210 252 208 q 252 206 250 206 l 248 206 q 245 206 245 208 q 245 210 248 210 z"},"L":{"x_min":0,"x_max":267,"ha":267,"o":"m 232 0 l 228 0 q 225 0 225 2 q 225 5 228 5 l 232 5 q 235 5 235 2 q 235 0 232 0 z m 218 0 l 214 0 q 211 0 211 2 q 211 5 214 5 l 218 5 q 221 5 221 2 q 221 0 218 0 z m 204 0 l 199 0 q 197 0 197 2 q 197 5 199 5 l 204 5 q 206 5 206 2 q 206 0 204 0 z m 190 0 l 185 0 q 183 0 183 2 q 183 5 185 5 l 190 5 q 192 5 192 2 q 192 0 190 0 z m 176 0 l 171 0 q 169 0 169 2 q 169 5 171 5 l 176 5 q 178 5 178 2 q 178 0 176 0 z m 162 0 l 157 0 q 154 0 154 2 q 154 5 157 5 l 162 5 q 164 5 164 2 q 164 0 162 0 z m 147 0 l 143 0 q 140 0 140 2 q 140 5 143 5 l 147 5 q 150 5 150 2 q 150 0 147 0 z m 133 0 l 128 0 q 126 0 126 2 q 126 5 128 5 l 133 5 q 136 5 136 2 q 136 0 133 0 z m 119 0 l 114 0 q 112 0 112 2 q 112 5 114 5 l 119 5 q 121 5 121 2 q 121 0 119 0 z m 105 0 l 100 0 q 98 0 98 2 q 98 5 100 5 l 105 5 q 107 5 107 2 q 107 0 105 0 z m 91 0 l 86 0 q 84 0 84 2 q 84 5 86 5 l 91 5 q 93 5 93 2 q 93 0 91 0 z m 76 0 l 72 0 q 69 0 69 2 q 69 5 72 5 l 76 5 q 79 5 79 2 q 79 0 76 0 z m 62 0 l 58 0 q 55 0 55 2 q 55 5 58 5 l 62 5 q 65 5 65 2 q 65 0 62 0 z m 48 0 l 43 0 q 41 0 41 2 q 41 5 43 5 l 48 5 q 50 5 50 2 q 50 0 48 0 z m 34 0 l 29 0 q 27 0 27 2 q 27 5 29 5 l 34 5 q 36 5 36 2 q 36 0 34 0 z m 20 0 l 15 0 q 13 0 13 2 q 13 5 15 5 l 20 5 q 22 5 22 2 q 22 0 20 0 z m 6 1 q 4 1 4 3 l 4 8 q 4 10 6 10 q 9 10 9 8 l 9 3 q 9 1 6 1 z m 6 15 q 4 15 4 17 l 4 22 q 4 24 6 24 q 9 24 9 22 l 9 17 q 9 15 6 15 z m 6 29 q 4 29 4 31 l 4 36 q 4 38 6 38 q 9 38 9 36 l 9 31 q 9 29 6 29 z m 6 43 q 4 43 4 46 l 4 50 q 4 53 6 53 q 9 53 9 50 l 9 46 q 9 43 6 43 z m 6 57 q 4 57 4 60 l 4 64 q 4 67 6 67 q 9 67 9 64 l 9 60 q 9 57 6 57 z m 6 72 q 4 72 4 74 l 4 79 q 4 81 6 81 q 9 81 9 79 l 9 74 q 9 72 6 72 z m 6 86 q 4 86 4 88 l 4 93 q 4 95 6 95 q 9 95 9 93 l 9 88 q 9 86 6 86 z m 6 100 q 4 100 4 102 l 4 107 q 4 109 6 109 q 9 109 9 107 l 9 102 q 9 100 6 100 z m 6 114 q 4 114 4 116 l 4 121 q 4 124 6 124 q 9 124 9 121 l 9 116 q 9 114 6 114 z m 6 128 q 4 128 4 131 l 4 135 q 4 138 6 138 q 9 138 9 135 l 9 131 q 9 128 6 128 z m 6 142 q 4 142 4 145 l 4 150 q 4 152 6 152 q 9 152 9 150 l 9 145 q 9 142 6 142 z m 6 157 q 4 157 4 159 l 4 164 q 4 166 6 166 q 9 166 9 164 l 9 159 q 9 157 6 157 z m 6 171 q 4 171 4 173 l 4 178 q 4 180 6 180 q 9 180 9 178 l 9 173 q 9 171 6 171 z m 6 185 q 4 185 4 187 l 4 192 q 4 194 6 194 q 9 194 9 192 l 9 187 q 9 185 6 185 z m 6 199 q 4 199 4 202 l 4 206 q 4 209 6 209 q 9 209 9 206 l 9 202 q 9 199 6 199 z m 6 213 q 4 213 4 216 l 4 220 q 4 223 6 223 q 9 223 9 220 l 9 216 q 9 213 6 213 z m 6 228 q 4 228 4 230 l 4 235 q 4 237 6 237 q 9 237 9 235 l 9 230 q 9 228 6 228 z m 6 242 q 4 242 4 244 l 4 249 q 4 251 6 251 q 9 251 9 249 l 9 244 q 9 242 6 242 z m 6 256 q 4 256 4 258 l 4 263 q 4 265 6 265 q 9 265 9 263 l 9 258 q 9 256 6 256 z m 6 270 q 4 270 4 272 l 4 277 q 4 280 6 280 q 9 280 9 277 l 9 272 q 9 270 6 270 z m 6 284 q 4 284 4 287 l 4 291 q 4 294 6 294 q 9 294 9 291 l 9 287 q 9 284 6 284 z m 6 298 q 4 298 4 301 l 4 306 q 4 308 6 308 q 9 308 9 306 l 9 301 q 9 298 6 298 z m 6 313 q 4 313 4 315 l 4 320 q 4 322 6 322 q 9 322 9 320 l 9 315 q 9 313 6 313 z m 6 327 q 4 327 4 329 l 4 334 q 4 336 6 336 q 9 336 9 334 l 9 329 q 9 327 6 327 z m 6 341 q 4 341 4 343 l 4 348 q 4 350 6 350 q 9 350 9 348 l 9 343 q 9 341 6 341 z m 6 355 q 4 355 4 358 l 4 362 q 4 365 6 365 q 9 365 9 362 l 9 358 q 9 355 6 355 z m 6 369 q 4 369 4 372 l 4 376 q 4 379 6 379 q 9 379 9 376 l 9 372 q 9 369 6 369 z m 6 384 q 4 384 4 386 l 4 391 q 4 393 6 393 q 9 393 9 391 l 9 386 q 9 384 6 384 z m 6 398 q 4 398 4 400 l 4 405 q 4 407 6 407 q 9 407 9 405 l 9 400 q 9 398 6 398 z m 6 412 q 4 412 4 414 l 4 419 q 4 421 6 421 q 9 421 9 419 l 9 414 q 9 412 6 412 z m 6 426 q 4 426 4 428 l 4 433 q 4 436 6 436 q 9 436 9 433 l 9 428 q 9 426 6 426 z m 6 440 q 4 440 4 443 l 4 447 q 4 450 6 450 q 9 450 9 447 l 9 443 q 9 440 6 440 z m 6 454 q 4 454 4 457 l 4 462 q 4 464 6 464 q 9 464 9 462 l 9 457 q 9 454 6 454 z m 6 469 q 4 469 4 471 l 4 476 q 4 478 6 478 q 9 478 9 476 l 9 471 q 9 469 6 469 z m 6 483 q 4 483 4 485 l 4 490 q 4 492 6 492 q 9 492 9 490 l 9 485 q 9 483 6 483 z m 6 497 q 4 497 4 499 l 4 504 q 4 506 6 506 q 9 506 9 504 l 9 499 q 9 497 6 497 z m 6 511 q 4 511 4 514 l 4 518 q 4 521 6 521 q 9 521 9 518 l 9 514 q 9 511 6 511 z m 6 525 q 4 525 4 528 l 4 532 q 4 535 6 535 q 9 535 9 532 l 9 528 q 9 525 6 525 z m 6 540 q 4 540 4 542 l 4 547 q 4 549 6 549 q 9 549 9 547 l 9 542 q 9 540 6 540 z m 6 554 q 4 554 4 556 l 4 561 q 4 563 6 563 q 9 563 9 561 l 9 556 q 9 554 6 554 z m 6 568 q 4 568 4 570 l 4 575 q 4 577 6 577 q 9 577 9 575 l 9 570 q 9 568 6 568 z m 6 582 q 4 582 4 584 l 4 589 q 4 592 6 592 q 9 592 9 589 l 9 584 q 9 582 6 582 z m 6 596 q 4 596 4 599 l 4 603 q 4 606 6 606 q 9 606 9 603 l 9 599 q 9 596 6 596 z m 6 610 q 4 610 4 613 l 4 618 q 4 620 6 620 q 9 620 9 618 l 9 613 q 9 610 6 610 z m 6 625 q 4 625 4 627 l 4 632 q 4 634 6 634 q 9 634 9 632 l 9 627 q 9 625 6 625 z m 6 639 q 4 639 4 641 l 4 645 q 4 648 6 648 q 9 648 9 645 l 9 641 q 9 639 6 639 z"},"3":{"x_min":0,"x_max":275,"ha":275,"o":"m 152 343 q 152 346 153 347 q 155 347 157 349 q 158 350 160 349 q 162 347 160 345 q 156 343 156 343 q 155 342 154 342 q 154 342 152 343 z m 160 631 q 156 631 159 634 q 159 638 162 635 q 163 634 164 634 q 165 633 166 632 q 170 632 167 629 q 166 628 165 628 l 164 628 q 162 629 160 631 z m 164 352 q 162 353 164 355 q 165 356 166 356 q 167 357 168 358 q 169 359 171 358 q 173 356 171 354 q 170 353 169 352 q 168 352 167 351 l 166 351 q 164 351 164 352 z m 38 611 q 41 610 39 608 q 38 607 38 606 q 37 605 36 604 q 36 604 34 603 q 34 603 33 604 q 32 604 32 607 q 33 608 34 609 q 34 610 35 611 q 36 612 38 611 z m 140 336 q 137 339 141 339 q 142 340 143 340 q 144 341 145 342 q 148 342 148 341 q 151 338 147 338 q 145 336 143 335 l 142 335 q 140 335 140 336 z m 147 637 q 143 637 146 640 q 146 644 149 641 q 151 641 153 639 q 155 639 155 636 q 154 635 152 635 l 151 635 q 151 635 147 637 z m 184 610 q 182 612 181 614 q 179 615 181 617 q 183 619 185 617 q 186 616 186 615 q 187 614 188 613 q 189 612 187 610 q 187 609 186 609 q 185 609 185 610 q 185 610 184 610 z m 187 378 q 188 379 190 379 q 191 378 191 375 q 189 373 188 371 l 186 371 l 184 371 q 182 373 184 375 z m 192 599 q 192 601 190 603 q 188 604 190 606 q 192 608 194 606 q 196 602 196 602 q 198 600 196 598 l 194 598 q 194 598 192 599 z m 195 390 q 196 391 198 390 q 202 390 199 387 q 198 386 198 385 q 197 384 196 383 q 196 382 194 382 l 193 382 q 192 383 192 386 q 194 388 195 390 z m 175 364 q 177 366 178 368 q 181 368 181 368 q 183 366 181 364 l 178 361 q 177 360 176 360 q 176 360 175 361 q 173 362 175 364 z m 171 623 q 169 624 171 626 q 171 630 174 627 q 176 625 178 624 q 180 622 178 620 q 177 620 177 620 q 177 619 176 619 q 176 619 174 620 z m 134 641 q 132 641 132 643 q 132 645 135 645 q 136 645 137 644 q 138 644 140 644 q 144 644 141 641 q 141 639 139 639 l 138 640 q 135 640 134 641 z m 6 509 q 4 509 4 512 l 4 517 q 4 519 7 519 q 9 519 9 516 l 9 511 q 7 509 6 509 z m 9 537 q 7 539 7 540 q 8 542 8 545 q 8 547 11 547 q 13 545 13 544 q 12 542 12 539 q 12 537 10 537 z m 97 646 q 99 646 99 644 q 99 643 97 641 l 93 641 l 92 641 q 90 641 90 643 q 90 645 92 645 q 93 646 97 646 z m 12 551 q 10 553 10 554 q 10 556 10 556 q 11 557 11 559 q 13 561 14 561 q 16 559 16 558 q 15 556 15 553 q 13 551 12 551 z m 7 523 q 5 525 5 526 q 5 528 6 528 q 6 529 6 531 q 6 533 8 533 q 11 533 11 530 q 10 529 10 525 q 10 523 8 523 z m 15 565 q 11 565 14 568 q 14 570 14 570 q 15 571 15 573 q 16 574 18 574 q 20 574 20 571 q 19 570 19 569 q 19 568 18 567 q 18 565 16 565 z m 20 578 q 18 580 19 582 q 19 584 21 586 q 21 588 24 587 q 25 587 25 584 q 24 583 24 582 q 24 581 23 580 q 23 578 21 578 z m 54 624 q 52 624 52 625 q 50 626 52 628 q 53 629 54 630 q 55 630 56 631 q 59 634 59 630 q 60 628 59 627 q 58 626 57 626 q 56 625 55 624 z m 66 631 q 65 631 63 633 q 63 635 64 636 q 66 637 66 637 q 67 637 69 638 q 70 639 72 637 q 72 634 71 634 q 67 632 67 632 z m 79 637 q 78 637 76 639 q 76 640 78 642 q 79 642 80 642 q 81 643 82 643 q 85 643 85 641 q 87 639 84 639 q 82 638 82 638 q 81 638 79 637 z m 5 481 q 3 481 3 483 l 3 488 q 3 490 5 490 q 8 490 8 488 q 8 486 8 486 q 7 485 7 483 q 7 481 5 481 z m 43 614 q 43 614 42 615 q 41 616 41 618 q 43 619 44 620 q 44 621 45 622 q 45 622 48 622 q 50 620 48 618 l 45 615 q 44 614 43 614 z m 26 591 q 24 593 25 595 q 25 595 27 599 q 28 600 30 600 q 32 598 31 596 q 31 596 29 592 q 29 592 27 591 z m 5 495 q 3 495 3 498 l 3 502 q 3 505 6 505 q 8 503 8 502 l 8 497 q 8 495 5 495 z m 220 527 q 223 528 223 525 q 223 522 224 521 q 224 518 221 518 q 219 518 219 520 q 219 522 218 522 q 218 523 218 525 q 218 527 220 527 z m 223 499 q 225 499 225 497 l 225 492 q 227 490 223 490 q 221 490 221 492 l 221 497 q 221 499 223 499 z m 220 511 q 220 513 222 513 q 224 513 224 511 q 225 510 225 506 q 225 504 223 504 l 222 504 q 220 504 220 506 z m 201 394 q 199 396 200 398 q 200 398 202 402 q 203 403 205 403 q 207 401 206 399 q 206 399 204 395 q 203 394 202 394 z m 223 485 q 226 485 226 483 q 226 481 226 480 q 225 479 225 478 q 225 476 223 476 q 221 476 221 478 l 221 483 q 221 485 223 485 z m 212 427 q 213 429 215 429 q 217 429 217 426 q 216 425 216 424 q 216 423 215 422 q 215 420 213 420 l 212 420 q 211 420 211 423 q 211 424 212 425 q 212 426 212 427 z m 219 455 q 219 457 221 457 q 223 457 223 454 l 223 449 q 221 447 220 447 q 218 449 218 450 q 218 453 219 455 z m 216 441 q 216 443 219 443 q 221 441 221 440 q 220 438 220 435 q 218 433 217 433 l 217 434 q 215 434 215 436 q 215 438 216 438 q 216 439 216 441 z m 222 461 q 220 463 220 464 l 220 469 q 220 471 223 471 q 225 471 225 468 q 225 465 224 464 q 224 461 222 461 z m 125 647 q 130 647 127 644 q 127 642 125 642 l 120 642 q 118 642 118 645 q 118 647 121 647 z m 116 324 q 114 324 114 326 q 111 329 115 329 q 117 329 118 330 q 118 330 120 330 q 121 331 123 329 q 123 326 121 326 q 120 325 117 325 z m 200 587 q 199 588 198 589 q 198 590 197 591 q 197 594 198 594 q 201 597 201 593 q 203 591 204 589 q 204 587 203 586 l 202 586 q 200 586 200 587 z m 204 579 q 203 580 205 582 q 207 582 208 581 q 208 580 210 576 q 210 574 208 573 q 206 573 205 574 q 205 576 204 576 q 204 577 204 579 z m 111 647 q 113 647 113 645 q 113 644 111 642 l 106 642 q 104 642 104 645 q 104 647 106 647 z m 218 541 q 219 542 221 539 l 221 535 q 224 532 220 532 l 219 532 q 217 532 217 534 q 216 536 216 539 q 216 541 218 541 z m 208 414 q 208 416 211 416 q 213 414 212 413 q 212 412 210 408 q 210 407 208 407 l 207 407 q 203 407 206 410 q 207 411 207 412 q 207 413 208 414 z m 129 329 q 127 329 127 331 q 127 333 128 334 q 130 334 130 334 q 131 335 133 335 q 134 336 136 334 q 136 332 135 331 q 133 330 132 330 q 132 330 130 329 z m 209 566 q 208 567 210 569 q 213 569 213 567 q 214 566 214 565 q 214 564 215 563 q 215 560 213 560 l 212 560 q 210 560 210 561 q 210 563 210 564 q 209 564 209 566 z m 213 552 q 210 555 214 555 q 217 555 217 553 q 218 552 218 549 q 221 546 217 546 l 216 546 q 214 546 214 548 q 214 549 214 550 q 213 551 213 552 z m 196 263 q 197 261 199 259 q 200 257 198 255 l 197 255 q 196 255 195 256 q 193 258 193 260 q 190 263 193 263 q 196 266 196 263 z m 188 274 q 190 272 191 270 q 192 269 190 267 l 189 267 l 187 267 q 186 269 184 271 q 181 274 184 274 q 186 276 188 274 z m 219 191 q 218 192 218 195 q 218 198 220 198 q 222 198 223 196 l 223 192 q 224 189 221 189 q 219 189 219 191 z m 202 244 q 201 245 201 246 q 201 247 200 248 q 197 251 201 251 q 203 253 204 250 q 206 248 206 246 q 207 245 205 243 l 204 243 q 202 243 202 244 z m 223 161 q 221 161 221 163 l 221 168 q 221 170 223 170 q 225 170 225 168 q 225 166 226 166 q 226 165 226 163 q 226 161 223 161 z m 223 175 q 220 175 220 177 l 220 182 q 220 184 222 184 q 224 184 224 182 q 225 180 225 177 q 225 175 223 175 z m 216 205 q 216 206 216 207 q 215 208 215 209 q 215 212 217 212 q 219 212 220 210 q 220 207 221 206 q 221 203 219 203 l 218 203 q 216 203 216 205 z m 208 231 q 207 233 207 234 q 207 234 206 236 q 206 238 207 239 q 210 239 210 237 q 212 235 212 233 q 215 230 211 230 l 210 230 q 208 230 208 231 z m 213 218 q 212 220 212 220 q 212 221 211 223 q 211 225 213 226 q 214 226 216 224 q 216 223 216 222 q 217 221 217 220 q 217 217 215 217 l 215 216 q 213 216 213 218 z m 6 129 q 4 129 4 131 l 4 136 q 4 137 6 139 q 8 139 8 136 q 9 135 9 132 q 9 129 7 129 z m 171 288 q 171 287 169 287 q 169 287 168 288 q 166 290 164 291 q 161 291 164 294 q 165 295 167 294 q 169 293 171 291 q 172 289 171 288 z m 184 36 q 184 39 187 36 q 188 34 187 33 q 186 31 184 29 q 183 29 183 28 q 183 28 182 28 l 181 29 q 180 30 180 32 q 182 33 182 34 q 183 35 184 36 z m 124 5 q 126 5 126 3 q 126 0 124 0 l 119 0 q 117 0 117 2 q 117 3 119 5 z m 174 26 q 175 27 177 26 q 179 24 177 22 q 176 21 175 20 q 174 20 173 19 l 172 19 q 170 19 170 20 q 168 21 170 23 q 171 24 172 24 q 173 25 174 26 z m 160 297 q 160 296 158 296 l 157 296 q 156 297 155 298 q 154 298 153 299 q 152 300 152 302 q 154 304 156 303 q 158 301 160 300 q 161 298 160 297 z m 163 18 q 165 18 166 17 q 169 14 165 14 q 164 13 163 12 q 162 12 161 11 l 160 11 q 158 11 158 12 q 155 15 159 15 q 161 17 163 18 z m 137 7 q 140 7 140 5 q 142 3 139 3 q 137 2 136 2 q 135 2 134 1 l 133 1 q 131 1 131 3 q 131 6 133 6 q 134 6 135 6 q 136 7 137 7 z m 133 310 q 131 311 130 311 q 130 311 128 312 q 127 312 127 315 q 129 317 130 316 q 131 316 135 314 q 136 314 136 311 q 135 310 134 310 z m 146 303 q 146 303 145 304 q 144 305 143 305 q 142 305 141 306 q 139 308 140 309 q 142 311 143 310 q 145 309 146 309 q 146 309 148 308 q 149 306 148 305 q 148 303 146 303 z m 150 11 q 152 12 154 10 q 154 8 152 7 q 151 6 150 6 q 149 6 148 5 l 147 5 q 145 5 145 7 q 144 8 146 10 q 148 10 148 10 q 149 11 150 11 z m 181 281 q 182 279 181 278 l 180 277 q 179 277 178 278 l 175 281 q 173 283 175 285 q 176 286 178 285 q 179 284 180 283 q 180 282 181 281 z m 221 128 q 224 126 223 125 l 223 120 q 223 118 221 118 l 220 118 q 218 118 218 121 q 218 122 218 123 q 219 124 219 126 q 219 128 221 128 z m 223 142 q 225 142 225 139 q 225 136 224 134 q 224 132 222 132 q 220 132 220 135 l 220 140 q 220 142 223 142 z m 223 156 q 226 156 225 153 l 225 149 q 225 146 223 146 q 221 146 221 149 l 221 154 q 221 156 223 156 z m 219 114 q 222 112 221 111 q 221 108 220 106 q 220 104 218 104 q 216 105 216 107 q 216 110 217 112 q 217 114 219 114 z m 217 100 q 219 98 218 97 q 218 94 217 92 q 217 90 215 90 l 214 90 q 212 92 213 93 q 213 96 214 98 q 214 100 217 100 z m 202 60 q 204 59 203 56 q 203 56 201 52 q 201 52 199 51 l 198 51 q 196 53 197 55 q 197 55 199 59 q 200 60 202 60 z m 208 73 q 210 71 209 70 q 209 68 208 68 q 208 67 208 65 q 207 64 205 64 l 204 64 q 203 64 203 67 q 204 68 204 69 q 204 70 205 71 q 206 73 208 73 z m 213 86 q 217 86 214 83 q 214 81 214 80 q 213 80 213 78 q 213 77 211 77 l 210 77 q 208 77 208 80 q 209 81 209 82 q 209 83 210 84 q 210 86 213 86 z m 195 47 q 199 47 196 44 q 195 43 194 42 q 194 41 193 40 q 193 40 191 39 q 191 39 190 40 q 189 40 189 43 q 191 45 192 47 q 193 48 195 47 z m 44 33 q 45 31 47 29 q 48 27 47 26 q 47 25 46 25 q 44 25 44 26 l 41 29 q 39 31 41 33 q 42 34 44 33 z m 28 55 q 30 53 30 51 q 31 49 30 48 l 28 48 q 28 48 26 49 q 26 51 24 53 q 21 56 25 56 q 28 59 28 55 z m 5 157 q 3 157 3 160 l 3 165 q 3 167 5 167 q 7 167 7 165 q 7 161 8 160 q 8 157 5 157 z m 38 40 q 40 38 38 36 l 36 36 q 36 36 34 37 q 32 39 32 41 q 30 42 32 44 q 35 47 35 43 z m 19 77 q 20 74 18 74 l 17 74 q 15 74 15 75 q 14 77 14 78 q 14 78 13 80 q 13 81 15 83 q 18 83 18 81 q 18 80 18 79 q 19 78 19 77 z m 24 64 q 25 61 23 61 q 23 60 22 60 q 20 60 20 62 q 19 63 19 64 q 19 65 18 66 q 18 69 19 69 q 22 70 22 68 q 24 64 24 64 z m 15 90 q 16 89 14 87 l 13 87 q 11 87 11 89 q 10 91 10 94 q 8 96 12 96 q 14 98 14 95 q 15 93 15 90 z m 6 143 q 3 143 3 146 l 3 150 q 3 153 5 153 q 8 153 8 150 l 8 146 q 8 143 6 143 z m 8 115 q 6 115 6 117 q 5 119 5 122 q 5 124 7 124 q 10 127 10 122 l 10 118 q 10 115 8 115 z m 10 101 q 8 101 8 103 q 8 105 8 106 q 7 106 7 108 q 7 110 9 110 q 10 111 12 108 l 12 104 q 15 101 11 101 z m 70 14 q 71 13 71 10 q 70 10 70 10 q 70 9 69 9 l 68 9 q 66 10 66 10 q 65 11 63 12 q 62 12 62 15 q 63 16 66 16 q 68 14 70 14 z m 83 9 q 85 7 84 6 q 84 4 82 4 l 81 4 q 80 5 79 5 q 78 5 77 6 q 75 6 75 9 q 77 11 78 10 q 80 10 80 10 q 81 9 83 9 z m 96 6 q 98 6 98 3 q 98 1 96 1 l 95 1 q 94 1 93 2 q 92 2 91 2 q 89 2 89 5 q 89 7 92 6 z m 88 320 l 87 320 q 84 320 84 323 q 84 325 87 325 l 88 325 l 93 325 q 95 325 95 323 l 95 322 q 95 320 93 320 z m 106 318 q 105 319 102 319 q 100 319 100 322 l 100 323 q 100 326 102 326 q 103 326 104 326 q 105 327 106 327 q 109 327 109 325 q 109 323 108 323 q 109 322 109 320 q 109 318 107 318 z m 110 4 q 112 4 112 2 q 112 0 110 0 l 105 0 q 103 0 103 3 q 103 5 105 5 q 108 5 110 4 z m 120 315 q 118 315 118 316 q 117 316 115 316 q 113 318 114 319 q 114 321 117 321 q 118 320 121 320 q 123 318 123 317 q 121 315 120 315 z m 58 20 q 61 20 58 17 q 58 17 56 16 l 55 17 q 54 18 53 18 q 52 19 51 20 q 48 20 51 23 q 52 24 54 23 q 55 22 56 22 q 57 21 58 20 z m 51 323 q 51 320 49 320 l 44 320 q 42 320 42 323 q 42 325 44 325 l 49 325 q 51 325 51 323 z m 56 323 q 56 325 58 325 l 63 325 q 65 325 65 323 q 65 320 63 320 l 58 320 q 56 320 56 323 z m 80 323 q 80 320 77 320 l 73 320 q 70 320 70 323 q 70 325 73 325 l 77 325 q 80 325 80 323 z"},";":{"x_min":0,"x_max":69,"ha":69,"o":"m 8 438 q 10 438 10 436 l 10 434 q 10 431 8 431 q 6 431 6 434 l 6 436 q 6 438 8 438 z m 8 452 q 10 452 10 450 l 10 445 q 10 443 8 443 q 6 443 6 445 l 6 450 q 6 452 8 452 z m 8 467 q 10 467 10 464 l 10 459 q 10 457 8 457 q 6 457 6 459 l 6 464 q 6 467 8 467 z m 8 481 q 10 481 10 478 l 10 474 q 10 471 8 471 q 6 471 6 474 l 6 478 q 6 481 8 481 z m 8 163 q 10 163 10 161 l 10 156 q 10 154 8 154 q 6 154 6 156 l 6 161 q 6 163 8 163 z m 8 149 q 10 149 10 147 l 10 142 q 10 139 8 139 q 6 139 6 142 l 6 147 q 6 149 8 149 z m 8 135 q 10 135 10 132 l 10 128 q 10 125 8 125 q 6 125 6 128 l 6 132 q 6 135 8 135 z m 8 206 q 10 206 10 203 l 10 199 q 10 196 8 196 q 6 196 6 199 l 6 203 q 6 206 8 206 z m 8 191 q 10 191 10 189 l 10 184 q 10 182 8 182 q 6 182 6 184 l 6 189 q 6 191 8 191 z m 8 177 q 10 177 10 175 l 10 170 q 10 168 8 168 q 6 168 6 170 l 6 175 q 6 177 8 177 z"},"J":{"x_min":0,"x_max":308,"ha":308,"o":"m 120 0 l 115 0 q 113 0 113 2 q 113 5 116 5 l 120 5 q 123 5 123 2 q 123 0 120 0 z m 130 0 q 127 0 127 2 q 127 5 129 5 l 134 5 q 137 5 137 3 q 137 2 135 0 z m 106 0 q 104 1 101 1 q 99 1 99 4 q 99 6 102 6 q 103 5 106 5 q 108 5 108 3 q 108 0 106 0 z m 144 1 q 142 1 141 4 q 141 6 143 6 q 145 6 146 6 q 146 7 148 7 q 149 7 151 5 q 151 4 149 2 l 144 2 z m 92 2 q 90 3 87 3 q 85 5 85 6 q 85 8 88 8 q 89 8 90 8 q 91 7 92 7 q 95 7 94 4 q 94 2 92 2 z m 158 4 q 157 4 155 6 q 155 9 157 9 q 158 9 159 10 q 160 10 161 10 q 164 11 164 9 q 165 6 163 6 q 161 5 160 5 q 160 5 158 4 z m 78 6 q 76 6 75 6 q 74 7 73 7 q 71 9 72 10 q 72 12 75 12 q 75 12 79 10 q 81 10 80 7 q 80 6 78 6 z m 171 9 q 169 9 169 10 q 166 13 170 13 q 174 15 174 15 q 177 16 177 14 q 180 11 176 11 q 175 10 174 10 q 173 10 172 9 z m 65 11 l 64 11 q 63 12 62 12 q 61 12 60 13 q 58 15 59 16 q 59 20 62 17 q 64 17 66 15 q 70 15 67 12 q 67 11 65 11 z m 184 15 q 182 15 182 16 q 179 19 183 19 l 186 22 q 188 23 190 21 q 190 19 189 18 q 188 17 187 16 q 186 16 185 15 z m 53 18 l 51 18 q 49 20 47 21 q 45 22 47 24 q 48 25 50 25 q 51 24 52 24 q 53 23 54 22 q 55 21 55 19 q 53 18 53 18 z m 195 23 q 194 23 193 24 q 193 27 194 27 l 197 30 q 199 32 201 30 q 201 28 200 27 l 197 24 q 196 23 195 23 z m 42 26 q 40 27 40 27 q 38 29 36 30 q 36 33 37 34 q 37 37 40 34 l 43 31 q 45 29 43 27 z m 205 33 q 204 33 204 34 q 201 34 204 37 l 207 40 q 207 44 210 41 q 212 39 210 37 l 207 34 q 207 33 205 33 z m 32 37 q 31 37 30 38 q 28 40 27 42 q 26 43 28 45 q 29 46 31 44 l 34 41 q 35 39 33 37 z m 214 44 q 213 44 213 45 q 209 45 212 48 q 214 50 215 52 q 215 53 218 53 q 219 52 219 49 q 217 47 216 45 q 215 44 214 44 z m 24 48 q 22 48 22 50 q 20 52 19 54 q 19 56 20 57 q 22 58 24 56 q 24 54 26 52 q 29 49 25 49 z m 221 57 l 220 57 q 216 57 219 60 q 220 61 220 62 q 220 63 221 64 q 221 68 224 65 q 228 65 225 62 q 225 60 223 58 q 223 57 221 57 z m 17 61 q 16 62 15 62 q 15 63 13 67 q 13 70 15 70 q 17 70 18 69 q 18 68 20 64 q 20 62 18 61 z m 227 70 l 226 70 q 224 70 224 73 q 225 74 225 75 q 225 76 226 77 q 226 79 229 79 q 231 77 230 76 q 230 74 230 74 q 229 73 229 71 q 228 70 227 70 z m 12 74 q 10 74 10 76 q 10 77 10 78 q 9 79 9 81 q 7 83 10 83 q 13 84 13 82 q 14 80 14 80 q 14 79 15 77 q 15 76 13 74 z m 231 83 l 230 83 q 228 85 229 86 q 229 89 230 91 q 230 93 233 92 q 235 92 234 89 q 234 86 233 85 q 233 83 231 83 z m 9 88 q 8 88 6 90 q 6 93 5 94 q 5 97 7 97 q 10 100 10 95 q 10 94 10 93 q 11 92 11 91 q 11 88 9 88 z m 234 97 l 233 97 q 230 97 232 100 l 232 104 q 233 106 235 106 q 237 106 237 104 q 237 100 236 99 q 236 97 234 97 z m 6 102 q 5 102 3 104 l 3 109 q 3 111 5 111 q 7 111 7 109 q 8 108 8 105 q 8 102 6 102 z m 236 111 q 234 111 234 114 l 234 118 q 234 120 237 120 q 239 120 239 118 q 239 115 238 113 q 238 111 236 111 z m 4 116 q 2 116 2 118 q 1 120 1 123 q 1 125 3 125 q 6 125 6 123 l 6 119 q 6 116 4 116 z m 237 125 q 235 125 235 128 l 235 132 q 235 137 238 134 q 240 134 240 132 l 240 127 q 240 125 237 125 z m 3 130 q 2 130 0 132 l 0 137 q 0 139 2 139 q 5 139 5 137 l 5 133 q 5 130 3 130 z m 238 139 q 236 139 236 142 l 236 146 q 236 149 238 149 q 241 149 241 146 l 241 141 q 239 139 238 139 z m 2 144 q 0 144 0 147 l 0 151 q 0 154 2 154 q 5 154 5 151 l 5 147 q 5 144 2 144 z m 238 153 q 236 153 236 156 l 236 160 q 236 163 238 163 q 241 163 241 160 l 241 156 q 241 153 238 153 z m 238 168 q 236 168 236 170 l 236 175 q 236 177 238 177 q 241 177 241 175 l 241 170 q 241 168 238 168 z m 238 182 q 236 182 236 184 l 236 189 q 236 191 238 191 q 241 191 241 189 l 241 184 q 241 182 238 182 z m 238 196 q 236 196 236 198 l 236 203 q 236 205 238 205 q 241 205 241 203 l 241 198 q 241 196 238 196 z m 238 210 q 236 210 236 212 l 236 217 q 236 220 238 220 q 241 220 241 217 l 241 212 q 241 210 238 210 z m 238 224 q 236 224 236 227 l 236 231 q 236 234 238 234 q 241 234 241 231 l 241 227 q 241 224 238 224 z m 238 238 q 236 238 236 241 l 236 246 q 236 248 238 248 q 241 248 241 246 l 241 241 q 241 238 238 238 z m 238 253 q 236 253 236 255 l 236 260 q 236 262 238 262 q 241 262 241 260 l 241 255 q 241 253 238 253 z m 238 267 q 236 267 236 269 l 236 274 q 236 276 238 276 q 241 276 241 274 l 241 269 q 241 267 238 267 z m 238 281 q 236 281 236 283 l 236 288 q 236 290 238 290 q 241 290 241 288 l 241 283 q 241 281 238 281 z m 238 295 q 236 295 236 298 l 236 302 q 236 305 238 305 q 241 305 241 302 l 241 298 q 241 295 238 295 z m 238 309 q 236 309 236 312 l 236 316 q 236 319 238 319 q 241 319 241 316 l 241 312 q 241 309 238 309 z m 238 324 q 236 324 236 326 l 236 331 q 236 333 238 333 q 241 333 241 331 l 241 326 q 241 324 238 324 z m 238 338 q 236 338 236 340 l 236 345 q 236 347 238 347 q 241 347 241 345 l 241 340 q 241 338 238 338 z m 238 352 q 236 352 236 354 l 236 359 q 236 361 238 361 q 241 361 241 359 l 241 354 q 241 352 238 352 z m 238 366 q 236 366 236 368 l 236 373 q 236 376 238 376 q 241 376 241 373 l 241 368 q 241 366 238 366 z m 238 380 q 236 380 236 383 l 236 387 q 236 390 238 390 q 241 390 241 387 l 241 383 q 241 380 238 380 z m 238 394 q 236 394 236 397 l 236 402 q 236 404 238 404 q 241 404 241 402 l 241 397 q 241 394 238 394 z m 238 409 q 236 409 236 411 l 236 416 q 236 418 238 418 q 241 418 241 416 l 241 411 q 241 409 238 409 z m 238 423 q 236 423 236 425 l 236 430 q 236 432 238 432 q 241 432 241 430 l 241 425 q 241 423 238 423 z m 238 437 q 236 437 236 439 l 236 444 q 236 446 238 446 q 241 446 241 444 l 241 439 q 241 437 238 437 z m 238 451 q 236 451 236 454 l 236 458 q 236 461 238 461 q 241 461 241 458 l 241 454 q 241 451 238 451 z m 238 465 q 236 465 236 468 l 236 472 q 236 475 238 475 q 241 475 241 472 l 241 468 q 241 465 238 465 z m 238 480 q 236 480 236 482 l 236 487 q 236 489 238 489 q 241 489 241 487 l 241 482 q 241 480 238 480 z m 238 494 q 236 494 236 496 l 236 501 q 236 503 238 503 q 241 503 241 501 l 241 496 q 241 494 238 494 z m 238 508 q 236 508 236 510 l 236 515 q 236 517 238 517 q 241 517 241 515 l 241 510 q 241 508 238 508 z m 238 522 q 236 522 236 524 l 236 529 q 236 532 238 532 q 241 532 241 529 l 241 524 q 241 522 238 522 z m 238 536 q 236 536 236 539 l 236 543 q 236 546 238 546 q 241 546 241 543 l 241 539 q 241 536 238 536 z m 238 550 q 236 550 236 553 l 236 558 q 236 560 238 560 q 241 560 241 558 l 241 553 q 241 550 238 550 z m 238 565 q 236 565 236 567 l 236 572 q 236 574 238 574 q 241 574 241 572 l 241 567 q 241 565 238 565 z m 238 579 q 236 579 236 581 l 236 586 q 236 588 238 588 q 241 588 241 586 l 241 581 q 241 579 238 579 z m 238 593 q 236 593 236 595 l 236 600 q 236 602 238 602 q 241 602 241 600 l 241 595 q 241 593 238 593 z m 238 607 q 236 607 236 609 l 236 614 q 236 617 238 617 q 241 617 241 614 l 241 609 q 241 607 238 607 z m 238 621 q 236 621 236 624 l 236 628 q 236 631 238 631 q 241 631 241 628 l 241 624 q 241 621 238 621 z m 238 635 q 236 635 236 638 l 236 643 q 236 645 238 645 q 241 645 241 643 l 241 638 q 241 635 238 635 z"},"V":{"x_min":0,"x_max":380,"ha":380,"o":"m 163 0 q 162 0 160 2 l 159 6 q 159 9 161 9 q 163 9 164 8 l 164 9 q 164 11 167 11 q 171 11 168 8 l 167 3 q 167 2 165 2 q 165 0 163 0 z m 159 14 q 157 14 157 15 l 156 20 q 153 23 158 23 q 160 23 160 21 l 162 17 q 162 14 160 14 z m 168 15 q 166 17 166 18 l 167 23 q 169 25 170 25 q 172 23 172 22 l 171 17 q 169 15 168 15 z m 156 27 q 154 27 154 29 l 152 34 q 152 35 154 37 q 157 37 157 35 l 158 30 q 158 28 156 28 z m 172 29 l 171 29 q 169 31 170 32 l 171 37 q 171 39 174 38 q 177 38 175 36 l 174 31 q 174 29 172 29 z m 152 41 q 150 41 150 43 l 149 48 q 149 50 151 50 q 152 51 154 49 l 155 44 q 155 43 153 41 z m 175 43 q 173 43 173 46 l 174 50 q 174 52 177 52 q 179 52 179 49 l 178 45 q 176 43 175 43 z m 149 55 q 147 55 147 57 l 145 61 q 145 64 147 64 q 150 67 150 63 l 151 58 q 154 55 149 55 z m 179 57 l 178 57 q 176 57 176 60 l 178 64 q 178 66 180 66 q 182 66 182 63 l 181 58 q 181 57 179 57 z m 145 69 q 143 69 143 71 l 142 75 q 142 78 144 78 q 146 78 147 76 l 148 72 q 148 69 146 69 z m 182 70 l 182 71 q 180 71 180 73 l 181 78 q 181 80 184 80 q 186 78 186 77 l 184 72 q 184 70 182 70 z m 142 82 q 140 82 140 84 l 139 89 q 138 90 140 92 q 143 92 143 90 l 144 85 q 146 83 143 83 q 142 82 142 82 z m 186 84 l 185 84 q 183 86 183 87 l 184 92 q 186 94 187 93 q 189 93 189 91 l 188 86 q 188 84 186 84 z m 139 96 q 138 96 136 98 l 135 103 q 135 105 137 105 q 138 106 140 104 l 141 99 q 141 98 139 96 z m 189 98 l 188 98 q 184 98 187 101 l 188 105 q 188 108 191 107 q 193 107 192 104 l 191 100 q 191 98 189 98 z m 135 110 q 133 110 133 112 l 132 116 q 130 119 133 119 q 136 120 136 118 l 137 113 q 140 110 136 110 z m 192 112 q 190 112 190 115 l 191 119 q 192 121 194 121 q 196 121 196 118 l 195 114 q 195 112 192 112 z m 132 124 q 130 124 129 126 l 128 130 q 128 133 130 133 q 133 133 133 131 l 134 127 q 134 124 132 124 z m 196 125 l 195 126 q 192 126 194 128 l 195 133 q 195 135 198 135 q 200 133 199 132 l 198 127 q 198 125 196 125 z m 128 138 q 126 138 126 139 l 125 144 q 125 146 127 147 q 129 147 129 145 l 131 140 q 131 138 129 138 z m 199 139 q 197 141 197 142 l 198 147 q 200 149 201 148 q 203 148 203 146 l 202 141 q 200 139 199 139 z m 125 151 q 123 151 123 153 l 121 158 q 121 159 123 161 q 126 161 126 159 l 127 154 q 127 152 125 151 z m 203 153 l 202 153 q 198 153 201 156 l 202 161 q 202 163 205 162 q 207 162 206 159 l 205 155 q 205 153 203 153 z m 121 165 q 119 165 119 167 l 118 171 q 118 174 120 174 q 121 175 123 173 l 124 168 q 124 165 122 165 z m 206 167 q 204 167 204 170 l 205 174 q 205 176 208 176 q 210 176 210 173 l 209 169 q 208 167 206 167 z m 118 179 q 116 179 116 181 l 115 185 q 112 188 116 188 q 119 188 119 186 l 120 182 q 121 179 119 179 z m 210 180 q 209 181 209 181 q 207 181 207 183 l 209 188 q 209 190 211 190 q 213 189 213 187 l 212 182 q 212 180 210 180 z m 115 193 q 113 193 112 194 l 111 199 q 111 200 113 202 q 114 202 116 200 l 117 195 q 117 193 115 193 z m 213 194 q 211 195 211 197 l 212 202 q 212 206 215 203 q 217 203 217 201 l 215 196 q 215 194 213 194 z m 111 206 q 109 206 109 208 l 108 213 q 107 214 109 216 q 112 216 112 214 l 113 209 q 114 208 112 206 z m 217 208 l 216 208 q 214 208 214 211 l 215 216 q 217 218 218 217 q 220 217 220 214 l 219 210 q 219 208 217 208 z m 108 220 q 107 220 105 222 l 104 226 q 104 229 106 229 q 107 230 109 228 l 110 223 q 110 220 108 220 z m 220 222 l 219 222 q 216 222 218 225 l 219 229 q 219 231 222 231 q 226 231 223 228 l 222 224 q 222 222 220 222 z m 104 234 q 102 234 102 236 l 101 240 q 98 243 102 243 q 105 243 105 241 l 106 237 q 107 234 105 234 z m 223 236 q 221 236 221 238 l 222 243 q 224 245 225 245 q 227 243 227 242 l 226 237 q 225 236 223 236 z m 101 248 q 99 248 98 249 l 97 254 q 97 255 99 257 q 102 257 102 255 l 103 251 q 103 248 101 248 z m 227 249 l 226 249 q 224 251 225 252 l 226 257 q 226 259 229 259 q 231 257 230 256 l 229 251 q 229 249 227 249 z m 97 261 q 95 261 95 263 l 94 268 q 94 270 96 271 q 98 271 98 269 l 100 264 q 100 263 98 261 z m 230 263 q 228 263 228 266 l 229 271 q 229 275 232 272 q 234 272 234 269 l 233 265 q 231 263 230 263 z m 94 275 q 92 275 92 277 l 90 281 q 90 284 92 284 q 95 287 95 283 l 96 278 q 96 275 94 275 z m 234 277 l 233 277 q 231 277 231 280 l 233 284 q 233 286 235 286 q 240 286 237 283 l 236 279 q 236 277 234 277 z m 90 289 q 88 289 88 291 l 87 295 q 87 298 89 298 q 91 298 92 296 l 93 292 q 93 289 91 289 z m 237 291 q 235 291 235 293 l 236 298 q 236 300 239 300 q 241 298 241 297 l 239 292 q 239 291 237 291 z m 87 303 q 85 303 85 304 l 84 309 q 81 312 85 312 q 88 312 88 310 l 89 306 q 90 303 88 303 z m 241 304 l 240 304 q 238 306 238 307 l 239 312 q 241 314 242 314 q 244 313 244 311 l 243 306 q 243 304 241 304 z m 84 316 q 83 316 81 318 l 80 323 q 80 324 82 326 q 83 326 85 324 l 86 319 q 86 318 84 316 z m 244 318 q 239 318 242 321 l 243 326 q 243 330 246 327 q 248 327 248 324 l 246 320 q 246 318 244 318 z m 80 330 q 78 330 78 332 l 77 336 q 75 339 78 339 q 81 340 81 338 l 82 333 q 83 332 81 330 z m 248 332 l 247 332 q 245 332 245 335 l 246 339 q 247 341 249 341 q 251 341 251 338 l 250 334 q 250 332 248 332 z m 77 344 q 76 344 74 346 l 73 350 q 73 353 75 353 q 78 353 78 351 l 79 347 q 79 344 77 344 z m 251 346 l 250 346 q 247 346 249 349 l 250 353 q 250 355 253 355 q 257 355 254 352 l 253 347 q 253 346 251 346 z m 73 358 q 71 358 71 359 l 70 364 q 67 367 72 367 q 74 367 74 365 l 76 361 q 76 358 74 358 z m 254 359 q 252 361 252 362 l 253 367 q 255 369 256 369 q 258 367 258 366 l 257 361 q 255 359 254 359 z m 70 371 q 68 371 68 373 l 66 378 q 66 379 68 381 q 71 381 71 379 l 72 374 q 72 372 70 371 z m 258 373 l 257 373 q 253 373 256 376 l 257 381 q 257 383 260 382 q 262 382 261 379 l 260 375 q 260 373 258 373 z m 66 385 q 64 385 64 387 l 63 392 q 63 394 65 394 q 66 395 68 393 l 69 388 q 69 387 67 385 z m 261 387 q 259 387 259 390 l 260 394 q 260 396 263 396 q 265 396 265 393 l 264 389 q 262 387 261 387 z m 63 399 q 61 399 61 401 l 59 405 q 59 408 61 408 q 64 408 64 406 l 65 402 q 68 399 64 399 z m 265 401 l 264 401 q 262 401 262 404 l 264 408 q 264 410 266 410 q 268 410 268 407 l 267 402 q 267 401 265 401 z m 59 413 q 57 413 57 414 l 56 419 q 56 422 58 422 q 59 422 61 420 l 62 416 q 62 413 60 413 z m 268 414 q 266 415 266 417 l 267 422 q 267 424 270 424 q 272 422 272 421 l 270 416 q 270 414 268 414 z m 56 426 q 54 426 54 428 l 53 433 q 52 434 54 436 q 57 436 57 434 l 58 429 q 59 428 57 426 z m 272 428 l 271 428 q 269 430 269 431 l 270 436 q 272 438 273 437 q 275 437 275 434 l 274 430 q 274 428 272 428 z m 53 440 q 52 440 50 442 l 49 447 q 49 449 51 449 q 52 450 54 448 l 55 443 q 55 442 53 440 z m 275 442 l 274 442 q 270 442 273 445 l 274 449 q 274 451 277 451 q 279 451 278 448 l 277 444 q 277 442 275 442 z m 49 454 q 47 454 47 456 l 46 460 q 44 463 47 463 q 50 463 50 461 l 51 457 q 54 454 50 454 z m 278 456 q 276 456 276 459 l 277 463 q 279 465 280 465 q 282 465 282 462 l 281 457 q 281 456 278 456 z m 46 468 q 44 468 43 469 l 42 474 q 42 477 44 477 q 47 477 47 475 l 48 471 q 48 468 46 468 z m 282 469 l 281 469 q 279 471 280 472 l 281 477 q 281 479 284 479 q 286 477 285 476 l 284 471 q 284 469 282 469 z m 42 481 q 40 481 40 483 l 39 488 q 39 490 41 491 q 43 491 43 489 l 45 484 q 45 482 43 482 q 42 481 42 481 z m 285 483 q 283 485 283 486 l 284 491 q 286 493 287 492 q 289 492 289 490 l 288 485 q 286 483 285 483 z m 39 495 q 37 495 37 497 l 35 502 q 35 504 37 504 q 40 507 40 503 l 41 498 q 41 496 39 495 z m 289 497 l 288 497 q 284 497 287 500 l 288 504 q 288 506 291 506 q 293 506 292 503 l 291 499 q 291 497 289 497 z m 35 509 q 33 509 33 511 l 32 515 q 32 518 34 518 q 35 519 37 516 l 38 512 q 38 509 36 509 z m 292 511 q 290 511 290 514 l 291 518 q 291 520 294 520 q 296 520 296 517 l 295 512 q 294 511 292 511 z m 32 523 q 30 523 30 525 l 29 529 q 26 532 30 532 q 33 532 33 530 l 34 526 q 35 523 33 523 z m 296 524 l 295 524 q 293 526 293 527 l 295 532 q 295 534 297 534 q 299 533 299 531 l 298 526 q 298 524 296 524 z m 29 536 q 28 536 26 538 l 25 543 q 25 544 27 546 q 28 546 30 544 l 31 539 q 31 537 29 537 z m 299 538 q 297 539 297 541 l 298 546 q 298 550 301 547 q 303 547 303 545 l 301 540 q 301 538 299 538 z m 25 550 q 23 550 23 552 l 22 557 q 20 559 23 559 q 26 560 26 558 l 27 553 q 28 552 26 550 z m 303 552 l 302 552 q 300 552 300 555 l 301 559 q 302 561 304 561 q 306 561 306 558 l 305 554 q 305 552 303 552 z m 22 564 q 21 564 19 566 l 18 570 q 18 573 20 573 q 21 574 23 572 l 24 567 q 24 564 22 564 z m 306 566 l 305 566 q 302 566 304 569 l 305 573 q 305 575 308 575 q 312 575 309 572 l 308 567 q 308 566 306 566 z m 18 578 q 16 578 16 580 l 15 584 q 12 587 16 587 q 19 587 19 585 l 21 581 q 21 578 19 578 z m 309 579 l 309 580 q 307 580 307 582 l 308 587 q 310 589 311 589 q 313 587 313 586 l 312 581 q 310 579 309 579 z m 15 591 q 14 591 12 593 l 11 598 q 11 599 13 601 q 16 601 16 599 l 17 594 q 17 592 15 592 z m 313 593 l 312 593 q 310 595 311 596 l 312 601 q 312 603 315 602 q 318 602 316 600 l 315 595 q 315 593 313 593 z m 11 605 q 9 605 9 607 l 8 612 q 8 614 10 614 q 12 616 12 613 l 14 608 q 14 607 12 605 z m 316 607 q 314 607 314 610 l 315 614 q 315 619 318 616 q 320 616 320 613 l 319 609 q 317 607 316 607 z m 8 619 q 6 619 6 621 l 4 625 q 4 628 6 628 q 9 631 9 627 l 10 622 q 13 619 8 619 z m 320 621 l 319 621 q 317 621 317 624 l 319 628 q 319 630 321 630 q 326 630 323 627 l 322 623 q 322 621 320 621 z m 4 633 q 2 633 2 635 l 1 639 q 1 642 3 642 q 5 642 6 640 l 7 636 q 7 633 5 633 z m 323 634 l 323 635 q 321 635 321 637 l 322 642 q 322 644 325 644 q 327 642 327 641 l 325 636 q 325 634 323 634 z"},"\"":{"x_min":0,"x_max":125,"ha":125,"o":"m 4 640 q 6 640 6 637 l 6 633 q 6 630 4 630 q 2 630 2 633 l 2 637 q 2 640 4 640 z m 4 626 q 6 626 6 623 l 6 618 q 6 616 4 616 q 2 616 2 618 l 2 623 q 2 626 4 626 z m 4 583 q 6 583 6 581 l 6 576 q 6 574 4 574 q 2 574 2 576 l 2 581 q 2 583 4 583 z m 4 597 q 6 597 6 595 l 6 590 q 6 588 4 588 q 2 588 2 590 l 2 595 q 2 597 4 597 z m 4 611 q 6 611 6 609 l 6 604 q 6 602 4 602 q 2 602 2 604 l 2 609 q 2 611 4 611 z m 64 626 q 66 626 66 623 l 66 618 q 66 616 64 616 q 62 616 62 618 l 62 623 q 62 626 64 626 z m 64 640 q 66 640 66 637 l 66 633 q 66 630 64 630 q 62 630 62 633 l 62 637 q 62 640 64 640 z m 64 597 q 66 597 66 595 l 66 590 q 66 588 64 588 q 62 588 62 590 l 62 595 q 62 597 64 597 z m 64 583 q 66 583 66 581 l 66 576 q 66 574 64 574 q 62 574 62 576 l 62 581 q 62 583 64 583 z m 64 611 q 66 611 66 609 l 66 604 q 66 602 64 602 q 62 602 62 604 l 62 609 q 62 611 64 611 z"},"7":{"x_min":0,"x_max":352,"ha":352,"o":"m 37 0 l 36 0 q 35 0 35 3 l 37 7 q 37 9 40 9 q 42 7 41 6 l 39 1 q 39 0 37 0 z m 43 13 l 42 13 q 40 15 40 16 l 42 20 q 43 22 45 22 q 47 21 47 19 l 45 14 q 44 13 43 13 z m 48 26 l 47 26 q 45 28 46 29 l 48 34 q 48 35 51 35 q 53 33 52 32 l 50 27 q 50 26 48 26 z m 54 39 l 53 39 q 51 40 51 42 l 53 47 q 54 48 56 48 q 58 46 58 45 l 56 40 q 54 39 54 39 z m 59 52 l 58 52 q 56 54 57 55 l 59 60 q 59 64 62 61 q 66 61 63 58 l 61 54 q 61 52 59 52 z m 64 65 q 62 66 62 68 l 64 73 q 66 75 67 74 q 71 74 68 71 l 67 67 q 65 65 64 65 z m 70 78 l 69 78 q 67 80 68 82 l 70 86 q 70 88 73 87 q 74 87 74 84 l 72 80 q 72 78 70 78 z m 75 91 l 74 92 q 73 92 73 95 l 75 99 q 77 101 78 100 q 82 100 79 97 l 78 93 q 76 91 75 91 z m 81 104 l 80 105 q 76 105 79 108 l 80 112 q 82 114 84 113 q 85 113 85 110 l 83 106 q 83 104 81 104 z m 86 118 l 85 118 q 84 118 84 121 l 86 125 q 86 129 89 126 q 91 126 90 123 l 88 119 q 88 118 86 118 z m 92 131 l 91 131 q 87 131 90 134 l 91 138 q 93 140 94 140 q 96 139 96 136 l 94 132 q 94 131 92 131 z m 97 144 l 96 144 q 95 144 95 147 l 97 151 q 97 153 100 153 q 102 151 101 150 l 99 145 q 99 144 97 144 z m 103 157 l 102 157 q 100 159 100 160 l 102 164 q 103 166 105 166 q 107 165 107 163 l 105 158 q 104 157 103 157 z m 108 170 l 107 170 q 105 172 106 173 l 108 178 q 108 179 111 179 q 113 177 112 176 l 110 171 q 110 170 108 170 z m 114 183 l 113 183 q 111 184 111 186 l 113 191 q 114 192 116 192 q 118 190 118 189 l 116 184 q 114 183 114 183 z m 119 196 l 118 196 q 116 198 117 199 l 119 204 q 119 208 122 205 q 126 205 123 202 l 121 198 q 121 196 119 196 z m 124 209 q 122 210 122 212 l 124 217 q 126 219 127 218 q 131 218 128 215 l 127 211 q 125 209 124 209 z m 130 222 l 129 222 q 127 224 128 226 l 130 230 q 130 232 133 231 q 134 231 134 228 l 132 224 q 132 222 130 222 z m 135 235 l 134 236 q 133 236 133 239 l 135 243 q 137 245 138 244 q 142 244 139 241 l 138 237 q 136 235 135 235 z m 141 248 l 140 249 q 136 249 139 252 l 140 256 q 142 258 144 257 q 145 257 145 254 l 143 250 q 143 248 141 248 z m 146 262 l 145 262 q 144 262 144 265 l 146 269 q 146 273 149 270 q 151 270 150 267 l 148 263 q 148 262 146 262 z m 152 275 l 151 275 q 147 275 150 278 l 151 282 q 153 284 154 284 q 156 283 156 280 l 154 276 q 154 275 152 275 z m 157 288 l 156 288 q 155 288 155 291 l 157 295 q 157 297 160 297 q 162 295 161 294 l 159 289 q 159 288 157 288 z m 163 301 l 162 301 q 160 301 160 304 l 162 308 q 163 310 165 310 q 167 309 167 307 l 165 302 q 164 301 163 301 z m 168 314 l 167 314 q 165 316 166 317 l 168 322 q 168 323 171 323 q 173 321 172 320 l 170 315 q 170 314 168 314 z m 174 327 l 173 327 q 171 328 171 330 l 173 335 q 174 336 176 336 q 178 334 178 333 l 176 328 q 174 327 174 327 z m 179 340 l 178 340 q 176 342 177 343 l 179 348 q 179 349 182 349 q 184 347 183 346 l 181 342 q 181 340 179 340 z m 184 353 q 182 354 182 356 l 184 361 q 186 363 187 362 q 191 362 188 359 l 187 355 q 185 353 184 353 z m 190 366 l 189 366 q 187 368 188 370 l 190 374 q 190 376 193 375 q 194 375 194 372 l 192 368 q 192 366 190 366 z m 195 379 l 194 380 q 193 380 193 383 l 195 387 q 197 389 198 388 q 202 388 199 385 l 198 381 q 196 379 195 379 z m 201 392 q 200 392 200 393 q 196 393 199 396 l 200 400 q 202 402 204 401 q 205 401 205 398 l 203 394 q 203 392 201 392 z m 206 406 l 205 406 q 204 406 204 409 l 206 413 q 206 417 209 414 q 211 414 210 411 l 208 407 q 208 406 206 406 z m 212 419 l 211 419 q 207 419 210 422 l 211 426 q 213 428 214 428 q 216 427 216 424 l 214 420 q 214 419 212 419 z m 217 432 l 216 432 q 212 432 215 435 l 217 439 q 217 441 220 441 q 222 439 221 438 l 219 433 q 219 432 217 432 z m 223 445 l 222 445 q 220 445 220 448 l 222 452 q 223 454 225 454 q 227 453 227 451 l 225 446 q 224 445 223 445 z m 228 458 l 227 458 q 225 460 226 461 l 228 466 q 228 467 231 467 q 233 465 232 464 l 230 459 q 230 458 228 458 z m 234 471 l 233 471 q 231 472 231 474 l 233 479 q 234 480 236 480 q 238 478 238 477 l 236 472 q 234 471 234 471 z m 239 484 l 238 484 q 236 486 237 487 l 239 492 q 239 493 242 493 q 243 492 243 490 l 241 486 q 241 484 239 484 z m 244 497 q 242 498 242 500 l 244 505 q 246 507 247 506 q 251 506 248 503 l 247 499 q 245 497 244 497 z m 250 510 l 249 510 q 247 512 248 514 l 250 518 q 250 520 253 519 q 254 519 254 516 l 252 512 q 252 510 250 510 z m 255 523 l 254 524 q 253 524 253 527 l 255 531 q 255 535 258 532 q 262 532 259 529 l 258 525 q 256 523 255 523 z m 261 536 q 260 536 260 537 q 257 537 259 540 l 260 544 q 262 546 264 545 q 265 545 265 542 l 263 538 q 263 536 261 536 z m 266 550 l 265 550 q 264 550 264 553 l 266 557 q 266 561 269 558 q 271 558 270 555 l 268 551 q 268 550 266 550 z m 272 563 l 271 563 q 267 563 270 566 l 271 570 q 273 572 274 572 q 276 571 276 568 l 274 564 q 274 563 272 563 z m 277 576 l 276 576 q 272 576 275 579 l 277 583 q 277 585 280 585 q 282 583 281 582 l 279 577 q 279 576 277 576 z m 283 589 l 282 589 q 280 589 280 592 l 282 596 q 283 598 285 598 q 287 597 287 595 l 285 590 q 284 589 283 589 z m 288 602 l 287 602 q 285 604 286 605 l 288 610 q 288 611 291 611 q 293 609 292 608 l 290 603 q 290 602 288 602 z m 294 615 l 293 615 q 291 616 291 618 l 293 623 q 294 624 296 624 q 298 622 298 621 l 296 616 q 294 615 294 615 z m 299 628 l 298 628 q 296 630 297 631 l 299 636 q 299 637 302 637 q 303 636 303 634 l 301 630 q 301 628 299 628 z m 299 637 l 294 637 q 292 637 292 640 q 292 642 294 642 l 299 642 q 301 642 301 640 q 301 637 299 637 z m 284 637 l 280 637 q 277 637 277 640 q 277 642 280 642 l 284 642 q 287 642 287 640 q 287 637 284 637 z m 270 637 l 266 637 q 263 637 263 640 q 263 642 266 642 l 270 642 q 273 642 273 640 q 273 637 270 637 z m 256 637 l 251 637 q 249 637 249 640 q 249 642 251 642 l 256 642 q 258 642 258 640 q 258 637 256 637 z m 242 637 l 237 637 q 235 637 235 640 q 235 642 237 642 l 242 642 q 244 642 244 640 q 244 637 242 637 z m 228 637 l 223 637 q 221 637 221 640 q 221 642 223 642 l 228 642 q 230 642 230 640 q 230 637 228 637 z m 214 637 l 209 637 q 206 637 206 640 q 206 642 209 642 l 214 642 q 216 642 216 640 q 216 637 214 637 z m 199 637 l 195 637 q 192 637 192 640 q 192 642 195 642 l 199 642 q 202 642 202 640 q 202 637 199 637 z m 185 637 l 180 637 q 178 637 178 640 q 178 642 180 642 l 185 642 q 188 642 188 640 q 188 637 185 637 z m 171 637 l 166 637 q 164 637 164 640 q 164 642 166 642 l 171 642 q 173 642 173 640 q 173 637 171 637 z m 157 637 l 152 637 q 150 637 150 640 q 150 642 152 642 l 157 642 q 159 642 159 640 q 159 637 157 637 z m 143 637 l 138 637 q 136 637 136 640 q 136 642 138 642 l 143 642 q 145 642 145 640 q 145 637 143 637 z m 128 637 l 124 637 q 121 637 121 640 q 121 642 124 642 l 128 642 q 131 642 131 640 q 131 637 128 637 z m 114 637 l 110 637 q 107 637 107 640 q 107 642 110 642 l 114 642 q 117 642 117 640 q 117 637 114 637 z m 100 637 l 95 637 q 93 637 93 640 q 93 642 95 642 l 100 642 q 102 642 102 640 q 102 637 100 637 z m 86 637 l 81 637 q 79 637 79 640 q 79 642 81 642 l 86 642 q 88 642 88 640 q 88 637 86 637 z m 72 637 l 67 637 q 65 637 65 640 q 65 642 67 642 l 72 642 q 74 642 74 640 q 74 637 72 637 z m 58 637 l 53 637 q 50 637 50 640 q 50 642 53 642 l 58 642 q 60 642 60 640 q 60 637 58 637 z m 43 637 l 39 637 q 36 637 36 640 q 36 642 39 642 l 43 642 q 46 642 46 640 q 46 637 43 637 z m 29 637 l 24 637 q 22 637 22 640 q 22 642 24 642 l 29 642 q 32 642 32 640 q 32 637 29 637 z m 15 637 l 10 637 q 8 637 8 640 q 8 642 10 642 l 15 642 q 17 642 17 640 q 17 637 15 637 z m 1 637 l -4 637 q -6 637 -6 640 q -6 642 -4 642 l 1 642 q 3 642 3 640 q 3 637 1 637 z"},"S":{"x_min":0,"x_max":320,"ha":320,"o":"m 130 0 l 125 0 q 123 0 123 3 q 123 5 125 5 l 130 5 q 132 5 132 2 q 132 0 130 0 z m 139 0 q 137 0 137 2 q 137 5 139 5 l 144 5 q 146 5 146 3 q 147 0 144 0 z m 116 1 l 111 1 q 109 1 109 4 q 109 6 111 6 q 114 6 116 5 q 118 5 118 3 q 118 1 116 1 z m 154 1 q 151 1 151 3 q 151 6 153 6 q 156 6 158 7 q 159 7 161 5 q 161 2 159 2 q 157 2 156 2 q 155 1 154 1 z m 102 3 l 101 3 q 98 3 97 4 q 95 4 95 7 q 95 9 98 8 q 101 8 102 7 q 104 7 104 5 q 104 3 102 3 z m 167 4 q 165 4 165 6 q 165 8 167 8 q 168 9 169 9 q 170 9 171 10 q 174 10 174 8 q 177 5 173 5 q 171 5 170 4 q 170 4 168 4 z m 88 6 l 87 6 q 86 7 85 7 q 84 7 83 8 q 81 8 81 11 q 83 13 84 12 q 86 12 86 12 q 87 11 89 11 q 91 9 90 8 q 90 6 88 6 z m 181 8 q 179 8 179 10 q 178 11 180 13 q 182 13 182 14 q 183 14 184 14 q 186 15 188 13 q 188 10 186 10 q 185 9 184 9 q 183 9 182 8 z m 75 11 l 74 11 q 72 12 72 12 q 71 13 69 14 q 68 14 68 17 q 69 18 72 18 q 74 16 76 16 q 77 15 77 13 q 77 11 75 11 z m 194 14 q 192 14 192 15 q 189 18 193 18 q 195 20 197 21 q 199 21 200 20 q 201 18 199 16 q 197 16 195 14 z m 62 18 l 61 18 q 60 19 59 20 q 58 20 57 21 q 56 22 56 24 q 58 26 60 25 q 62 23 64 22 q 67 22 64 19 q 64 18 62 18 z m 206 21 q 204 22 204 22 q 202 24 205 26 q 206 26 208 28 q 210 30 212 28 q 212 25 211 25 q 209 23 207 22 q 206 21 206 21 z m 51 26 q 50 26 49 27 l 46 30 q 44 31 46 33 q 47 34 49 34 q 50 32 52 30 q 56 30 53 27 q 52 27 52 26 q 52 26 51 26 z m 217 30 q 216 30 215 31 q 213 32 215 34 q 216 35 217 36 q 218 36 219 37 q 220 38 222 37 q 225 37 222 34 q 220 32 218 31 q 217 30 217 30 z m 41 36 q 40 36 39 37 q 37 39 36 41 q 34 42 36 44 q 38 46 40 44 q 41 42 43 40 q 43 38 42 37 q 41 36 41 36 z m 227 40 q 226 40 226 40 q 226 41 225 41 q 223 42 225 44 q 226 45 226 46 q 227 47 228 48 q 229 49 231 48 q 234 48 231 45 q 230 44 230 43 q 229 42 228 41 z m 32 47 q 31 47 31 48 q 31 48 30 48 q 29 50 29 50 q 29 51 28 53 q 26 54 28 56 q 31 56 32 55 q 33 54 33 53 q 33 52 34 51 q 35 49 34 48 q 33 48 33 48 q 33 47 32 47 z m 235 52 l 234 52 q 232 54 233 55 q 234 57 236 59 q 236 63 239 60 q 240 59 240 57 q 239 56 238 55 q 238 54 237 53 q 237 52 235 52 z m 25 60 q 23 60 23 61 q 22 62 22 63 q 22 64 21 65 q 18 68 22 68 q 25 71 25 67 q 26 66 26 65 q 26 64 27 63 q 28 62 26 60 z m 242 64 l 241 64 q 240 65 240 67 q 242 71 242 72 q 243 73 245 73 q 247 72 247 70 q 246 68 246 68 q 245 67 244 65 q 244 64 242 64 z m 19 73 q 17 73 17 74 q 17 75 15 79 q 15 80 17 82 q 18 82 20 80 q 20 79 20 78 q 21 77 21 76 q 24 73 20 73 z m 248 77 l 247 77 q 246 78 246 80 q 248 84 248 84 q 248 86 251 86 q 253 84 252 83 q 252 82 250 78 q 250 77 248 77 z m 15 86 q 14 86 12 88 q 12 91 11 92 q 11 95 13 95 q 14 96 16 94 q 16 92 16 92 q 17 91 17 89 q 17 86 15 86 z m 253 90 l 252 90 q 250 92 251 93 q 251 95 252 96 q 252 96 252 98 q 254 100 255 99 q 257 99 257 96 q 256 95 256 94 q 256 93 255 92 q 255 90 253 90 z m 11 100 q 9 100 9 102 q 9 103 8 104 q 8 105 8 106 q 8 109 10 109 q 11 109 13 107 q 13 104 14 103 q 14 100 12 100 z m 257 104 l 256 104 q 253 104 255 107 q 255 110 256 111 q 256 113 258 113 q 260 113 260 110 q 260 109 260 108 q 259 107 259 106 q 259 104 257 104 z m 9 114 q 8 114 6 116 l 6 120 q 6 123 8 123 q 10 123 10 121 q 11 119 11 116 q 11 114 9 114 z m 260 118 l 259 118 q 257 118 257 120 q 257 122 258 123 q 258 124 258 125 q 258 127 261 127 q 263 127 263 124 q 262 123 262 120 q 262 118 260 118 z m 7 128 q 5 128 5 130 q 4 131 4 135 q 4 137 6 137 q 9 137 9 135 l 9 130 q 9 128 7 128 z m 261 132 q 259 132 259 134 l 259 139 q 261 141 262 141 q 264 141 264 139 l 264 134 q 264 132 261 132 z m 6 142 q 5 142 3 144 l 3 149 q 3 151 6 151 q 8 151 8 149 l 8 144 q 8 142 6 142 z m 262 146 q 260 146 260 148 l 260 153 q 260 155 263 155 q 265 155 265 153 l 265 148 q 265 146 262 146 z m 5 156 q 3 156 3 158 l 3 163 q 3 165 5 165 q 8 165 8 163 l 8 158 q 8 156 5 156 z m 263 160 q 260 160 260 162 l 260 167 q 260 170 262 170 q 265 170 265 167 l 265 163 q 265 160 263 160 z m 262 174 q 260 174 260 176 q 259 178 259 181 q 259 184 261 184 q 264 184 264 182 l 264 177 q 264 174 262 174 z m 260 188 q 258 188 258 190 q 257 192 257 195 q 257 197 259 198 q 261 198 261 196 q 262 194 262 191 q 263 190 260 188 z m 257 202 q 255 202 255 204 q 254 205 254 206 q 254 207 253 208 q 253 211 255 211 q 258 214 258 210 q 258 208 258 208 q 259 207 259 205 q 260 204 258 202 z m 253 216 q 251 216 250 217 q 250 219 250 220 q 249 220 249 221 q 248 223 250 225 q 251 225 253 223 q 254 222 254 221 q 254 220 255 219 q 255 216 253 216 z m 247 229 q 245 229 245 230 q 243 232 243 234 q 240 237 244 237 q 245 238 247 236 q 248 235 248 234 q 248 233 249 232 q 252 229 248 229 z m 240 241 q 238 241 238 242 q 237 243 236 244 q 236 245 235 246 q 235 248 236 249 q 237 250 239 249 q 240 247 242 245 q 243 243 241 241 z m 232 252 q 230 253 230 253 q 229 255 227 257 q 225 258 227 260 q 230 263 230 260 q 233 259 234 256 q 234 254 233 253 z m 222 263 q 221 263 221 264 q 220 265 219 266 q 218 266 217 267 q 214 270 217 270 q 218 271 221 271 q 222 269 224 267 q 225 265 224 264 q 224 263 222 263 z m 212 273 l 211 273 q 209 274 207 276 q 205 278 207 280 q 207 283 210 280 q 212 278 214 277 q 215 275 214 274 q 213 273 212 273 z m 201 282 l 200 282 q 198 283 196 285 q 194 287 195 288 q 197 290 199 289 l 202 286 q 204 284 203 283 q 202 282 201 282 z m 189 290 l 188 290 q 186 292 184 292 q 183 293 183 296 q 184 297 186 297 q 188 296 188 296 q 189 295 191 294 q 192 292 191 291 q 191 290 189 290 z m 177 297 l 176 297 q 172 299 172 299 q 170 301 171 302 q 171 306 174 303 q 176 303 178 301 q 182 301 179 298 q 179 297 177 297 z m 164 303 l 163 303 q 161 305 159 305 q 157 307 158 308 q 158 310 161 310 q 163 308 165 308 q 167 306 166 305 q 166 303 164 303 z m 151 309 l 150 309 q 149 310 148 310 q 147 310 146 311 q 142 311 145 314 q 145 318 148 315 q 150 315 152 313 q 154 313 153 310 q 153 309 151 309 z m 138 314 l 137 314 q 135 316 133 316 q 131 318 132 320 q 132 321 135 321 q 137 319 139 319 q 141 317 140 316 q 140 314 138 314 z m 125 320 l 124 320 q 123 321 122 321 q 121 321 120 322 q 118 324 119 325 q 119 329 122 326 q 123 326 124 326 q 125 325 126 325 q 128 323 127 321 q 126 320 125 320 z m 112 326 l 111 326 q 110 327 109 327 q 108 327 107 328 q 105 330 106 331 q 106 335 109 332 q 111 332 113 330 q 117 330 114 327 q 114 326 112 326 z m 99 332 l 98 332 q 96 334 94 334 q 93 335 93 338 q 94 339 96 339 q 98 338 100 336 q 102 336 102 333 q 101 332 99 332 z m 87 339 l 86 339 q 84 340 82 342 q 78 342 81 345 q 82 346 84 346 q 86 345 88 343 q 92 343 89 340 q 89 339 87 339 z m 75 346 l 74 347 q 72 348 70 350 q 66 350 69 353 q 70 354 72 353 q 76 351 76 351 q 78 349 77 347 q 76 347 76 346 q 76 346 75 346 z m 64 355 l 62 355 q 60 357 58 358 q 56 360 58 362 q 59 363 61 362 q 63 361 65 359 q 66 357 65 356 q 64 355 64 355 z m 53 364 q 52 364 51 365 l 48 368 q 46 369 48 371 q 49 372 51 371 l 54 368 q 55 367 55 365 q 53 364 53 364 z m 43 374 q 42 374 41 375 q 39 377 38 379 q 36 380 38 382 q 40 384 42 382 q 43 380 45 378 q 46 377 44 375 q 43 374 43 374 z m 34 385 q 33 385 33 386 q 33 386 32 386 q 31 387 30 388 q 30 389 29 390 q 29 393 30 393 q 33 396 33 393 q 34 392 34 391 q 35 390 36 389 q 39 386 35 386 q 35 385 34 385 z m 26 397 q 25 397 24 398 q 22 402 22 402 q 21 404 23 406 q 25 406 26 405 q 28 401 28 401 q 30 399 27 397 z m 20 410 q 18 410 18 411 q 16 413 16 415 q 14 418 17 418 q 18 419 20 417 q 21 416 21 415 q 21 414 22 413 q 22 410 21 410 z m 14 423 q 12 423 12 424 q 12 426 12 426 q 11 427 11 429 q 10 430 12 432 q 15 432 15 430 q 16 429 16 428 q 16 427 17 426 q 17 423 15 423 z m 10 436 q 8 436 8 438 q 8 440 8 440 q 7 441 7 443 q 7 445 9 446 q 10 446 12 444 q 12 441 13 439 q 13 438 11 436 z m 8 450 q 5 450 5 452 l 5 457 q 4 458 7 460 q 9 460 9 458 q 9 456 10 455 q 10 454 10 453 q 10 450 8 450 z m 6 464 q 4 464 4 466 q 3 468 3 471 q 3 474 5 474 q 8 474 8 471 l 8 467 q 8 464 6 464 z m 5 478 q 3 478 3 481 l 3 482 l 3 486 q 3 488 5 488 q 8 488 8 485 l 8 482 l 8 481 q 8 478 5 478 z m 263 479 q 260 479 260 482 l 260 486 q 260 489 263 489 q 265 489 265 487 l 265 482 q 265 479 263 479 z m 6 493 q 3 493 3 495 q 3 498 4 500 q 4 502 6 502 q 8 502 8 500 l 8 495 q 8 493 6 493 z m 262 494 q 260 494 260 496 l 260 501 q 260 503 262 503 q 263 503 265 501 l 265 496 q 265 494 262 494 z m 7 507 l 6 507 q 4 507 4 509 q 5 511 5 514 q 5 516 8 516 q 10 516 10 513 q 9 512 9 509 q 9 507 7 507 z m 262 508 q 259 508 259 510 l 259 515 q 259 517 261 517 q 263 517 263 515 q 264 513 264 510 q 264 508 262 508 z m 9 521 l 8 521 q 6 521 6 524 q 7 525 7 528 q 7 530 10 530 q 12 530 12 527 q 11 526 11 523 q 11 521 9 521 z m 260 522 q 258 522 258 524 q 258 525 258 526 q 257 527 257 529 q 257 531 259 531 q 262 531 262 529 l 262 525 q 263 522 260 522 z m 11 535 q 9 535 9 538 q 9 539 10 540 q 10 541 10 542 q 10 544 13 544 q 15 544 15 541 q 14 540 14 537 q 13 535 11 535 z m 258 536 q 256 536 256 538 q 255 539 255 542 q 253 545 257 545 q 259 545 259 543 q 260 542 260 539 q 260 536 258 536 z m 15 548 l 14 548 q 12 550 13 551 q 13 553 14 554 q 14 554 14 556 q 16 558 17 557 q 19 557 19 554 q 19 554 17 550 q 17 548 15 548 z m 255 550 q 253 550 253 551 q 252 553 252 554 q 252 555 251 556 q 251 559 253 559 q 256 559 256 557 q 256 556 256 555 q 257 554 257 553 q 257 550 255 550 z m 20 562 l 19 562 q 17 562 17 565 q 19 567 19 569 q 20 571 22 571 q 24 570 24 568 q 22 564 22 563 q 22 562 20 562 z m 251 563 q 249 563 249 565 q 248 566 248 567 q 248 568 247 569 q 247 572 248 572 q 251 573 251 571 q 253 567 253 566 q 253 564 252 563 z m 25 575 l 24 575 q 23 576 23 578 q 24 580 26 582 q 26 586 29 583 q 30 583 30 580 q 28 578 28 576 q 27 575 25 575 z m 246 576 q 244 576 244 578 q 242 580 242 582 q 239 585 243 585 q 244 586 246 584 q 246 582 248 580 q 248 577 247 577 q 246 576 246 576 z m 32 587 l 31 587 q 30 588 30 591 q 32 593 33 595 q 34 596 36 595 q 40 595 37 592 q 36 591 36 590 q 35 589 34 588 q 34 587 32 587 z m 239 589 q 238 589 237 590 q 235 594 235 594 q 232 597 235 597 q 238 598 239 597 q 241 593 241 593 q 242 590 240 589 z m 41 599 l 39 599 q 37 600 39 602 q 40 604 42 606 q 43 607 45 606 q 48 606 45 603 l 42 600 q 41 599 41 599 z m 231 601 q 230 601 229 602 q 228 603 228 604 q 228 604 227 605 q 225 607 227 609 q 228 610 230 608 l 233 605 q 235 603 233 601 z m 50 609 q 49 609 49 610 q 49 610 48 610 q 46 611 48 613 l 52 617 q 53 618 55 617 q 57 615 55 613 l 52 610 q 50 609 50 609 z m 222 611 q 221 611 221 612 q 221 612 220 612 l 217 615 q 215 617 217 619 q 218 620 220 619 l 224 615 q 227 615 224 612 q 223 612 223 612 q 223 611 222 611 z m 60 619 q 59 619 59 620 q 57 621 59 623 q 60 624 61 624 q 62 625 63 626 q 64 627 66 625 q 67 623 66 622 q 64 621 62 619 z m 211 621 l 210 621 q 209 622 208 622 q 207 623 206 624 q 205 624 205 627 q 206 628 209 628 q 211 626 213 625 q 214 623 213 622 q 213 621 211 621 z m 72 627 q 71 627 70 628 q 69 629 71 631 q 73 633 75 633 q 78 636 78 633 q 79 630 77 629 q 77 629 73 627 z m 199 628 q 198 628 198 629 q 196 629 194 631 q 190 631 193 634 q 193 635 196 635 q 200 633 200 633 q 202 632 201 629 q 200 628 199 628 z m 85 633 q 83 633 83 635 q 82 636 84 638 q 85 638 86 638 q 87 639 88 639 q 91 640 91 638 q 92 637 90 635 q 88 635 86 633 z m 186 634 q 184 635 184 635 q 183 635 181 636 q 177 636 180 639 q 180 641 183 640 q 184 640 185 640 q 186 639 187 639 q 189 637 189 636 q 187 634 186 634 z m 98 638 q 96 638 96 640 q 95 641 97 643 q 101 643 102 644 q 105 644 105 642 q 105 639 103 639 q 102 639 101 638 q 100 638 99 638 z m 173 638 l 172 638 q 171 639 168 639 q 166 640 166 642 q 166 644 169 644 q 170 644 171 644 q 172 643 173 643 q 175 643 175 640 q 175 638 173 638 z m 112 641 q 110 641 110 643 q 109 644 112 646 l 116 646 q 119 647 119 644 q 119 642 117 642 q 115 642 114 642 q 114 641 112 641 z m 159 641 q 156 641 154 642 q 152 642 152 644 q 152 647 155 646 l 159 646 q 161 646 161 643 q 161 641 159 641 z m 145 642 q 143 643 140 643 q 138 643 138 645 q 138 647 140 647 l 145 647 q 147 647 147 645 q 147 642 145 642 z m 126 643 q 124 643 124 645 q 124 647 126 647 l 131 647 q 133 647 133 645 q 133 643 131 643 z"},"}":{"x_min":0,"x_max":833,"ha":833,"o":""},"Z":{"x_min":0,"x_max":376,"ha":376,"o":"m 302 0 l 297 0 q 295 0 295 2 q 295 5 297 5 l 302 5 q 304 5 304 2 q 304 0 302 0 z m 288 0 l 283 0 q 281 0 281 2 q 281 5 283 5 l 288 5 q 290 5 290 2 q 290 0 288 0 z m 274 0 l 269 0 q 266 0 266 2 q 266 5 269 5 l 274 5 q 276 5 276 2 q 276 0 274 0 z m 259 0 l 255 0 q 252 0 252 2 q 252 5 255 5 l 259 5 q 262 5 262 2 q 262 0 259 0 z m 245 0 l 240 0 q 238 0 238 2 q 238 5 240 5 l 245 5 q 248 5 248 2 q 248 0 245 0 z m 231 0 l 226 0 q 224 0 224 2 q 224 5 226 5 l 231 5 q 233 5 233 2 q 233 0 231 0 z m 217 0 l 212 0 q 210 0 210 2 q 210 5 212 5 l 217 5 q 219 5 219 2 q 219 0 217 0 z m 203 0 l 198 0 q 196 0 196 2 q 196 5 198 5 l 203 5 q 205 5 205 2 q 205 0 203 0 z m 188 0 l 184 0 q 181 0 181 2 q 181 5 184 5 l 188 5 q 191 5 191 2 q 191 0 188 0 z m 174 0 l 170 0 q 167 0 167 2 q 167 5 170 5 l 174 5 q 177 5 177 2 q 177 0 174 0 z m 160 0 l 155 0 q 153 0 153 2 q 153 5 155 5 l 160 5 q 162 5 162 2 q 162 0 160 0 z m 146 0 l 141 0 q 139 0 139 2 q 139 5 141 5 l 146 5 q 148 5 148 2 q 148 0 146 0 z m 132 0 l 127 0 q 125 0 125 2 q 125 5 127 5 l 132 5 q 134 5 134 2 q 134 0 132 0 z m 118 0 l 113 0 q 110 0 110 2 q 110 5 113 5 l 118 5 q 120 5 120 2 q 120 0 118 0 z m 103 0 l 99 0 q 96 0 96 2 q 96 5 99 5 l 103 5 q 106 5 106 2 q 106 0 103 0 z m 89 0 l 84 0 q 82 0 82 2 q 82 5 84 5 l 89 5 q 92 5 92 2 q 92 0 89 0 z m 75 0 l 70 0 q 68 0 68 2 q 68 5 70 5 l 75 5 q 77 5 77 2 q 77 0 75 0 z m 61 0 l 56 0 q 54 0 54 2 q 54 5 56 5 l 61 5 q 63 5 63 2 q 63 0 61 0 z m 47 0 l 42 0 q 40 0 40 2 q 40 5 42 5 l 47 5 q 49 5 49 2 q 49 0 47 0 z m 32 0 l 28 0 q 25 0 25 2 q 25 5 28 5 l 32 5 q 35 5 35 2 q 35 0 32 0 z m 18 0 l 14 0 q 11 0 11 2 q 11 5 14 5 l 18 5 q 21 5 21 2 q 21 0 18 0 z m 4 0 q 3 0 3 0 q 3 1 2 1 l 2 3 l 4 8 q 5 9 7 9 q 9 7 8 6 l 6 2 q 6 0 4 0 z m 10 13 l 9 13 q 7 15 8 16 l 10 21 q 11 22 13 22 q 15 20 14 19 l 12 14 q 12 13 10 13 z m 16 26 l 15 26 q 13 28 14 29 l 16 33 q 17 35 19 35 q 21 33 20 31 l 18 27 q 18 26 16 26 z m 22 39 l 21 39 q 17 39 20 42 l 22 46 q 24 48 25 47 q 29 47 26 44 l 24 40 q 24 39 22 39 z m 28 51 l 27 52 q 23 52 26 55 l 28 59 q 30 61 31 60 q 35 60 32 57 l 30 53 q 30 51 28 51 z m 34 64 l 33 65 q 32 65 32 68 l 34 72 q 36 74 37 73 q 41 73 38 70 l 36 66 q 36 64 34 64 z m 40 77 l 39 77 q 38 78 38 80 l 40 85 q 41 86 43 86 q 45 84 44 83 l 42 78 q 41 77 40 77 z m 46 90 l 45 90 q 44 91 44 93 l 46 98 q 47 99 49 99 q 51 97 50 96 l 48 91 q 48 90 46 90 z m 52 103 l 51 103 q 50 104 50 106 l 52 110 q 53 112 55 112 q 57 110 56 108 l 54 104 q 54 103 52 103 z m 58 116 l 57 116 q 56 116 56 119 l 58 123 q 60 125 61 124 q 65 124 62 121 l 60 117 q 60 116 58 116 z m 64 128 q 64 129 63 129 q 62 129 62 132 l 64 136 q 66 138 67 137 q 71 137 68 134 l 66 130 q 66 128 64 128 z m 70 141 l 69 142 q 68 142 68 145 l 70 149 q 72 151 73 150 q 77 150 74 147 l 72 143 q 72 141 70 141 z m 76 154 l 75 154 q 74 155 74 158 l 76 162 q 78 164 79 163 q 82 162 80 160 l 78 156 q 78 154 76 154 z m 82 167 l 81 167 q 80 168 80 170 l 82 175 q 83 176 85 176 q 87 175 87 173 l 85 168 q 84 168 84 168 q 83 167 82 167 z m 88 180 l 87 180 q 86 181 86 183 l 88 187 q 89 189 91 189 q 93 188 93 185 l 91 181 q 90 180 88 180 z m 94 193 l 93 193 q 92 193 92 196 l 94 200 q 95 203 97 201 q 99 201 99 198 l 97 194 q 96 193 94 193 z m 100 206 l 99 206 q 98 206 98 209 l 100 213 q 102 215 103 214 q 105 214 105 211 l 103 207 q 102 206 100 206 z m 106 218 l 105 219 q 104 219 104 222 l 106 226 q 108 228 109 227 q 111 227 111 224 l 109 220 q 107 218 106 218 z m 112 231 l 111 231 q 110 232 110 235 l 112 239 q 114 241 115 240 q 117 239 117 237 l 115 233 q 113 231 112 231 z m 118 244 l 117 244 q 116 245 116 247 l 118 252 q 119 253 122 253 q 123 252 123 250 l 121 245 q 120 245 120 244 q 119 244 118 244 z m 125 257 l 124 257 q 122 258 122 260 l 124 265 q 125 266 128 266 q 129 265 129 263 l 127 258 q 125 257 125 257 z m 131 270 l 130 270 q 128 270 128 273 l 130 277 q 131 279 134 278 q 135 278 135 275 l 133 271 q 131 270 131 270 z m 137 283 l 136 283 q 134 283 134 286 l 136 290 q 138 292 140 291 q 141 291 141 288 l 139 284 q 137 283 137 283 z m 143 295 q 142 295 142 296 q 140 296 140 299 l 142 303 q 144 305 146 304 q 147 304 147 301 l 145 297 z m 149 308 l 148 308 q 146 309 146 312 l 148 316 q 150 318 152 317 q 153 316 153 314 l 151 310 z m 155 321 l 154 321 q 152 322 152 324 l 154 329 q 155 330 158 330 q 159 329 159 327 l 157 322 q 156 322 156 322 q 156 321 155 321 z m 161 334 l 160 334 q 157 335 159 337 l 161 342 q 161 343 164 343 q 165 342 165 340 l 163 335 q 162 334 161 334 z m 167 347 l 166 347 q 163 348 165 350 l 167 354 q 167 356 170 356 q 171 355 171 352 l 169 348 q 168 347 167 347 z m 173 360 l 172 360 q 168 360 171 363 l 173 367 q 173 371 176 368 q 177 368 177 365 l 175 361 q 174 360 173 360 z m 179 372 q 178 372 178 373 q 174 373 177 376 l 179 380 q 179 384 182 381 q 183 381 183 378 l 181 374 q 179 372 179 372 z m 185 385 l 184 385 q 182 387 183 389 l 185 393 q 185 397 188 394 q 189 393 189 391 l 187 387 q 185 385 185 385 z m 191 398 l 190 398 q 188 400 189 401 l 191 406 q 191 407 194 407 q 195 406 195 404 l 193 399 q 192 399 192 398 q 192 398 191 398 z m 197 411 l 196 411 q 194 413 195 414 l 197 419 q 197 420 200 420 q 201 419 201 417 l 199 412 q 199 411 197 411 z m 203 424 l 202 424 q 200 426 201 427 l 203 431 q 203 433 206 433 q 207 432 207 429 l 205 425 q 205 424 203 424 z m 209 437 l 208 437 q 204 437 207 440 l 209 444 q 209 448 212 445 q 216 445 213 442 l 211 438 q 211 437 209 437 z m 215 449 q 214 450 214 450 q 210 450 213 453 l 215 457 q 215 461 218 458 q 222 458 219 455 l 217 451 q 217 449 215 449 z m 221 462 q 220 462 220 463 q 217 463 219 466 l 221 470 q 221 474 224 471 q 228 471 225 468 l 223 464 q 223 462 221 462 z m 227 475 l 226 475 q 224 477 225 478 l 227 483 q 227 484 230 484 q 232 482 231 481 l 229 476 q 228 475 227 475 z m 233 488 l 232 488 q 230 490 231 491 l 233 496 q 233 497 236 497 q 238 495 237 494 l 235 489 q 235 488 233 488 z m 239 501 l 238 501 q 236 503 237 504 l 239 508 q 239 510 242 510 q 244 508 243 506 l 241 502 q 241 501 239 501 z m 245 514 l 244 514 q 240 514 243 517 l 245 521 q 245 525 248 522 q 252 522 249 519 l 247 515 q 247 514 245 514 z m 251 526 l 250 527 q 246 527 249 530 l 251 534 q 251 538 254 535 q 258 535 255 532 l 253 528 q 253 526 251 526 z m 257 539 q 256 539 256 540 q 252 540 255 543 l 257 547 q 257 551 260 548 q 264 548 261 545 l 259 541 q 259 539 257 539 z m 263 552 l 262 552 q 260 554 261 556 l 263 560 q 263 561 266 561 q 268 559 267 558 l 265 554 q 265 552 263 552 z m 269 565 l 268 565 q 266 567 267 568 l 269 573 q 269 574 272 574 q 274 572 273 571 l 271 566 q 270 565 269 565 z m 275 578 l 274 578 q 272 580 273 581 l 275 585 q 275 587 278 587 q 280 585 279 583 l 277 579 q 277 578 275 578 z m 281 591 l 280 591 q 276 591 279 594 l 281 598 q 281 602 284 599 q 288 599 285 596 l 283 592 q 283 591 281 591 z m 287 604 l 286 604 q 282 604 285 607 l 287 611 q 289 613 290 612 q 294 612 291 609 l 289 605 q 289 604 287 604 z m 293 616 q 292 616 292 617 q 288 617 291 620 l 293 624 q 295 626 296 625 q 300 625 297 622 l 295 618 q 295 616 293 616 z m 299 629 l 298 629 q 296 631 297 633 l 299 637 q 301 639 302 638 q 304 636 303 635 l 301 631 q 301 629 299 629 z m 305 642 l 304 642 l 303 643 l 302 643 q 300 643 300 645 q 300 648 302 648 l 306 648 q 307 647 308 647 l 308 644 l 307 643 q 306 642 305 642 z m 292 643 l 288 643 q 285 643 285 645 q 285 648 288 648 l 292 648 q 295 648 295 645 q 295 643 292 643 z m 278 643 l 274 643 q 271 643 271 645 q 271 648 274 648 l 278 648 q 281 648 281 645 q 281 643 278 643 z m 264 643 l 259 643 q 257 643 257 645 q 257 648 259 648 l 264 648 q 266 648 266 645 q 266 643 264 643 z m 250 643 l 245 643 q 243 643 243 645 q 243 648 245 648 l 250 648 q 252 648 252 645 q 252 643 250 643 z m 236 643 l 231 643 q 229 643 229 645 q 229 648 231 648 l 236 648 q 238 648 238 645 q 238 643 236 643 z m 222 643 l 217 643 q 214 643 214 645 q 214 648 217 648 l 222 648 q 224 648 224 645 q 224 643 222 643 z m 207 643 l 203 643 q 200 643 200 645 q 200 648 203 648 l 207 648 q 210 648 210 645 q 210 643 207 643 z m 193 643 l 188 643 q 186 643 186 645 q 186 648 188 648 l 193 648 q 196 648 196 645 q 196 643 193 643 z m 179 643 l 174 643 q 172 643 172 645 q 172 648 174 648 l 179 648 q 181 648 181 645 q 181 643 179 643 z m 165 643 l 160 643 q 158 643 158 645 q 158 648 160 648 l 165 648 q 167 648 167 645 q 167 643 165 643 z m 151 643 l 146 643 q 144 643 144 645 q 144 648 146 648 l 151 648 q 153 648 153 645 q 153 643 151 643 z m 136 643 l 132 643 q 129 643 129 645 q 129 648 132 648 l 136 648 q 139 648 139 645 q 139 643 136 643 z m 122 643 l 118 643 q 115 643 115 645 q 115 648 118 648 l 122 648 q 125 648 125 645 q 125 643 122 643 z m 108 643 l 103 643 q 101 643 101 645 q 101 648 103 648 l 108 648 q 110 648 110 645 q 110 643 108 643 z m 94 643 l 89 643 q 87 643 87 645 q 87 648 89 648 l 94 648 q 96 648 96 645 q 96 643 94 643 z m 80 643 l 75 643 q 73 643 73 645 q 73 648 75 648 l 80 648 q 82 648 82 645 q 82 643 80 643 z m 66 643 l 61 643 q 58 643 58 645 q 58 648 61 648 l 66 648 q 68 648 68 645 q 68 643 66 643 z m 51 643 l 47 643 q 44 643 44 645 q 44 648 47 648 l 51 648 q 54 648 54 645 q 54 643 51 643 z m 37 643 l 32 643 q 30 643 30 645 q 30 648 32 648 l 37 648 q 40 648 40 645 q 40 643 37 643 z m 23 643 l 18 643 q 16 643 16 645 q 16 648 18 648 l 23 648 q 25 648 25 645 q 25 643 23 643 z m 9 643 l 4 643 q 2 643 2 645 q 2 648 4 648 l 9 648 q 11 648 11 645 q 11 643 9 643 z"},"x":{"x_min":0,"x_max":364,"ha":364,"o":"m 58 529 q 57 530 59 532 q 62 532 62 531 l 64 527 q 65 525 63 523 l 62 523 q 61 523 60 524 z m 52 542 q 51 543 53 545 q 56 545 56 544 l 58 539 q 59 538 57 536 l 56 536 q 54 536 54 537 z m 76 490 q 73 493 77 493 q 80 496 80 492 l 82 488 q 85 485 81 485 l 80 485 q 78 485 78 486 z m 10 631 q 9 634 11 635 q 13 635 14 633 l 16 629 q 16 627 15 626 l 14 626 q 12 626 12 627 z m 64 516 q 61 519 65 519 q 68 522 68 518 l 70 514 q 71 511 69 511 q 69 510 68 510 q 66 510 66 512 z m 46 554 q 45 556 47 558 q 50 558 50 556 l 52 552 q 53 551 51 549 l 50 549 q 48 549 48 550 z m 70 503 q 67 506 71 506 q 74 509 74 505 l 76 501 q 79 498 75 498 l 74 497 q 72 497 72 499 z m 22 606 q 21 607 23 609 q 25 609 26 608 l 28 603 q 28 601 27 600 l 26 600 q 25 600 24 601 z m 40 567 q 37 570 41 570 q 42 571 44 569 l 46 565 q 49 562 45 562 l 44 562 q 42 562 42 563 z m 3 644 q 3 647 5 647 q 6 648 8 646 l 10 642 q 10 639 9 639 l 8 639 q 6 639 5 640 z m 34 580 q 31 583 35 583 q 36 584 38 582 l 40 578 q 43 575 39 575 l 38 574 q 36 574 36 576 z m 28 593 q 27 594 29 596 q 30 597 32 595 l 34 591 q 34 588 33 587 l 32 587 q 30 587 30 589 z m 16 619 q 15 620 17 622 q 19 622 20 621 l 22 616 q 22 614 21 613 l 20 613 q 18 613 18 614 z m 130 375 q 130 377 132 378 q 133 379 135 377 l 137 373 q 137 370 136 369 l 135 369 q 134 369 132 371 z m 136 362 q 136 365 138 365 q 139 366 141 364 l 143 360 q 143 357 142 357 l 141 356 q 140 356 138 358 z m 82 477 q 82 480 83 481 q 86 481 86 479 l 88 475 q 89 474 87 472 l 86 472 q 84 472 84 473 z m 149 336 q 147 339 150 339 q 152 341 153 338 l 155 334 q 155 332 154 331 l 153 331 q 151 331 151 332 z m 118 400 q 118 403 119 404 q 122 404 123 403 l 125 398 q 125 396 123 395 l 122 395 q 122 395 120 396 z m 143 349 q 140 352 144 352 q 145 353 147 351 l 149 347 q 149 344 148 344 l 147 344 q 145 344 145 345 z m 124 388 q 124 390 126 391 q 128 391 129 390 l 131 385 q 131 383 130 382 l 129 382 q 128 382 128 382 q 127 383 126 383 z m 88 465 q 88 467 89 468 q 92 468 92 467 l 94 462 q 95 461 93 459 l 92 459 q 91 459 90 460 z m 94 452 q 94 454 95 455 q 98 455 98 454 l 100 450 q 101 448 99 446 l 98 446 q 98 446 96 448 z m 112 413 q 112 416 113 416 q 116 417 117 415 l 119 411 q 119 408 117 408 l 116 408 q 116 408 114 409 z m 106 426 q 106 429 107 429 q 109 430 111 428 l 113 424 q 113 421 111 421 l 110 421 q 110 421 108 422 z m 100 439 q 100 442 101 442 q 104 443 104 441 l 106 437 q 109 434 105 434 q 105 433 104 433 q 104 433 102 435 z m 221 193 q 224 190 220 190 l 219 190 q 217 190 217 191 l 215 195 q 215 198 216 198 q 219 201 219 197 z m 209 219 q 210 216 208 216 q 208 215 207 215 q 205 215 205 217 l 203 221 q 200 224 204 224 q 207 227 207 223 z m 215 206 q 218 203 214 203 q 214 203 213 202 q 211 202 211 204 l 209 208 q 206 211 210 211 q 213 214 213 210 z m 239 155 q 240 152 238 151 l 237 151 q 236 151 236 152 q 236 152 235 152 l 233 157 q 233 159 234 160 q 237 160 237 159 z m 203 231 q 204 230 202 228 l 201 228 q 200 228 199 229 l 197 234 q 196 235 198 237 q 201 237 201 236 z m 227 180 q 228 179 226 177 l 225 177 q 224 177 223 178 l 221 182 q 221 185 222 186 q 225 186 225 184 z m 233 167 q 234 166 232 164 l 231 164 q 230 164 229 165 l 227 170 q 227 172 228 173 q 231 173 231 172 z m 197 244 q 198 243 196 241 l 195 241 q 193 241 193 242 l 191 247 q 190 248 192 250 q 195 250 195 249 z m 173 296 q 174 294 172 292 l 171 292 q 169 292 169 294 l 167 298 q 166 299 168 301 q 169 302 171 300 z m 191 257 q 192 256 190 254 l 189 254 q 187 254 187 255 l 185 259 q 184 261 186 263 q 189 263 189 261 z m 167 308 q 167 306 166 305 l 165 305 q 164 305 163 306 l 161 311 q 160 312 162 314 q 164 314 165 313 z m 185 270 q 188 267 184 267 l 183 267 q 181 267 181 268 l 179 272 q 176 275 180 275 q 183 278 183 274 z m 179 283 q 182 280 178 280 q 178 279 177 279 q 175 279 175 281 l 173 285 q 170 288 174 288 q 175 289 177 287 z m 258 116 q 258 113 256 113 l 255 113 q 255 113 253 114 l 251 118 q 251 121 252 121 q 254 122 256 120 z m 294 39 q 294 36 293 36 l 292 36 q 290 36 290 37 l 288 41 q 286 44 289 44 q 291 46 292 43 z m 288 52 q 288 49 287 49 l 286 49 q 284 49 284 50 l 282 54 q 279 57 283 57 q 284 58 286 56 z m 282 65 q 282 62 281 62 l 280 61 q 278 61 278 63 l 276 67 q 273 70 277 70 q 278 71 280 69 z m 300 26 q 301 25 299 23 l 298 23 q 296 23 296 24 l 294 29 q 293 30 295 32 q 297 32 298 31 z m 311 3 q 311 1 310 0 l 309 0 q 308 0 308 0 q 307 1 306 1 l 306 3 q 305 4 307 6 q 308 7 310 5 z m 306 13 q 307 12 305 10 l 304 10 q 303 10 302 11 l 300 16 q 299 17 301 19 q 303 19 304 18 z m 161 321 q 161 319 160 318 l 159 318 q 157 318 157 319 l 156 321 l 155 321 l 154 321 q 150 321 153 324 l 155 328 q 156 331 158 329 q 162 329 159 326 l 159 325 z m 246 142 q 246 139 244 139 q 244 138 243 138 l 241 140 l 239 144 q 239 147 240 147 q 242 148 244 146 z m 276 78 q 276 75 275 74 l 274 74 q 273 74 271 76 l 269 80 q 269 82 271 83 q 272 84 274 82 z m 252 129 q 252 126 250 126 q 250 126 249 125 l 247 127 l 245 131 q 245 134 246 134 q 248 135 250 133 z m 264 103 q 264 101 263 100 l 262 100 q 260 100 259 101 l 257 105 q 257 108 259 109 q 261 109 262 107 z m 270 90 q 270 88 269 87 l 268 87 q 267 87 266 88 q 266 88 265 88 l 263 93 q 263 95 265 96 q 267 96 268 95 z m 160 334 q 159 334 159 337 l 161 341 q 163 343 164 342 q 168 342 165 339 l 163 335 q 163 334 161 334 z m 275 577 q 273 579 274 581 l 276 585 q 278 587 279 586 q 281 584 280 583 l 278 579 q 278 577 276 577 z m 257 539 q 255 541 256 542 l 258 546 q 258 548 261 548 q 263 546 262 544 l 260 540 q 260 539 258 539 z m 152 317 q 154 315 153 313 l 151 309 q 151 308 149 308 l 148 308 q 146 310 147 311 l 149 316 q 150 317 152 317 z m 263 552 q 259 552 262 555 l 264 559 q 264 563 267 560 q 271 560 268 557 l 266 553 q 266 552 264 552 z m 251 526 q 249 528 250 529 l 252 534 q 252 535 255 535 q 257 533 256 532 l 254 527 q 254 526 252 526 z m 245 513 q 243 515 244 516 l 246 521 q 246 522 249 522 q 251 520 250 519 l 248 514 q 248 514 246 513 z m 293 616 q 292 616 292 619 l 294 623 q 295 626 297 624 q 299 624 298 621 l 296 617 q 296 616 294 616 z m 299 629 q 298 629 298 632 l 300 636 q 302 638 303 637 q 307 637 304 634 l 302 630 q 302 629 300 629 z m 281 590 q 279 592 280 593 l 282 598 q 283 599 285 599 q 287 597 286 596 l 284 591 q 284 591 282 590 z m 305 642 q 304 642 304 645 l 305 646 q 305 650 308 647 q 312 647 309 644 l 308 643 q 308 641 306 641 z m 239 500 q 237 502 238 504 l 240 508 q 240 512 243 509 q 245 507 244 506 l 242 502 q 242 500 240 500 z m 287 603 q 285 605 286 606 l 288 611 q 289 612 291 612 q 293 610 292 609 l 290 604 q 290 603 288 603 z m 227 475 q 223 475 226 478 l 228 482 q 228 486 231 483 q 232 483 232 480 l 230 476 q 229 475 228 475 z m 190 398 q 189 398 189 401 l 191 405 q 193 407 194 406 q 196 406 196 403 l 194 399 q 193 398 191 398 z m 184 385 q 183 386 183 388 l 185 392 q 186 394 188 394 q 190 393 190 390 l 188 386 q 187 385 185 385 z m 178 372 q 177 373 177 375 l 179 380 q 180 381 182 381 q 184 380 184 378 l 181 373 q 181 372 179 372 z m 172 359 q 171 360 171 363 l 173 367 q 174 368 176 368 q 179 367 177 365 l 175 361 q 175 359 173 359 z m 196 411 q 195 411 195 414 l 197 418 q 199 420 201 419 q 202 419 202 416 l 200 412 q 198 410 197 410 q 197 410 196 411 z m 166 347 q 165 347 165 350 l 167 354 q 169 356 170 355 q 174 355 171 352 l 169 348 q 169 346 167 346 z m 221 462 q 218 463 220 465 l 222 469 q 222 471 225 471 q 226 470 226 467 l 224 463 q 223 462 222 462 z m 233 488 q 229 488 232 491 l 234 495 q 234 499 237 496 q 238 496 238 493 l 236 489 q 234 487 234 487 q 233 487 233 488 z m 215 449 q 213 450 213 452 l 216 457 q 216 458 219 458 q 220 457 220 455 l 218 450 q 217 449 216 449 z m 203 424 q 201 424 201 427 l 203 431 q 205 433 207 432 q 208 432 208 429 l 206 425 l 204 423 q 203 423 203 424 z m 209 436 q 207 437 207 439 l 209 444 q 210 445 213 445 q 214 444 214 442 l 212 437 q 211 437 210 436 z m 269 565 q 265 565 268 568 l 270 572 q 270 576 273 573 q 277 573 274 570 l 272 566 q 272 564 270 564 q 270 564 269 565 z m 80 163 q 81 162 81 160 l 79 155 q 78 154 77 154 l 76 154 q 74 155 74 157 l 76 162 q 77 163 80 163 z m 116 240 q 118 238 117 237 l 115 232 q 115 231 113 231 l 112 231 q 110 233 111 234 l 113 239 q 113 240 116 240 z m 110 227 q 112 225 111 224 l 109 219 q 109 219 107 218 l 106 218 q 104 220 105 221 l 107 226 q 107 227 110 227 z m 98 201 q 99 201 99 198 l 97 194 q 95 192 95 192 q 94 192 94 193 q 90 193 93 196 l 95 200 q 95 204 98 201 z m 92 188 q 93 188 93 185 l 91 181 q 90 180 89 180 l 88 180 q 84 180 87 183 l 89 187 q 89 191 92 188 z m 86 176 q 87 175 87 172 l 85 168 q 84 167 83 167 l 82 167 q 80 168 80 170 l 82 174 q 83 176 86 176 z m 104 214 q 105 213 105 211 l 103 207 q 101 205 101 205 l 100 205 q 98 207 99 209 l 101 213 q 101 217 104 214 z m 146 304 q 148 302 147 301 l 145 296 q 145 296 143 295 l 142 295 q 140 297 141 298 l 143 303 q 144 304 146 304 z m 122 252 q 124 252 123 249 l 121 245 q 121 244 119 244 l 118 244 q 116 246 117 247 l 119 251 q 119 255 122 252 z m 140 291 q 142 289 141 288 l 139 284 q 139 282 137 282 l 136 282 q 134 284 135 286 l 137 290 q 137 294 140 291 z m 128 265 q 132 265 129 262 l 127 258 q 127 257 125 257 l 124 257 q 120 257 123 260 l 125 264 q 125 268 128 265 z m 134 278 q 138 278 135 275 l 133 271 q 133 269 131 269 q 131 269 130 270 q 126 270 129 273 l 131 277 q 131 281 134 278 z m 43 86 q 46 85 44 83 l 42 78 q 42 77 40 77 l 39 77 q 38 78 38 80 l 40 85 q 41 86 43 86 z m 31 60 q 35 60 32 57 l 30 53 q 30 51 28 51 l 27 52 q 26 52 26 55 l 28 59 q 30 61 31 60 z m 25 47 q 29 47 26 44 l 24 40 q 24 38 22 38 l 21 39 q 17 39 20 42 l 22 46 q 24 48 25 47 z m 13 22 q 15 20 14 18 l 12 14 q 12 13 10 13 l 9 13 q 7 15 8 16 l 10 20 q 11 22 13 22 z m 37 73 q 39 71 38 70 l 36 65 q 36 65 34 64 l 33 64 q 32 65 32 68 l 34 72 q 35 73 37 73 z m 19 34 q 23 34 20 31 l 18 27 q 18 26 16 26 l 15 26 q 11 26 14 29 l 16 33 q 18 35 19 34 z m 7 9 q 9 7 8 6 l 6 1 q 6 1 4 0 l 3 0 q 1 2 2 3 l 4 8 q 4 9 7 9 z m 68 137 q 69 136 69 134 l 67 130 q 65 128 64 128 l 63 129 q 62 129 62 132 l 64 136 q 66 138 68 137 z m 61 124 q 63 124 63 121 l 61 117 q 59 115 58 115 q 58 115 57 116 q 56 116 56 119 l 58 123 q 60 125 61 124 z m 74 150 q 75 149 75 147 l 73 142 q 72 142 71 141 l 70 141 q 68 142 68 144 l 70 149 q 71 150 74 150 z m 55 111 q 57 111 57 108 l 55 104 q 54 103 52 103 l 51 103 q 50 103 50 106 l 52 110 q 54 112 55 111 z m 49 99 q 51 98 50 95 l 48 91 q 48 90 46 90 l 45 90 q 44 91 44 93 l 46 97 q 47 99 49 99 z"},")":{"x_min":0,"x_max":101,"ha":101,"o":"m 0 0 q -1 0 -1 0 q -1 1 -2 1 q -4 2 -1 5 l 0 5 l 2 7 q 3 8 5 6 q 6 4 5 3 q 3 1 2 1 l 1 1 q 1 0 0 0 z m 10 9 q 9 9 8 10 q 6 11 8 13 l 11 16 q 12 17 15 17 q 17 15 15 13 l 12 10 q 11 9 10 9 z m 19 20 l 18 20 q 17 21 17 24 l 20 27 q 22 29 23 28 q 25 26 24 25 q 23 23 21 21 q 21 20 19 20 z m 27 31 q 26 31 26 32 q 25 32 25 35 q 26 36 26 37 q 27 38 28 39 q 29 40 31 40 q 33 38 32 36 q 30 34 29 32 q 28 31 27 31 z m 35 43 q 34 44 34 44 q 30 44 33 47 q 33 49 35 51 q 37 53 38 52 q 40 50 39 49 q 37 45 37 45 q 35 43 35 43 z m 41 56 l 40 56 q 39 57 39 59 q 41 63 41 64 q 42 65 44 65 q 46 64 46 62 q 45 60 44 60 q 44 59 43 57 q 43 56 41 56 z m 47 69 l 46 69 q 45 70 45 72 q 47 76 47 76 q 47 78 50 78 q 52 76 51 75 q 51 74 49 70 q 49 69 47 69 z m 53 82 l 52 82 q 50 84 50 85 q 52 89 52 90 q 53 91 55 91 q 57 91 57 88 q 55 84 55 83 q 54 83 54 82 q 54 82 53 82 z m 57 95 q 55 96 55 98 q 56 100 56 100 q 56 101 57 103 q 57 105 60 104 q 62 104 61 101 q 61 100 60 99 q 60 98 60 97 q 58 95 57 95 z m 62 109 l 61 109 q 57 109 60 112 q 60 115 61 116 q 61 118 64 118 q 68 118 65 115 q 65 112 64 110 q 64 109 62 109 z m 66 122 l 65 122 q 63 124 63 125 q 64 127 64 128 q 64 128 65 130 q 65 132 68 132 q 70 130 69 129 q 69 127 68 126 q 68 126 68 124 q 68 122 66 122 z m 69 136 q 67 137 67 139 q 67 141 68 142 q 68 142 68 144 q 68 148 71 145 q 73 145 73 143 q 72 141 72 138 q 70 136 69 136 z m 72 150 q 70 150 70 153 q 70 154 70 155 q 71 156 71 157 q 71 162 74 159 q 76 159 76 156 q 75 155 75 152 q 73 150 72 150 z m 75 164 q 73 164 73 167 q 73 170 74 171 q 74 173 76 173 q 79 173 78 170 q 78 167 77 166 q 77 164 75 164 z m 78 178 l 77 178 q 75 178 75 181 q 76 182 76 185 q 76 187 79 187 q 81 187 81 184 q 80 183 80 180 q 80 178 78 178 z m 80 192 l 79 192 q 77 192 77 195 q 78 196 78 199 q 78 201 81 201 q 83 201 83 199 q 83 197 82 196 q 82 195 82 194 q 82 192 80 192 z m 82 206 l 81 206 q 79 206 79 209 q 80 210 80 213 q 80 215 83 215 q 85 215 85 213 q 84 211 84 208 q 84 206 82 206 z m 83 220 q 81 220 81 223 l 81 227 q 83 230 84 229 q 86 229 86 227 l 86 222 q 86 220 83 220 z m 85 234 l 84 234 q 82 234 82 237 q 82 238 82 239 q 83 240 83 241 q 83 245 85 243 q 89 243 87 241 l 87 236 q 87 234 85 234 z m 86 248 q 83 248 83 251 q 84 252 84 255 q 84 258 86 258 q 91 258 88 255 l 88 250 q 88 248 86 248 z m 87 262 q 84 262 84 265 q 84 266 84 267 q 85 268 85 270 q 85 272 87 272 q 89 272 89 269 l 89 265 q 89 262 87 262 z m 87 277 q 85 277 85 279 l 85 284 q 85 286 88 286 q 90 286 90 284 l 90 279 q 90 277 87 277 z m 88 291 q 86 291 86 293 l 86 298 q 86 300 88 300 q 90 300 90 298 l 90 293 q 90 291 88 291 z m 88 305 q 86 305 86 307 l 86 312 q 86 314 88 314 q 91 314 91 312 l 91 307 q 91 305 88 305 z m 88 319 q 86 319 86 321 l 86 326 q 86 328 88 328 q 91 328 91 326 l 91 321 q 91 319 88 319 z m 88 333 q 86 333 86 336 l 86 340 q 86 343 88 343 q 91 343 91 340 l 91 336 q 91 333 88 333 z m 88 347 q 86 347 86 350 l 86 354 q 86 357 88 357 q 90 357 90 355 q 90 351 91 350 q 91 347 88 347 z m 88 362 q 85 362 85 364 l 85 369 q 85 371 87 371 q 90 371 90 369 l 90 364 q 90 362 88 362 z m 87 376 q 85 376 85 378 l 85 383 q 85 385 87 385 q 89 385 89 383 q 89 380 90 378 q 90 376 87 376 z m 86 390 q 84 390 84 392 l 84 397 q 84 399 86 399 q 88 399 88 397 q 89 396 89 392 q 89 390 87 390 z m 85 404 q 83 404 83 406 l 83 411 q 83 413 85 413 q 87 415 87 411 q 87 410 88 409 q 88 408 88 407 q 88 404 86 404 z m 84 418 q 82 418 82 420 q 82 423 81 425 q 81 426 83 428 q 86 428 86 425 q 86 422 87 421 q 87 418 84 418 z m 83 432 q 80 432 80 434 l 80 439 q 80 440 82 442 q 83 442 85 440 l 85 435 q 85 432 83 432 z m 81 446 q 79 446 79 448 q 78 450 78 453 q 78 456 80 456 q 81 456 83 454 l 83 449 q 83 446 81 446 z m 79 460 q 77 460 77 462 q 76 464 76 467 q 76 468 78 470 q 79 470 81 468 l 81 463 q 82 462 79 460 z m 77 474 q 76 474 74 476 l 74 481 q 73 482 75 484 q 78 484 78 482 q 78 480 78 480 q 79 479 79 477 q 79 476 77 474 z m 74 488 q 72 488 72 490 q 71 492 71 495 q 71 497 73 498 q 75 498 75 496 q 76 494 76 491 q 77 490 75 488 z m 71 502 q 69 502 69 504 q 68 506 68 509 q 66 511 69 511 q 72 512 72 510 q 73 508 73 505 q 76 502 72 502 z m 68 516 q 67 516 65 518 q 65 521 64 522 q 64 525 66 525 q 69 525 69 523 q 69 522 70 521 q 70 520 70 519 q 70 516 68 516 z m 64 530 q 62 530 62 531 q 61 533 61 534 q 61 534 60 536 q 60 537 62 539 q 65 539 65 537 q 65 536 66 535 q 66 534 66 533 q 67 530 65 530 z m 60 543 q 58 543 58 545 q 57 546 57 547 q 57 548 56 549 q 56 552 58 552 q 59 553 61 551 q 61 549 62 548 q 62 548 62 546 q 63 545 61 543 z m 55 557 q 53 557 53 558 q 53 560 51 562 q 51 564 53 566 q 54 566 56 564 q 56 563 56 562 q 57 561 57 560 q 58 557 56 557 z m 50 570 q 48 570 48 571 q 46 575 46 575 q 46 578 47 579 q 50 579 50 577 q 52 575 52 573 q 55 570 51 570 z m 44 583 q 43 583 42 584 q 42 586 40 588 q 40 591 41 591 q 44 594 44 590 q 45 589 46 588 q 46 587 47 586 q 47 583 45 583 z m 38 595 q 36 595 36 597 q 34 599 34 601 q 32 603 35 604 q 36 605 38 603 q 39 602 39 601 q 39 600 40 599 q 43 596 39 596 q 38 595 38 595 z m 31 608 q 29 608 29 609 q 27 611 26 613 q 26 615 27 616 q 30 619 30 615 q 32 613 33 611 q 34 610 32 608 z m 23 619 q 22 619 22 620 q 22 620 21 620 q 20 622 18 624 q 17 625 19 627 q 20 628 22 627 q 23 626 24 625 q 24 624 25 623 q 26 622 24 620 q 23 619 23 619 z m 14 630 q 13 630 13 630 q 13 631 12 631 l 9 634 q 7 636 9 638 q 11 640 13 638 q 15 636 16 634 q 17 632 16 631 q 15 631 15 630 q 15 630 14 630 z m 4 640 q 3 640 2 641 l 0 643 l -1 643 q -4 645 -2 647 q -1 648 1 647 q 1 646 2 646 q 3 645 4 645 q 4 645 5 644 q 9 644 6 641 q 5 640 4 640 z"},"&":{"x_min":0,"x_max":380,"ha":380,"o":"m 242 184 q 241 184 240 185 l 238 189 q 235 192 239 192 q 240 193 242 191 l 244 187 q 245 186 243 184 z m 251 175 q 254 172 250 172 q 250 172 249 171 q 249 171 247 173 l 245 177 q 244 178 246 180 q 247 181 249 179 z m 256 159 q 256 159 254 160 l 252 164 q 251 166 253 168 q 255 168 256 167 l 258 163 q 261 160 258 160 q 257 159 256 159 z m 178 294 q 176 294 176 295 l 173 299 q 173 302 174 302 q 177 305 177 302 l 180 297 q 180 295 179 294 z m 281 115 q 280 118 281 119 q 284 119 285 118 l 287 114 q 290 111 286 111 q 286 110 285 110 q 284 110 283 111 z m 266 151 q 266 148 265 147 l 264 147 q 262 147 262 148 l 259 152 q 256 155 260 155 q 263 158 263 155 z m 273 138 q 273 136 272 135 l 271 135 q 269 135 269 136 l 266 140 q 266 143 267 143 q 270 146 270 142 z m 187 285 q 188 284 186 282 l 185 282 q 183 282 183 283 l 180 287 q 180 289 181 290 q 182 291 185 289 z m 216 236 q 216 234 215 233 l 214 233 q 212 233 211 234 l 209 238 q 206 241 210 241 q 211 242 213 240 z m 206 245 q 206 245 204 246 l 202 250 q 199 253 203 253 q 204 254 206 253 l 208 248 q 209 246 208 245 z m 216 226 q 216 228 217 229 q 220 232 220 228 l 223 224 q 223 221 222 221 q 221 221 221 220 q 219 220 219 222 z m 230 212 q 233 209 229 209 q 229 208 228 208 q 227 208 226 209 l 223 213 q 223 216 224 217 q 227 217 227 216 z m 192 269 q 190 269 190 271 l 188 275 q 186 276 188 278 q 190 279 192 277 l 194 273 q 197 270 193 270 z m 337 28 q 338 27 336 25 l 335 25 q 333 25 333 26 l 331 30 q 329 32 332 33 q 333 34 335 32 z m 158 334 q 160 332 157 331 l 156 331 q 155 331 154 332 l 152 336 q 151 337 153 339 q 154 340 156 338 z m 330 40 q 331 39 329 37 l 328 37 q 326 37 326 38 l 324 42 q 321 45 324 45 q 326 47 328 44 z m 323 53 q 323 50 322 49 l 321 49 q 319 49 319 50 l 316 54 q 316 57 317 57 q 320 60 320 57 z m 278 122 q 276 122 276 124 l 273 128 q 273 130 274 131 q 275 132 278 130 l 280 126 q 283 123 279 123 z m 316 65 q 316 62 315 62 l 314 61 q 313 61 312 62 l 309 67 q 309 69 310 70 q 313 70 313 69 z m 351 4 q 352 1 351 0 l 349 0 q 349 0 347 1 l 345 5 q 343 6 346 9 q 348 9 349 8 z m 344 16 q 347 13 343 13 q 343 12 342 12 q 341 12 341 12 q 341 13 340 13 l 338 18 q 337 19 339 21 q 341 21 342 20 z m 201 261 q 203 259 200 257 l 199 257 q 198 257 198 258 q 198 258 197 258 l 195 262 q 194 265 196 266 q 198 266 199 265 z m 145 347 q 144 346 143 346 q 142 346 141 347 q 139 348 141 350 l 143 352 q 143 352 141 354 q 139 356 142 357 q 143 358 145 357 q 145 356 146 355 q 148 355 149 354 l 149 351 l 151 346 q 152 345 150 343 l 149 343 q 148 343 147 344 z m 309 77 q 309 74 308 74 q 307 74 307 74 q 307 73 306 73 l 304 75 l 302 79 q 301 80 303 82 q 304 83 306 81 z m 173 310 q 173 307 172 306 l 171 306 q 170 306 169 307 l 166 311 q 166 314 167 315 q 170 315 170 314 z m 292 98 q 291 98 290 99 l 288 103 q 285 106 289 106 q 290 107 292 106 l 294 102 q 295 100 293 98 z m 231 201 q 228 204 231 204 q 234 205 235 204 l 237 200 q 238 198 236 196 l 235 196 q 233 196 233 197 z m 161 320 l 159 324 q 158 325 160 327 q 161 328 163 326 l 165 322 q 168 319 165 319 q 164 318 163 318 z m 172 386 q 173 387 176 387 q 178 385 176 383 q 176 383 174 379 q 173 379 172 378 q 171 378 171 378 q 171 379 170 379 q 168 380 170 382 q 172 384 172 386 z m 207 588 q 205 591 208 591 q 211 592 211 590 q 212 588 212 585 q 215 582 210 582 q 208 582 208 584 q 207 585 207 588 z m 203 602 q 202 603 204 605 q 207 605 207 603 q 208 602 208 601 q 208 600 209 599 q 209 596 207 596 q 205 596 204 597 q 204 599 204 600 q 203 600 203 602 z m 78 504 q 75 504 75 506 l 75 510 q 75 513 77 513 q 79 513 79 511 q 80 509 80 506 q 80 504 78 504 z m 80 490 q 78 490 78 491 q 77 493 77 496 q 74 499 79 499 q 81 499 81 497 q 82 495 82 492 q 82 490 80 490 z m 178 391 q 177 391 177 394 q 179 396 180 398 q 181 399 183 399 q 185 397 184 395 q 182 393 182 391 q 181 391 180 390 q 179 390 178 391 z m 211 577 q 214 578 214 575 q 214 572 215 571 q 215 568 213 568 l 212 568 q 210 568 210 570 q 210 573 209 575 q 209 577 211 577 z m 185 403 q 184 403 184 406 q 185 407 186 408 q 186 409 187 410 q 187 414 190 411 q 191 411 191 408 q 189 406 189 404 q 188 403 187 403 z m 199 610 q 199 612 197 614 q 196 616 198 618 q 201 618 201 617 q 202 615 202 614 q 203 614 204 612 q 204 610 202 609 l 201 609 q 200 609 199 610 z m 179 634 q 178 635 178 637 q 179 639 182 638 q 184 636 186 635 q 189 635 186 632 q 186 631 184 631 q 184 631 183 632 q 182 633 181 633 q 180 633 179 634 z m 211 561 q 211 563 213 563 q 216 563 216 561 l 216 556 q 216 554 214 554 q 211 554 211 556 z m 189 625 q 187 627 189 629 q 191 631 193 629 q 194 627 196 625 q 199 622 195 622 q 195 621 194 621 q 193 621 192 622 z m 90 450 q 89 452 89 452 q 89 453 88 455 q 88 457 89 458 q 92 458 92 456 q 94 454 94 452 q 97 449 93 449 l 92 449 q 90 449 90 450 z m 167 640 q 165 640 165 643 q 167 645 168 644 q 170 644 170 644 q 171 643 173 643 q 175 641 174 640 q 174 638 172 638 l 171 638 q 170 639 169 639 q 168 639 167 640 z m 126 640 q 125 640 123 642 q 123 645 125 645 q 126 645 127 646 q 128 646 130 646 q 132 646 132 644 q 133 643 131 641 q 128 641 126 640 z m 113 635 q 111 635 111 636 q 109 637 111 639 q 115 641 116 641 q 118 643 119 640 q 119 638 118 637 q 116 637 114 635 z m 85 479 q 88 476 84 476 l 83 476 q 81 476 81 478 q 80 479 80 482 q 77 485 81 485 q 84 485 84 483 q 85 482 85 479 z m 85 464 q 84 465 84 466 q 84 467 83 468 q 83 471 85 471 q 88 474 88 470 q 88 468 88 468 q 89 467 89 465 q 90 464 88 462 l 87 462 q 85 462 85 464 z m 106 419 q 109 419 109 418 q 111 414 111 413 q 112 412 110 410 l 109 410 q 107 410 107 411 q 105 415 105 415 q 104 417 106 419 z m 163 367 q 163 367 162 368 q 158 368 161 371 q 163 373 164 375 q 165 376 167 375 q 170 374 168 372 q 167 370 165 368 q 164 367 163 367 z m 136 362 q 134 364 133 366 q 132 367 134 369 q 135 370 137 368 q 139 366 140 364 q 140 362 139 361 l 138 361 q 136 361 136 362 z m 153 643 q 151 643 151 645 q 151 647 154 647 l 159 647 q 161 645 161 644 q 159 642 158 642 q 155 642 153 643 z m 154 356 q 153 356 152 357 q 149 360 152 360 q 153 362 155 364 q 158 367 158 364 q 160 362 159 361 l 155 357 z m 139 643 q 137 643 137 645 q 137 647 139 647 q 141 647 142 648 q 143 648 144 648 q 147 648 147 645 q 147 643 144 643 l 140 643 z m 112 406 q 114 407 116 405 q 116 403 118 401 q 118 398 117 398 q 117 397 116 397 q 114 397 114 399 q 112 401 111 403 q 111 405 112 406 z m 77 546 q 75 546 75 549 l 75 553 q 75 556 78 556 q 80 554 80 553 q 80 550 79 548 q 79 546 77 546 z m 78 560 q 76 560 76 563 l 76 568 q 78 570 79 570 q 81 568 81 567 l 81 562 q 79 560 78 560 z m 77 532 q 74 532 74 534 l 74 539 q 74 541 77 541 q 79 541 79 539 l 79 534 q 79 532 77 532 z m 101 424 q 100 425 100 426 q 100 427 99 428 q 97 431 100 431 q 103 434 103 430 q 104 429 104 428 q 104 427 105 426 q 108 423 104 423 l 103 423 q 101 423 101 424 z m 214 549 q 217 549 217 547 l 217 542 q 217 540 215 540 l 214 540 q 212 540 212 542 l 212 547 q 212 549 214 549 z m 100 626 q 98 628 100 630 l 103 633 q 105 635 107 633 q 108 631 107 630 q 105 629 103 627 q 103 626 102 626 z m 92 615 q 91 615 91 618 q 92 619 92 620 q 93 621 94 622 q 96 624 97 623 q 98 622 98 619 l 95 616 q 95 614 93 614 z m 95 437 q 93 441 93 441 q 93 444 94 445 q 96 445 98 443 q 98 442 98 441 q 99 440 99 439 q 102 436 98 436 l 97 436 q 95 436 95 437 z m 80 574 q 78 575 78 577 q 78 580 79 582 q 79 584 81 584 q 84 582 83 581 q 83 578 82 576 q 82 574 80 574 z m 82 588 q 80 590 81 591 q 81 593 82 594 q 82 594 82 596 q 82 600 85 597 q 87 597 86 594 q 86 591 85 590 q 85 588 83 588 z m 86 602 q 85 602 85 605 q 86 606 86 607 q 86 608 87 609 q 87 611 90 611 q 92 609 91 607 q 91 607 89 603 q 89 602 87 602 z m 77 518 q 74 518 74 520 l 74 524 l 74 525 q 74 527 76 527 q 79 527 79 525 l 79 524 l 79 520 q 79 518 77 518 z m 212 471 q 212 469 210 469 l 209 469 q 205 469 208 472 l 208 477 q 210 479 211 479 q 213 477 213 476 q 213 474 212 474 q 212 473 212 471 z m 215 485 q 213 483 212 483 q 210 483 210 486 l 210 491 q 212 493 213 493 q 215 491 215 490 z m 217 514 q 217 511 215 511 l 214 511 q 212 511 212 514 l 212 519 q 212 521 215 521 q 217 521 217 518 z m 123 385 q 121 385 121 386 q 120 387 120 388 q 119 389 118 390 q 118 393 119 393 q 122 396 122 393 q 123 391 124 390 q 124 390 125 388 q 125 386 124 385 z m 216 499 q 216 497 214 497 q 211 497 211 500 q 212 501 212 505 q 212 507 214 507 q 219 507 216 504 z m 209 457 q 209 455 207 455 l 206 455 q 204 457 204 458 q 205 460 205 460 q 205 461 206 463 q 206 465 208 465 q 210 464 210 462 q 210 460 210 460 q 209 459 209 457 z m 196 424 q 197 424 197 421 q 196 420 196 419 q 196 418 195 417 q 195 415 193 415 l 192 415 q 190 417 191 419 q 191 419 193 423 q 193 425 196 424 z m 197 428 q 196 429 196 432 q 196 432 198 436 q 198 438 201 437 q 203 437 202 434 q 202 432 200 430 q 200 428 198 428 z m 215 535 q 217 535 217 533 l 217 528 q 217 526 215 526 q 212 526 212 528 l 212 533 q 212 535 215 535 z m 205 443 q 205 442 203 442 l 202 442 q 198 442 201 445 q 201 446 202 447 q 202 448 202 449 q 202 451 205 451 q 207 451 207 448 q 206 446 206 446 q 206 445 205 443 z m 132 376 q 133 375 131 373 l 130 373 q 128 373 128 374 q 126 376 126 378 q 124 379 126 381 q 127 382 130 380 q 130 380 132 376 z m 315 128 q 313 128 313 131 q 314 132 314 135 q 316 137 317 137 q 319 136 319 134 q 319 132 318 132 q 318 131 318 129 q 316 127 315 127 z m 331 225 q 329 225 329 228 l 329 232 q 329 235 332 235 q 334 235 334 232 l 334 228 q 334 225 331 225 z m 305 101 q 303 102 303 104 q 305 108 305 108 q 306 110 308 110 q 310 109 310 107 q 308 103 308 102 q 307 101 306 101 z m 332 254 q 330 254 330 256 l 330 261 q 330 263 333 263 q 335 263 335 261 l 335 256 q 335 254 333 254 z m 330 211 q 328 211 328 214 l 328 218 q 329 221 331 221 q 333 219 333 218 l 333 213 q 333 211 330 211 z m 333 268 q 330 268 330 270 l 330 275 q 330 277 333 277 q 335 277 335 275 l 335 270 q 335 268 333 268 z m 332 239 q 330 241 330 242 l 330 247 q 330 249 332 249 q 335 249 335 246 q 335 243 334 242 q 334 239 332 239 z m 319 141 q 317 142 317 144 q 317 146 318 146 q 318 147 318 149 q 318 153 321 150 q 323 150 323 148 q 322 146 322 145 q 322 144 321 143 q 321 141 319 141 z m 310 114 q 308 116 309 117 q 309 119 310 120 q 310 120 310 122 q 312 124 313 123 q 315 123 315 120 q 314 119 314 118 q 314 117 313 116 q 313 114 311 114 z m 325 169 q 323 169 323 172 q 323 175 324 176 q 324 180 326 178 q 328 178 328 176 q 328 172 327 171 q 327 169 325 169 z m 329 197 q 327 197 327 200 l 327 204 q 327 207 330 206 q 332 206 332 204 q 332 201 331 199 q 331 197 329 197 z m 322 155 q 320 155 320 158 q 320 159 320 160 q 321 161 321 162 q 321 167 324 164 q 326 164 326 162 q 325 160 325 157 q 325 155 322 155 z m 140 5 q 142 5 142 2 q 142 0 140 0 l 135 0 q 133 0 133 3 q 133 5 135 5 z m 124 334 q 127 337 127 334 q 128 332 127 331 l 124 328 q 123 327 122 327 q 121 327 120 328 q 120 330 121 331 z m 133 336 q 132 336 131 337 q 129 339 131 341 l 134 344 q 136 346 138 344 q 140 342 138 340 q 137 339 136 338 q 135 338 134 337 z m 154 5 q 156 5 156 3 q 156 0 154 0 l 149 0 q 147 0 147 2 q 147 5 149 5 z m 182 7 q 184 9 184 6 q 185 3 182 3 q 181 3 180 2 q 179 2 178 2 l 177 2 q 175 2 175 4 q 175 7 177 7 z m 168 6 q 170 6 170 4 q 170 1 168 1 l 163 1 q 161 1 161 3 q 161 5 163 5 q 165 5 166 6 q 166 6 168 6 z m 95 303 q 93 301 91 300 q 91 299 90 299 q 89 299 88 300 q 85 303 88 303 l 92 307 q 94 307 95 306 q 96 304 95 303 z m 99 13 q 101 11 100 10 q 100 8 98 8 l 97 8 q 96 9 95 9 q 94 9 93 10 q 91 10 91 13 q 93 15 95 14 q 96 14 96 14 q 97 13 99 13 z m 106 315 q 107 313 106 312 l 102 309 l 101 308 q 100 308 99 309 q 97 311 99 313 l 103 316 q 104 317 106 315 z m 195 10 q 198 11 198 8 q 200 6 197 6 q 195 5 192 5 l 191 5 q 189 5 189 6 q 189 9 191 9 q 192 10 195 10 z m 112 9 q 114 7 114 6 q 114 4 112 4 l 111 4 q 110 4 109 4 q 108 5 106 5 q 104 7 105 8 q 105 10 108 10 q 109 9 112 9 z m 113 325 q 115 327 117 325 q 119 323 117 321 q 115 320 113 318 l 111 318 l 110 318 q 108 320 110 322 z m 126 6 q 128 6 128 3 q 128 1 126 1 l 125 1 q 124 2 121 2 q 116 2 119 5 q 119 7 121 7 q 123 6 126 6 z m 277 60 q 278 61 280 61 q 282 58 281 57 l 278 54 q 277 53 276 53 l 274 53 q 272 55 274 57 z m 289 72 q 290 70 289 69 q 287 65 287 65 q 286 64 285 64 l 283 64 q 281 66 283 68 q 285 70 285 71 q 287 74 289 72 z m 296 84 q 298 82 297 81 q 295 79 295 77 q 294 76 293 76 l 291 76 q 289 77 291 79 q 291 81 293 83 q 295 85 296 84 z m 328 192 q 330 192 330 190 l 330 185 q 328 183 327 183 q 325 183 325 186 q 325 189 326 190 q 326 194 328 192 z m 301 89 q 302 87 301 86 l 299 86 q 299 86 297 87 l 295 91 q 292 94 296 94 q 297 95 299 94 q 299 94 300 96 q 300 97 303 97 q 304 96 304 94 q 302 90 302 89 z m 268 50 q 269 51 271 50 q 272 48 271 47 q 270 45 268 43 l 266 43 l 264 43 q 262 45 264 47 q 266 48 268 50 z m 234 25 q 236 26 238 24 q 238 21 237 21 q 233 19 232 19 q 232 18 231 18 l 229 20 q 229 22 230 23 q 232 23 234 25 z m 222 19 q 224 19 225 18 q 226 15 224 15 q 220 13 219 13 l 218 13 q 218 13 216 14 q 216 17 218 17 q 218 17 222 19 z m 257 41 q 260 41 261 40 q 262 39 260 37 l 257 34 q 256 34 256 34 q 256 33 255 33 q 255 33 253 34 q 253 37 254 38 z m 209 14 q 211 14 212 12 q 212 10 210 9 q 207 9 206 8 l 205 8 q 203 8 203 10 q 202 11 204 13 q 206 13 206 14 q 207 14 209 14 z m 246 32 q 248 34 250 32 q 250 29 249 28 q 247 26 245 26 q 245 25 244 25 q 243 25 242 26 q 240 28 242 30 q 244 30 246 32 z m 31 237 q 30 238 30 241 q 32 243 33 245 q 34 246 36 245 q 40 245 37 242 q 35 240 34 238 q 34 237 32 237 z m 12 128 q 9 128 9 130 l 9 135 q 9 137 11 137 q 13 137 13 135 q 14 133 14 130 q 14 128 12 128 z m 24 90 q 24 87 22 87 q 22 86 21 86 q 19 86 19 88 q 19 90 17 92 q 17 95 19 95 q 22 98 22 94 q 22 92 24 90 z m 10 142 q 8 142 8 144 l 8 149 q 8 151 10 151 q 13 151 13 149 l 13 144 q 13 142 11 142 z m 14 114 q 12 114 11 116 l 11 120 q 9 123 12 123 q 15 123 15 121 q 15 120 16 119 q 16 118 16 117 q 16 114 14 114 z m 19 103 q 22 100 18 100 l 17 100 q 15 100 15 102 q 14 103 14 104 q 14 105 13 106 q 13 109 15 109 q 18 109 18 107 q 18 106 18 105 q 19 104 19 103 z m 10 156 q 8 156 8 158 l 8 163 q 8 166 11 165 q 13 165 13 163 l 13 158 q 13 156 10 156 z m 19 212 q 18 212 18 215 q 19 216 19 217 q 19 218 20 219 q 20 223 23 220 q 25 220 24 217 q 24 217 22 213 q 22 212 20 212 z m 25 225 q 21 225 24 228 q 24 230 26 232 q 26 236 29 233 q 33 233 30 230 q 29 229 29 228 q 29 227 28 226 q 27 225 26 225 z m 15 198 q 11 198 14 201 q 14 203 14 204 q 15 204 15 206 q 15 210 18 207 q 20 207 20 204 q 19 203 19 202 q 19 201 18 200 q 18 198 16 198 z m 13 184 q 11 184 11 187 q 11 190 12 192 q 12 194 14 194 q 16 193 16 191 q 16 188 15 186 q 15 184 13 184 z m 11 170 q 9 170 9 173 l 9 177 q 10 180 12 180 q 14 178 14 177 l 14 172 q 12 170 11 170 z m 29 77 q 32 74 28 74 q 28 73 27 73 q 25 73 25 75 q 23 77 23 79 q 20 82 24 82 q 27 85 27 81 q 28 80 28 79 q 28 78 29 77 z m 86 18 q 88 16 87 15 q 87 14 85 14 l 84 14 q 82 14 80 16 q 78 18 79 19 q 79 23 82 20 q 83 19 84 19 q 85 19 86 18 z m 60 278 q 62 280 64 278 l 64 275 l 60 271 l 59 270 q 58 270 57 271 q 54 274 57 274 q 58 276 60 278 z m 81 291 q 80 290 79 290 q 78 290 77 291 q 76 292 78 294 l 81 297 q 84 300 84 297 q 85 295 84 294 z m 74 25 q 75 24 75 22 q 74 21 73 21 l 71 21 q 69 23 67 24 q 64 24 67 27 q 68 28 70 27 q 72 27 74 25 z m 59 36 q 60 35 61 34 q 62 34 63 33 q 64 31 63 30 q 63 29 61 29 l 60 29 l 56 33 q 53 33 56 36 q 57 37 59 36 z m 69 280 q 68 280 67 281 q 65 283 67 285 l 70 288 q 72 290 74 288 q 76 286 74 284 q 73 283 72 282 q 71 282 70 281 z m 50 267 q 52 269 54 268 q 56 266 54 264 l 51 261 q 50 260 49 260 q 49 260 48 261 q 44 261 47 264 z m 33 69 q 34 67 36 65 q 36 62 35 61 l 34 61 q 32 61 32 62 q 31 63 30 64 q 30 65 29 66 q 29 69 30 69 q 33 72 33 69 z m 41 57 q 42 56 42 55 q 43 54 44 53 q 44 51 43 50 q 43 49 42 49 q 41 49 40 50 q 39 51 38 52 q 38 53 37 54 q 34 57 38 57 q 39 58 41 57 z m 53 43 q 55 41 53 39 l 51 39 l 49 39 q 48 40 48 41 q 47 42 46 43 q 44 44 46 46 q 48 48 50 46 z m 45 257 q 46 255 45 254 q 44 252 42 250 q 42 249 40 249 l 39 249 q 38 250 38 253 l 41 256 q 43 258 45 257 z"},"_":{"x_min":0,"x_max":409,"ha":409,"o":"m 383 -6 l 378 -6 q 375 -6 375 -4 q 375 -2 378 -2 l 383 -2 q 385 -2 385 -4 q 385 -6 383 -6 z m 368 -6 l 364 -6 q 361 -6 361 -4 q 361 -2 364 -2 l 368 -2 q 371 -2 371 -4 q 371 -6 368 -6 z m 354 -6 l 349 -6 q 347 -6 347 -4 q 347 -2 349 -2 l 354 -2 q 357 -2 357 -4 q 357 -6 354 -6 z m 340 -6 l 335 -6 q 333 -6 333 -4 q 333 -2 335 -2 l 340 -2 q 342 -2 342 -4 q 342 -6 340 -6 z m 326 -6 l 321 -6 q 319 -6 319 -4 q 319 -2 321 -2 l 326 -2 q 328 -2 328 -4 q 328 -6 326 -6 z m 312 -6 l 307 -6 q 305 -6 305 -4 q 305 -2 307 -2 l 312 -2 q 314 -2 314 -4 q 314 -6 312 -6 z m 297 -6 l 293 -6 q 290 -6 290 -4 q 290 -2 293 -2 l 297 -2 q 300 -2 300 -4 q 300 -6 297 -6 z m 283 -6 l 279 -6 q 276 -6 276 -4 q 276 -2 279 -2 l 283 -2 q 286 -2 286 -4 q 286 -6 283 -6 z m 269 -6 l 264 -6 q 262 -6 262 -4 q 262 -2 264 -2 l 269 -2 q 271 -2 271 -4 q 271 -6 269 -6 z m 255 -6 l 250 -6 q 248 -6 248 -4 q 248 -2 250 -2 l 255 -2 q 257 -2 257 -4 q 257 -6 255 -6 z m 241 -6 l 236 -6 q 234 -6 234 -4 q 234 -2 236 -2 l 241 -2 q 243 -2 243 -4 q 243 -6 241 -6 z m 227 -6 l 222 -6 q 219 -6 219 -4 q 219 -2 222 -2 l 227 -2 q 229 -2 229 -4 q 229 -6 227 -6 z m 212 -6 l 208 -6 q 205 -6 205 -4 q 205 -2 208 -2 l 212 -2 q 215 -2 215 -4 q 215 -6 212 -6 z m 198 -6 l 193 -6 q 191 -6 191 -4 q 191 -2 193 -2 l 198 -2 q 201 -2 201 -4 q 201 -6 198 -6 z m 184 -6 l 179 -6 q 177 -6 177 -4 q 177 -2 179 -2 l 184 -2 q 186 -2 186 -4 q 186 -6 184 -6 z m 170 -6 l 165 -6 q 163 -6 163 -4 q 163 -2 165 -2 l 170 -2 q 172 -2 172 -4 q 172 -6 170 -6 z m 156 -6 l 151 -6 q 149 -6 149 -4 q 149 -2 151 -2 l 156 -2 q 158 -2 158 -4 q 158 -6 156 -6 z m 141 -6 l 137 -6 q 134 -6 134 -4 q 134 -2 137 -2 l 141 -2 q 144 -2 144 -4 q 144 -6 141 -6 z m 127 -6 l 123 -6 q 120 -6 120 -4 q 120 -2 123 -2 l 127 -2 q 130 -2 130 -4 q 130 -6 127 -6 z m 113 -6 l 108 -6 q 106 -6 106 -4 q 106 -2 108 -2 l 113 -2 q 115 -2 115 -4 q 115 -6 113 -6 z m 99 -6 l 94 -6 q 92 -6 92 -4 q 92 -2 94 -2 l 99 -2 q 101 -2 101 -4 q 101 -6 99 -6 z m 85 -6 l 80 -6 q 78 -6 78 -4 q 78 -2 80 -2 l 85 -2 q 87 -2 87 -4 q 87 -6 85 -6 z m 71 -6 l 66 -6 q 63 -6 63 -4 q 63 -2 66 -2 l 71 -2 q 73 -2 73 -4 q 73 -6 71 -6 z m 56 -6 l 52 -6 q 49 -6 49 -4 q 49 -2 52 -2 l 56 -2 q 59 -2 59 -4 q 59 -6 56 -6 z m 42 -6 l 37 -6 q 35 -6 35 -4 q 35 -2 37 -2 l 42 -2 q 45 -2 45 -4 q 45 -6 42 -6 z m 28 -6 l 23 -6 q 21 -6 21 -4 q 21 -2 23 -2 l 28 -2 q 30 -2 30 -4 q 30 -6 28 -6 z m 14 -6 l 10 -6 q 8 -6 8 -4 q 8 -2 10 -2 l 14 -2 q 16 -2 16 -4 q 16 -6 14 -6 z"},"v":{"x_min":0,"x_max":380,"ha":380,"o":"m 163 0 q 162 0 160 2 l 159 6 q 159 9 161 9 q 163 9 164 8 l 164 9 q 164 11 167 11 q 171 11 168 8 l 167 3 q 167 2 165 2 q 165 0 163 0 z m 159 14 q 157 14 157 15 l 156 20 q 153 23 158 23 q 160 23 160 21 l 162 17 q 162 14 160 14 z m 168 15 q 166 17 166 18 l 167 23 q 169 25 170 25 q 172 23 172 22 l 171 17 q 169 15 168 15 z m 156 27 q 154 27 154 29 l 152 34 q 152 35 154 37 q 157 37 157 35 l 158 30 q 158 28 156 28 z m 172 29 l 171 29 q 169 31 170 32 l 171 37 q 171 39 174 38 q 177 38 175 36 l 174 31 q 174 29 172 29 z m 152 41 q 150 41 150 43 l 149 48 q 149 50 151 50 q 152 51 154 49 l 155 44 q 155 43 153 41 z m 175 43 q 173 43 173 46 l 174 50 q 174 52 177 52 q 179 52 179 49 l 178 45 q 176 43 175 43 z m 149 55 q 147 55 147 57 l 145 61 q 145 64 147 64 q 150 67 150 63 l 151 58 q 154 55 149 55 z m 179 57 l 178 57 q 176 57 176 60 l 178 64 q 178 66 180 66 q 182 66 182 63 l 181 58 q 181 57 179 57 z m 145 69 q 143 69 143 71 l 142 75 q 142 78 144 78 q 146 78 147 76 l 148 72 q 148 69 146 69 z m 182 70 l 182 71 q 180 71 180 73 l 181 78 q 181 80 184 80 q 186 78 186 77 l 184 72 q 184 70 182 70 z m 142 82 q 140 82 140 84 l 139 89 q 138 90 140 92 q 143 92 143 90 l 144 85 q 146 83 143 83 q 142 82 142 82 z m 186 84 l 185 84 q 183 86 183 87 l 184 92 q 186 94 187 93 q 189 93 189 91 l 188 86 q 188 84 186 84 z m 139 96 q 138 96 136 98 l 135 103 q 135 105 137 105 q 138 106 140 104 l 141 99 q 141 98 139 96 z m 189 98 l 188 98 q 184 98 187 101 l 188 105 q 188 108 191 107 q 193 107 192 104 l 191 100 q 191 98 189 98 z m 135 110 q 133 110 133 112 l 132 116 q 130 119 133 119 q 136 120 136 118 l 137 113 q 140 110 136 110 z m 192 112 q 190 112 190 115 l 191 119 q 192 121 194 121 q 196 121 196 118 l 195 114 q 195 112 192 112 z m 132 124 q 130 124 129 126 l 128 130 q 128 133 130 133 q 133 133 133 131 l 134 127 q 134 124 132 124 z m 196 125 l 195 126 q 192 126 194 128 l 195 133 q 195 135 198 135 q 200 133 199 132 l 198 127 q 198 125 196 125 z m 128 138 q 126 138 126 139 l 125 144 q 125 146 127 147 q 129 147 129 145 l 131 140 q 131 138 129 138 z m 199 139 q 197 141 197 142 l 198 147 q 200 149 201 148 q 203 148 203 146 l 202 141 q 200 139 199 139 z m 125 151 q 123 151 123 153 l 121 158 q 121 159 123 161 q 126 161 126 159 l 127 154 q 127 152 125 151 z m 203 153 l 202 153 q 198 153 201 156 l 202 161 q 202 163 205 162 q 207 162 206 159 l 205 155 q 205 153 203 153 z m 121 165 q 119 165 119 167 l 118 171 q 118 174 120 174 q 121 175 123 173 l 124 168 q 124 165 122 165 z m 206 167 q 204 167 204 170 l 205 174 q 205 176 208 176 q 210 176 210 173 l 209 169 q 208 167 206 167 z m 118 179 q 116 179 116 181 l 115 185 q 112 188 116 188 q 119 188 119 186 l 120 182 q 121 179 119 179 z m 210 180 q 209 181 209 181 q 207 181 207 183 l 209 188 q 209 190 211 190 q 213 189 213 187 l 212 182 q 212 180 210 180 z m 115 193 q 113 193 112 194 l 111 199 q 111 200 113 202 q 114 202 116 200 l 117 195 q 117 193 115 193 z m 213 194 q 211 195 211 197 l 212 202 q 212 206 215 203 q 217 203 217 201 l 215 196 q 215 194 213 194 z m 111 206 q 109 206 109 208 l 108 213 q 107 214 109 216 q 112 216 112 214 l 113 209 q 114 208 112 206 z m 217 208 l 216 208 q 214 208 214 211 l 215 216 q 217 218 218 217 q 220 217 220 214 l 219 210 q 219 208 217 208 z m 108 220 q 107 220 105 222 l 104 226 q 104 229 106 229 q 107 230 109 228 l 110 223 q 110 220 108 220 z m 220 222 l 219 222 q 216 222 218 225 l 219 229 q 219 231 222 231 q 226 231 223 228 l 222 224 q 222 222 220 222 z m 104 234 q 102 234 102 236 l 101 240 q 98 243 102 243 q 105 243 105 241 l 106 237 q 107 234 105 234 z m 223 236 q 221 236 221 238 l 222 243 q 224 245 225 245 q 227 243 227 242 l 226 237 q 225 236 223 236 z m 101 248 q 99 248 98 249 l 97 254 q 97 255 99 257 q 102 257 102 255 l 103 251 q 103 248 101 248 z m 227 249 l 226 249 q 224 251 225 252 l 226 257 q 226 259 229 259 q 231 257 230 256 l 229 251 q 229 249 227 249 z m 97 261 q 95 261 95 263 l 94 268 q 94 270 96 271 q 98 271 98 269 l 100 264 q 100 263 98 261 z m 230 263 q 228 263 228 266 l 229 271 q 229 275 232 272 q 234 272 234 269 l 233 265 q 231 263 230 263 z m 94 275 q 92 275 92 277 l 90 281 q 90 284 92 284 q 95 287 95 283 l 96 278 q 96 275 94 275 z m 234 277 l 233 277 q 231 277 231 280 l 233 284 q 233 286 235 286 q 240 286 237 283 l 236 279 q 236 277 234 277 z m 90 289 q 88 289 88 291 l 87 295 q 87 298 89 298 q 91 298 92 296 l 93 292 q 93 289 91 289 z m 237 291 q 235 291 235 293 l 236 298 q 236 300 239 300 q 241 298 241 297 l 239 292 q 239 291 237 291 z m 87 303 q 85 303 85 304 l 84 309 q 81 312 85 312 q 88 312 88 310 l 89 306 q 90 303 88 303 z m 241 304 l 240 304 q 238 306 238 307 l 239 312 q 241 314 242 314 q 244 313 244 311 l 243 306 q 243 304 241 304 z m 84 316 q 83 316 81 318 l 80 323 q 80 324 82 326 q 83 326 85 324 l 86 319 q 86 318 84 316 z m 244 318 q 239 318 242 321 l 243 326 q 243 330 246 327 q 248 327 248 324 l 246 320 q 246 318 244 318 z m 80 330 q 78 330 78 332 l 77 336 q 75 339 78 339 q 81 340 81 338 l 82 333 q 83 332 81 330 z m 248 332 l 247 332 q 245 332 245 335 l 246 339 q 247 341 249 341 q 251 341 251 338 l 250 334 q 250 332 248 332 z m 77 344 q 76 344 74 346 l 73 350 q 73 353 75 353 q 78 353 78 351 l 79 347 q 79 344 77 344 z m 251 346 l 250 346 q 247 346 249 349 l 250 353 q 250 355 253 355 q 257 355 254 352 l 253 347 q 253 346 251 346 z m 73 358 q 71 358 71 359 l 70 364 q 67 367 72 367 q 74 367 74 365 l 76 361 q 76 358 74 358 z m 254 359 q 252 361 252 362 l 253 367 q 255 369 256 369 q 258 367 258 366 l 257 361 q 255 359 254 359 z m 70 371 q 68 371 68 373 l 66 378 q 66 379 68 381 q 71 381 71 379 l 72 374 q 72 372 70 371 z m 258 373 l 257 373 q 253 373 256 376 l 257 381 q 257 383 260 382 q 262 382 261 379 l 260 375 q 260 373 258 373 z m 66 385 q 64 385 64 387 l 63 392 q 63 394 65 394 q 66 395 68 393 l 69 388 q 69 387 67 385 z m 261 387 q 259 387 259 390 l 260 394 q 260 396 263 396 q 265 396 265 393 l 264 389 q 262 387 261 387 z m 63 399 q 61 399 61 401 l 59 405 q 59 408 61 408 q 64 408 64 406 l 65 402 q 68 399 64 399 z m 265 401 l 264 401 q 262 401 262 404 l 264 408 q 264 410 266 410 q 268 410 268 407 l 267 402 q 267 401 265 401 z m 59 413 q 57 413 57 414 l 56 419 q 56 422 58 422 q 59 422 61 420 l 62 416 q 62 413 60 413 z m 268 414 q 266 415 266 417 l 267 422 q 267 424 270 424 q 272 422 272 421 l 270 416 q 270 414 268 414 z m 56 426 q 54 426 54 428 l 53 433 q 52 434 54 436 q 57 436 57 434 l 58 429 q 59 428 57 426 z m 272 428 l 271 428 q 269 430 269 431 l 270 436 q 272 438 273 437 q 275 437 275 434 l 274 430 q 274 428 272 428 z m 53 440 q 52 440 50 442 l 49 447 q 49 449 51 449 q 52 450 54 448 l 55 443 q 55 442 53 440 z m 275 442 l 274 442 q 270 442 273 445 l 274 449 q 274 451 277 451 q 279 451 278 448 l 277 444 q 277 442 275 442 z m 49 454 q 47 454 47 456 l 46 460 q 44 463 47 463 q 50 463 50 461 l 51 457 q 54 454 50 454 z m 278 456 q 276 456 276 459 l 277 463 q 279 465 280 465 q 282 465 282 462 l 281 457 q 281 456 278 456 z m 46 468 q 44 468 43 469 l 42 474 q 42 477 44 477 q 47 477 47 475 l 48 471 q 48 468 46 468 z m 282 469 l 281 469 q 279 471 280 472 l 281 477 q 281 479 284 479 q 286 477 285 476 l 284 471 q 284 469 282 469 z m 42 481 q 40 481 40 483 l 39 488 q 39 490 41 491 q 43 491 43 489 l 45 484 q 45 482 43 482 q 42 481 42 481 z m 285 483 q 283 485 283 486 l 284 491 q 286 493 287 492 q 289 492 289 490 l 288 485 q 286 483 285 483 z m 39 495 q 37 495 37 497 l 35 502 q 35 504 37 504 q 40 507 40 503 l 41 498 q 41 496 39 495 z m 289 497 l 288 497 q 284 497 287 500 l 288 504 q 288 506 291 506 q 293 506 292 503 l 291 499 q 291 497 289 497 z m 35 509 q 33 509 33 511 l 32 515 q 32 518 34 518 q 35 519 37 516 l 38 512 q 38 509 36 509 z m 292 511 q 290 511 290 514 l 291 518 q 291 520 294 520 q 296 520 296 517 l 295 512 q 294 511 292 511 z m 32 523 q 30 523 30 525 l 29 529 q 26 532 30 532 q 33 532 33 530 l 34 526 q 35 523 33 523 z m 296 524 l 295 524 q 293 526 293 527 l 295 532 q 295 534 297 534 q 299 533 299 531 l 298 526 q 298 524 296 524 z m 29 536 q 28 536 26 538 l 25 543 q 25 544 27 546 q 28 546 30 544 l 31 539 q 31 537 29 537 z m 299 538 q 297 539 297 541 l 298 546 q 298 550 301 547 q 303 547 303 545 l 301 540 q 301 538 299 538 z m 25 550 q 23 550 23 552 l 22 557 q 20 559 23 559 q 26 560 26 558 l 27 553 q 28 552 26 550 z m 303 552 l 302 552 q 300 552 300 555 l 301 559 q 302 561 304 561 q 306 561 306 558 l 305 554 q 305 552 303 552 z m 22 564 q 21 564 19 566 l 18 570 q 18 573 20 573 q 21 574 23 572 l 24 567 q 24 564 22 564 z m 306 566 l 305 566 q 302 566 304 569 l 305 573 q 305 575 308 575 q 312 575 309 572 l 308 567 q 308 566 306 566 z m 18 578 q 16 578 16 580 l 15 584 q 12 587 16 587 q 19 587 19 585 l 21 581 q 21 578 19 578 z m 309 579 l 309 580 q 307 580 307 582 l 308 587 q 310 589 311 589 q 313 587 313 586 l 312 581 q 310 579 309 579 z m 15 591 q 14 591 12 593 l 11 598 q 11 599 13 601 q 16 601 16 599 l 17 594 q 17 592 15 592 z m 313 593 l 312 593 q 310 595 311 596 l 312 601 q 312 603 315 602 q 318 602 316 600 l 315 595 q 315 593 313 593 z m 11 605 q 9 605 9 607 l 8 612 q 8 614 10 614 q 12 616 12 613 l 14 608 q 14 607 12 605 z m 316 607 q 314 607 314 610 l 315 614 q 315 619 318 616 q 320 616 320 613 l 319 609 q 317 607 316 607 z m 8 619 q 6 619 6 621 l 4 625 q 4 628 6 628 q 9 631 9 627 l 10 622 q 13 619 8 619 z m 320 621 l 319 621 q 317 621 317 624 l 319 628 q 319 630 321 630 q 326 630 323 627 l 322 623 q 322 621 320 621 z m 4 633 q 2 633 2 635 l 1 639 q 1 642 3 642 q 5 642 6 640 l 7 636 q 7 633 5 633 z m 323 634 l 323 635 q 321 635 321 637 l 322 642 q 322 644 325 644 q 327 642 327 641 l 325 636 q 325 634 323 634 z"},"O":{"x_min":0,"x_max":332,"ha":332,"o":"m 132 0 q 130 0 130 3 q 130 5 132 5 l 137 5 q 139 5 139 3 q 139 1 137 1 q 136 0 132 0 z m 123 1 l 118 1 q 116 1 116 3 q 116 6 118 6 q 120 5 123 5 q 125 5 125 3 q 125 1 123 1 z m 146 1 q 144 1 144 3 q 144 6 146 6 l 151 6 q 152 6 154 4 q 154 2 151 2 q 150 1 147 1 z m 109 2 l 108 2 q 105 2 104 3 q 102 3 102 5 q 102 7 104 7 l 109 7 q 111 5 111 4 q 111 2 109 2 z m 161 3 q 158 3 158 5 q 158 6 160 8 l 165 8 q 167 10 167 7 q 168 4 166 4 q 164 4 164 4 q 163 3 161 3 z m 95 4 l 94 4 q 93 5 92 5 q 91 5 90 6 q 88 6 88 8 q 88 10 91 10 q 92 10 93 10 q 94 9 95 9 q 97 9 97 6 q 97 4 95 4 z m 174 6 q 172 6 172 8 q 172 10 174 11 q 175 11 176 12 q 177 12 178 12 q 181 15 181 11 q 181 8 180 8 q 178 7 178 7 q 177 7 175 6 z m 81 8 l 80 8 q 78 10 76 10 q 74 12 75 13 q 75 15 78 15 q 80 13 82 13 q 84 11 83 10 q 83 8 81 8 z m 188 11 q 186 11 185 12 q 185 15 187 15 q 189 17 191 17 q 193 19 194 16 q 195 15 193 13 q 192 12 191 12 q 190 12 189 11 z m 68 14 l 67 14 q 66 15 65 16 q 64 16 63 17 q 59 17 62 20 q 63 21 65 21 q 67 20 69 18 q 73 18 70 15 q 70 14 68 14 z m 200 17 q 200 17 198 19 q 197 20 199 22 q 200 23 201 23 q 202 23 203 24 q 204 25 206 24 q 208 22 205 20 q 205 20 201 18 q 201 17 200 17 z m 56 21 l 55 22 q 53 23 51 25 q 49 26 51 28 q 51 31 54 28 q 54 28 58 26 q 60 24 58 22 q 57 21 56 21 z m 212 26 q 210 26 210 27 q 208 28 210 30 q 211 31 212 32 q 213 32 214 33 q 215 34 217 33 q 219 31 217 29 q 216 28 215 28 q 214 27 213 26 z m 45 30 l 44 31 q 42 32 40 34 q 38 36 40 38 q 42 40 44 38 q 46 36 47 34 q 50 34 47 31 q 46 30 45 30 z m 222 35 q 221 35 221 36 q 221 36 220 36 q 218 37 220 39 q 221 41 223 43 q 225 45 227 43 q 228 41 227 40 q 226 39 226 38 q 225 37 224 36 q 223 36 223 36 q 223 35 222 35 z m 36 41 q 34 41 34 42 q 32 44 31 46 q 29 48 32 49 q 33 50 35 48 l 38 45 q 38 42 37 41 z m 231 47 l 229 47 q 227 48 229 50 q 231 54 231 54 q 233 56 235 55 q 236 53 235 52 q 233 48 233 48 q 231 47 231 47 z m 28 52 q 26 52 26 54 q 24 56 23 58 q 23 60 24 61 q 27 64 27 60 q 28 59 28 58 q 29 57 30 56 q 30 53 29 53 z m 238 59 l 237 59 q 235 61 236 62 q 237 63 237 64 q 237 65 238 66 q 240 68 241 67 q 245 67 242 64 q 242 62 240 60 q 240 59 238 59 z m 21 65 q 19 65 19 66 q 18 68 18 68 q 18 69 17 71 q 16 72 18 74 q 21 74 21 73 q 23 69 23 68 q 24 67 22 65 z m 244 71 l 243 72 q 239 72 242 75 q 242 77 244 79 q 244 81 247 80 q 248 80 248 77 q 247 76 247 75 q 247 74 246 73 q 246 71 244 71 z m 16 78 q 15 78 13 80 q 13 81 12 82 q 12 83 12 84 q 12 87 13 87 q 16 88 16 86 q 17 84 17 84 q 17 83 18 81 q 18 79 16 78 z m 249 85 l 248 85 q 244 85 247 88 q 247 91 248 92 q 248 94 251 94 q 255 94 252 91 q 252 88 251 86 q 251 85 249 85 z m 12 92 q 10 92 9 93 q 9 95 8 96 q 8 96 8 98 q 8 101 10 101 q 11 101 13 99 q 13 96 14 95 q 14 92 12 92 z m 252 99 q 250 99 250 101 q 250 103 250 104 q 251 104 251 106 q 251 108 254 108 q 256 108 256 105 q 255 103 255 100 q 255 99 252 99 z m 8 105 q 6 105 6 107 q 6 109 6 110 q 5 110 5 112 q 5 115 7 115 q 10 115 10 113 q 10 110 11 108 q 11 107 9 105 z m 255 112 q 253 113 253 115 q 253 118 254 120 q 254 122 256 122 q 258 122 258 119 q 258 116 257 114 q 257 112 255 112 z m 6 119 q 4 119 4 121 q 4 123 4 124 q 3 125 3 126 q 3 129 5 129 q 8 129 8 127 l 8 122 q 9 121 6 119 z m 257 126 q 255 128 255 129 l 255 134 q 255 136 258 136 q 260 136 260 133 q 260 130 259 129 q 259 126 257 126 z m 5 134 q 2 134 2 136 l 2 140 q 2 143 4 143 q 5 143 7 141 l 7 136 q 7 134 5 134 z m 258 141 q 256 141 256 143 l 256 148 q 256 150 259 150 q 261 150 261 148 l 261 143 q 261 141 258 141 z m 4 148 q 1 148 1 150 l 1 155 q 1 157 3 157 q 6 157 6 155 l 6 150 q 6 148 4 148 z m 259 155 q 255 155 257 157 l 257 162 q 257 164 259 164 q 261 164 261 162 l 261 157 q 261 155 259 155 z m 3 162 q 1 162 1 164 l 1 169 q 1 171 3 171 q 6 171 6 169 l 6 164 q 6 162 3 162 z m 259 169 q 257 169 257 171 l 257 176 q 257 178 259 178 q 261 178 261 176 l 261 171 q 261 169 259 169 z m 3 176 q 1 176 1 178 l 1 183 q 1 185 3 185 q 6 185 6 183 l 6 178 q 6 176 3 176 z m 259 183 q 257 183 257 185 l 257 190 q 257 193 259 193 q 261 193 261 190 l 261 185 q 261 183 259 183 z m 3 190 q 1 190 1 193 l 1 197 q 1 200 3 200 q 6 200 6 197 l 6 193 q 6 190 3 190 z m 259 197 q 257 197 257 200 l 257 204 q 257 207 259 207 q 261 207 261 204 l 261 200 q 261 197 259 197 z m 3 204 q 1 204 1 207 l 1 211 q 1 214 3 214 q 6 214 6 211 l 6 207 q 6 204 3 204 z m 259 211 q 257 211 257 214 l 257 219 q 257 221 259 221 q 261 221 261 219 l 261 214 q 261 211 259 211 z m 3 219 q 1 219 1 221 l 1 226 q 1 228 3 228 q 6 228 6 226 l 6 221 q 6 219 3 219 z m 259 226 q 257 226 257 228 l 257 233 q 257 235 259 235 q 261 235 261 233 l 261 228 q 261 226 259 226 z m 3 233 q 1 233 1 235 l 1 240 q 1 242 3 242 q 6 242 6 240 l 6 235 q 6 233 3 233 z m 259 240 q 257 240 257 242 l 257 247 q 257 249 259 249 q 261 249 261 247 l 261 242 q 261 240 259 240 z m 3 247 q 1 247 1 249 l 1 254 q 1 256 3 256 q 6 256 6 254 l 6 249 q 6 247 3 247 z m 259 254 q 257 254 257 256 l 257 261 q 257 263 259 263 q 261 263 261 261 l 261 256 q 261 254 259 254 z m 3 261 q 1 261 1 263 l 1 268 q 1 271 3 271 q 6 271 6 268 l 6 263 q 6 261 3 261 z m 259 268 q 257 268 257 271 l 257 275 q 257 278 259 278 q 261 278 261 275 l 261 271 q 261 268 259 268 z m 3 275 q 1 275 1 278 l 1 282 q 1 285 3 285 q 6 285 6 282 l 6 278 q 6 275 3 275 z m 259 282 q 257 282 257 285 l 257 289 q 257 292 259 292 q 261 292 261 289 l 261 285 q 261 282 259 282 z m 3 289 q 1 289 1 292 l 1 297 q 1 299 3 299 q 6 299 6 297 l 6 292 q 6 289 3 289 z m 259 297 q 257 297 257 299 l 257 304 q 257 306 259 306 q 261 306 261 304 l 261 299 q 261 297 259 297 z m 3 304 q 1 304 1 306 l 1 311 q 1 313 3 313 q 6 313 6 311 l 6 306 q 6 304 3 304 z m 259 311 q 257 311 257 313 l 257 318 q 257 320 259 320 q 261 320 261 318 l 261 313 q 261 311 259 311 z m 3 318 q 1 318 1 320 l 1 325 q 1 327 3 327 q 6 327 6 325 l 6 320 q 6 318 3 318 z m 259 325 q 257 325 257 327 l 257 332 q 257 334 259 334 q 261 334 261 332 l 261 327 q 261 325 259 325 z m 3 332 q 1 332 1 334 l 1 339 q 1 341 3 341 q 6 341 6 339 l 6 334 q 6 332 3 332 z m 259 339 q 257 339 257 341 l 257 346 q 257 349 259 349 q 261 349 261 346 l 261 341 q 261 339 259 339 z m 3 346 q 1 346 1 349 l 1 353 q 1 356 3 356 q 6 356 6 353 l 6 349 q 6 346 3 346 z m 259 353 q 257 353 257 356 l 257 360 q 257 363 259 363 q 261 363 261 360 l 261 356 q 261 353 259 353 z m 3 360 q 1 360 1 363 l 1 367 q 1 370 3 370 q 6 370 6 367 l 6 363 q 6 360 3 360 z m 259 367 q 257 367 257 370 l 257 375 q 257 377 259 377 q 261 377 261 375 l 261 370 q 261 367 259 367 z m 3 375 q 1 375 1 377 l 1 382 q 1 384 3 384 q 6 384 6 382 l 6 377 q 6 375 3 375 z m 259 382 q 257 382 257 384 l 257 389 q 257 391 259 391 q 261 391 261 389 l 261 384 q 261 382 259 382 z m 3 389 q 1 389 1 391 l 1 396 q 1 398 3 398 q 6 398 6 396 l 6 391 q 6 389 3 389 z m 259 396 q 257 396 257 398 l 257 403 q 257 405 259 405 q 261 405 261 403 l 261 398 q 261 396 259 396 z m 3 403 q 1 403 1 405 l 1 410 q 1 412 3 412 q 6 412 6 410 l 6 405 q 6 403 3 403 z m 259 410 q 257 410 257 412 l 257 417 q 257 419 259 419 q 261 419 261 417 l 261 412 q 261 410 259 410 z m 3 417 q 1 417 1 419 l 1 424 q 1 427 3 427 q 6 427 6 424 l 6 419 q 6 417 3 417 z m 259 424 q 257 424 257 427 l 257 431 q 257 434 259 434 q 261 434 261 431 l 261 427 q 261 424 259 424 z m 3 431 q 1 431 1 434 l 1 438 q 1 441 3 441 q 6 441 6 438 l 6 434 q 6 431 3 431 z m 259 438 q 257 438 257 441 l 257 445 q 257 448 259 448 q 261 448 261 445 l 261 441 q 261 438 259 438 z m 3 445 q 1 445 1 448 l 1 453 q 1 455 3 455 q 6 455 6 453 l 6 448 q 6 445 3 445 z m 259 453 q 257 453 257 455 l 257 460 q 257 462 259 462 q 261 462 261 460 l 261 455 q 261 453 259 453 z m 3 460 q 1 460 1 462 l 1 467 q 1 469 3 469 q 6 469 6 467 l 6 462 q 6 460 3 460 z m 259 467 q 257 467 257 469 l 257 474 q 257 476 259 476 q 261 476 261 474 l 261 469 q 261 467 259 467 z m 259 483 l 257 483 l 257 488 q 257 490 259 490 q 261 490 261 488 l 261 483 z m 259 495 q 256 495 256 497 l 256 502 q 256 503 258 505 q 261 505 261 502 l 261 498 q 261 495 259 495 z m 4 493 l 3 493 q 1 493 1 496 l 1 500 q 1 503 4 503 q 6 503 6 500 l 6 495 q 6 493 4 493 z m 258 509 q 256 509 256 511 q 255 513 255 516 q 255 519 257 519 q 260 519 260 517 l 260 512 q 260 509 258 509 z m 4 509 q 2 509 2 512 l 2 517 q 4 519 5 519 q 7 519 7 516 l 7 511 q 7 509 4 509 z m 256 523 q 254 523 254 525 q 254 529 253 530 q 253 533 255 533 q 258 533 258 531 q 258 529 258 528 q 259 528 259 526 q 259 525 257 523 z m 6 523 q 3 524 3 526 q 4 528 4 531 q 4 533 7 533 q 9 533 9 530 q 9 529 8 528 q 8 527 8 525 q 8 523 6 523 z m 254 537 q 252 537 252 539 q 252 541 252 542 q 251 542 251 544 q 251 545 253 547 q 254 547 256 545 q 256 542 257 540 q 257 539 255 537 z m 8 537 q 5 539 6 540 q 6 543 7 545 q 7 547 9 547 q 12 545 11 544 q 11 541 10 539 q 10 537 8 537 z m 251 551 q 249 551 249 553 q 249 554 248 555 q 248 556 248 557 q 246 560 249 560 q 252 561 252 559 q 253 557 253 554 q 254 553 252 551 z m 11 551 q 8 553 9 554 q 9 556 10 556 q 10 557 10 559 q 10 563 13 560 q 15 560 15 558 q 14 556 14 556 q 14 555 13 553 q 13 551 11 551 z m 247 565 q 245 565 245 566 q 244 568 244 568 q 244 569 243 571 q 243 573 245 574 q 247 574 248 572 q 248 571 248 570 q 249 569 249 568 q 252 565 248 565 z m 15 565 l 14 565 q 13 565 13 568 q 13 570 15 572 q 15 574 18 574 q 19 573 19 571 q 18 569 18 568 q 18 568 17 566 q 17 565 15 565 z m 242 578 q 240 578 240 579 q 238 583 238 583 q 237 585 239 587 q 241 587 242 586 q 243 584 243 584 q 243 583 244 581 q 245 580 243 578 z m 20 578 l 19 578 q 18 579 18 581 q 20 585 20 586 q 21 587 23 587 q 25 586 25 584 q 23 580 23 579 q 22 579 22 578 q 21 578 20 578 z m 235 590 l 233 592 q 233 592 231 596 q 230 597 232 599 q 233 600 235 598 q 237 596 237 594 q 240 591 237 591 q 236 591 236 590 q 236 590 235 590 z m 27 591 l 26 591 q 24 593 25 594 q 27 598 27 598 q 29 600 31 599 q 32 597 31 596 q 31 594 29 592 q 29 591 27 591 z m 227 602 q 226 602 226 603 q 225 604 224 605 q 224 606 223 607 q 221 608 223 610 q 224 611 226 610 q 227 609 228 608 q 228 607 229 606 q 232 603 229 603 q 228 602 227 602 z m 35 602 q 34 602 33 603 q 31 604 33 606 q 34 607 34 608 q 35 609 36 610 q 37 611 39 610 q 41 608 40 607 q 39 606 38 605 q 38 604 37 603 q 36 603 36 602 q 36 602 35 602 z m 218 613 l 216 613 q 215 614 214 615 q 214 616 213 617 q 210 617 213 620 q 214 621 216 620 q 218 618 220 617 q 222 615 220 613 z m 44 613 q 43 613 43 614 q 40 614 43 617 l 46 620 q 48 622 50 620 q 50 617 49 617 q 47 615 46 613 z m 207 622 l 206 622 q 205 623 204 624 q 203 624 202 625 q 201 626 201 628 q 203 630 205 629 q 207 627 209 626 q 210 624 209 623 q 209 622 207 622 z m 55 622 q 54 622 53 623 q 53 625 54 626 q 56 628 58 629 q 59 630 61 628 q 62 627 60 625 l 57 622 z m 195 629 q 194 629 194 630 q 192 630 190 632 q 186 632 189 635 q 189 636 192 636 q 193 635 194 635 q 195 635 196 634 q 198 632 197 631 q 197 629 195 629 z m 67 629 q 67 629 65 631 q 65 633 66 634 q 70 636 70 636 q 72 637 74 635 q 74 632 72 632 q 70 630 68 630 q 68 629 67 629 z m 182 635 l 181 635 q 181 635 177 637 q 174 637 176 640 q 176 643 178 641 q 180 641 181 640 q 182 640 183 640 q 185 638 184 637 q 184 635 182 635 z m 80 635 q 78 635 78 637 q 77 638 79 640 q 81 640 82 640 q 82 641 84 641 q 85 642 87 640 q 87 637 85 637 q 84 636 83 636 q 82 636 81 635 z m 169 639 l 168 639 q 167 640 164 640 q 159 640 162 643 q 162 645 165 645 q 166 645 167 644 q 168 644 169 644 q 171 644 171 641 q 171 639 169 639 z m 94 639 q 93 639 91 641 q 91 644 93 644 q 95 644 96 644 q 96 645 98 645 q 99 645 101 643 q 101 642 99 640 q 96 640 94 639 z m 155 642 l 154 642 l 150 642 q 148 642 148 645 q 148 647 150 647 q 153 647 155 646 q 157 646 157 644 q 157 642 155 642 z m 108 642 q 105 642 105 644 q 105 646 107 646 q 109 647 112 647 q 115 647 115 645 q 115 642 113 642 z m 141 643 l 136 643 q 134 643 134 646 q 134 648 136 648 l 141 648 q 143 648 143 645 q 143 643 141 643 z m 122 643 q 119 643 119 645 q 119 648 122 648 l 126 648 q 129 648 129 646 q 129 643 127 643 z m 3 476 q 1 476 1 478 l 1 483 q 1 485 3 485 q 6 485 6 483 l 6 478 q 6 476 3 476 z"},"(":{"x_min":0,"x_max":115,"ha":115,"o":"m 79 0 l 78 1 l 77 1 q 75 1 74 4 q 71 4 74 7 q 75 8 77 7 q 79 5 80 5 l 81 5 q 83 3 81 1 q 80 0 79 0 z m 69 9 q 67 10 67 10 q 65 12 64 14 q 62 15 64 17 q 65 18 67 17 q 68 16 68 15 q 69 14 70 13 q 73 13 70 10 z m 59 20 q 58 20 58 21 q 57 22 56 23 q 56 24 55 25 q 53 26 55 28 q 58 31 58 28 q 59 26 61 24 q 64 21 61 21 q 60 20 59 20 z m 51 32 q 50 32 49 33 q 47 35 47 37 q 45 38 47 40 q 48 41 51 39 q 51 39 53 35 q 55 33 52 32 z m 44 44 q 42 44 42 45 q 41 46 40 47 q 40 48 39 49 q 39 52 40 52 q 43 53 44 51 q 44 51 46 47 q 46 45 45 44 z m 37 56 q 35 56 35 58 q 35 58 33 62 q 32 63 34 65 q 37 68 37 64 q 39 60 39 60 q 42 57 38 57 q 38 56 37 56 z m 31 69 q 29 69 29 71 q 29 71 27 75 q 27 78 28 78 q 30 79 32 77 q 32 75 32 74 q 33 74 33 72 q 34 71 32 69 z m 26 82 q 24 82 24 84 q 23 85 23 86 q 23 87 22 88 q 22 91 23 91 q 26 92 26 90 q 28 86 28 85 q 29 84 27 82 z m 21 96 q 19 96 19 97 q 18 99 18 100 q 18 100 17 102 q 17 103 19 105 q 20 105 22 103 q 22 102 22 101 q 23 100 23 99 q 24 96 22 96 z m 17 109 q 16 109 14 111 q 14 114 13 115 q 13 118 15 118 q 16 119 18 117 q 18 115 18 114 q 19 114 19 112 q 19 110 17 109 z m 13 123 q 11 123 11 124 q 10 126 10 127 q 10 128 9 129 q 9 132 11 132 q 14 132 14 130 q 14 129 14 128 q 15 127 15 126 q 16 123 14 123 z m 9 136 q 7 136 7 138 q 7 140 6 140 q 6 141 6 143 q 6 144 8 146 q 9 146 11 144 q 11 141 12 139 q 12 137 10 137 q 10 136 9 136 z m 6 150 q 4 150 4 152 q 4 154 4 154 q 3 155 3 157 q 3 158 5 160 q 6 160 8 158 q 8 155 9 153 q 9 152 7 150 z m 4 164 q 3 164 1 166 q 1 169 0 171 q 0 172 2 174 q 5 174 5 172 q 5 170 6 170 q 6 169 6 167 q 6 166 4 164 z m 1 178 q -1 178 -1 180 q -1 182 -2 182 q -2 183 -2 185 q -2 186 0 188 q 3 188 3 186 q 3 182 4 181 q 4 178 2 178 z m -1 192 q -3 192 -3 194 q -3 196 -4 196 q -4 197 -4 199 q -4 200 -2 202 q 1 202 1 200 l 1 195 q 4 192 -1 192 z m -3 206 q -5 206 -5 208 q -5 211 -6 213 q -6 216 -3 216 q -1 216 -1 214 q -1 210 0 209 q 0 206 -2 206 z m -4 220 q -5 220 -7 222 l -7 227 q -7 230 -5 230 q -2 230 -2 228 l -2 223 q -2 222 -4 220 z m -6 234 q -8 234 -8 237 l -8 241 q -8 244 -6 244 q -4 244 -4 242 q -3 240 -3 237 q -3 236 -5 234 z m -7 249 q -9 249 -9 251 l -9 256 q -9 258 -7 258 q -5 258 -5 256 q -4 254 -4 251 q -4 249 -6 249 z m -7 263 q -10 263 -10 265 l -10 270 q -10 272 -8 272 q -5 272 -5 270 l -5 265 q -5 263 -7 263 z m -8 277 q -10 277 -10 279 q -11 281 -11 284 q -11 286 -8 286 q -6 286 -6 284 l -6 279 q -6 277 -8 277 z m -9 291 q -11 291 -11 293 l -11 298 q -11 301 -9 301 q -6 301 -6 298 l -6 294 q -6 291 -8 291 z m -9 305 q -11 305 -11 308 l -11 312 q -11 315 -9 315 q -7 315 -7 312 q -6 311 -6 308 q -6 305 -9 305 z m -9 319 q -11 319 -11 322 l -11 327 q -11 329 -9 329 q -7 329 -7 327 l -7 322 q -7 319 -9 319 z m -9 334 q -11 334 -11 336 l -11 341 q -11 343 -9 343 q -6 343 -6 341 l -6 336 q -6 334 -9 334 z m -9 348 q -11 348 -11 350 l -11 355 q -11 357 -8 357 q -6 357 -6 355 l -6 350 q -6 348 -9 348 z m -8 362 q -12 362 -10 364 l -10 369 q -10 371 -8 371 q -6 371 -6 369 l -6 364 q -6 362 -8 362 z m -7 376 l -8 376 q -10 376 -10 379 l -10 383 q -10 386 -7 386 q -5 386 -5 383 l -5 378 q -5 376 -7 376 z m -7 390 q -9 390 -9 393 l -9 398 q -9 400 -6 400 q -4 400 -4 397 l -4 392 q -4 390 -7 390 z m -6 404 q -8 406 -8 407 l -8 412 q -6 414 -5 414 q -3 414 -3 411 l -3 407 q -3 404 -6 404 z m -4 419 l -5 419 q -7 419 -7 421 q -6 423 -6 426 q -6 428 -4 428 q -1 428 -1 425 q -2 424 -2 421 q -2 419 -4 419 z m -3 433 q -5 433 -5 435 l -5 440 q -3 442 -2 442 q 0 442 0 439 l 0 435 q -2 433 -3 433 z m -1 447 q -3 447 -3 449 l -3 454 q -1 456 0 456 q 2 456 2 453 q 2 450 1 449 q 1 447 -1 447 z m 1 461 q -1 461 -1 463 q -1 467 0 468 q 0 470 2 470 q 4 470 4 467 q 4 464 3 463 q 3 461 1 461 z m 3 475 q 1 475 1 477 q 1 479 2 480 q 2 481 2 482 q 2 484 5 484 q 7 484 7 481 q 6 480 6 477 q 6 475 3 475 z m 6 489 q 4 489 4 491 q 4 495 5 496 q 5 498 8 498 q 12 498 9 495 q 9 492 8 491 q 8 489 6 489 z m 9 502 l 9 503 q 7 503 7 505 q 7 507 8 508 q 8 508 8 510 q 8 512 11 512 q 13 510 13 509 q 12 507 12 506 q 12 506 11 504 q 11 502 9 502 z m 13 516 l 12 516 q 10 518 10 519 q 11 521 11 524 q 13 526 14 525 q 16 525 16 523 q 16 521 16 520 q 15 520 15 518 q 15 516 13 516 z m 16 530 q 14 530 14 533 q 14 534 14 535 q 15 536 15 537 q 16 539 18 539 q 20 539 20 536 q 19 535 19 532 q 17 530 16 530 z m 21 543 q 20 543 20 544 q 18 544 18 547 q 19 548 19 549 q 19 550 20 551 q 20 553 23 553 q 25 551 24 550 q 24 548 24 548 q 23 547 23 545 z m 25 557 l 24 557 q 23 557 23 560 q 24 561 24 562 q 24 563 25 564 q 25 566 28 566 q 30 564 29 563 q 28 561 28 560 q 28 560 27 558 q 27 557 25 557 z m 30 570 l 29 570 q 28 571 28 573 q 29 575 29 576 q 29 576 30 578 q 31 579 33 579 q 35 577 34 576 q 34 574 34 574 q 33 573 33 571 q 32 571 32 570 q 31 570 30 570 z m 36 583 l 35 583 q 33 585 34 586 q 35 588 35 588 q 35 589 36 591 q 37 592 39 592 q 41 590 40 589 q 40 588 38 584 q 38 583 36 583 z m 42 596 l 41 596 q 40 596 40 599 q 41 601 43 603 q 43 607 46 604 q 47 604 47 601 q 45 599 45 597 q 44 596 42 596 z m 50 608 l 48 608 q 46 609 48 611 q 48 612 50 616 q 51 617 53 616 q 55 614 54 613 q 52 611 52 609 q 50 608 50 608 z m 57 620 l 56 620 q 54 621 56 623 q 58 627 58 627 q 59 628 62 628 q 64 626 62 624 l 59 621 q 59 620 57 620 z m 66 631 l 65 631 q 63 633 65 635 l 68 638 q 69 639 71 638 q 72 636 71 635 l 68 632 q 68 631 66 631 z m 76 641 q 75 641 75 642 q 73 643 75 645 q 77 647 77 647 l 78 647 q 81 650 81 647 q 83 645 81 643 l 80 643 q 80 643 78 641 z"},"C":{"x_min":0,"x_max":324,"ha":324,"o":"m 129 0 l 125 0 q 122 0 122 2 q 122 5 125 5 l 129 5 q 132 5 132 2 q 132 0 129 0 z m 139 0 q 138 0 136 2 q 136 5 139 5 l 143 5 q 146 5 146 3 q 146 2 144 0 z m 115 1 l 110 1 q 108 1 108 4 q 108 6 111 6 q 112 6 113 6 q 114 5 115 5 q 118 5 118 3 q 117 1 115 1 z m 153 1 q 151 1 151 3 q 149 6 153 6 q 154 6 155 6 q 156 7 157 7 q 160 7 160 5 q 160 2 158 2 q 155 2 153 1 z m 101 2 q 99 3 96 3 q 94 5 94 6 q 94 8 97 8 q 99 8 100 8 q 100 7 102 7 q 104 7 103 4 q 103 2 101 2 z m 167 4 q 165 4 165 6 q 164 7 166 9 q 169 9 171 10 q 173 10 174 8 q 174 7 172 5 q 171 5 170 4 q 169 4 167 4 z m 87 6 q 85 6 84 6 q 84 7 82 7 q 78 7 81 10 q 81 12 84 12 q 85 11 86 11 q 87 11 88 10 q 90 10 90 7 q 89 6 87 6 z m 180 8 q 180 8 178 10 q 178 12 180 13 q 181 13 182 14 q 182 14 184 14 q 185 15 187 13 q 187 11 186 10 q 184 9 184 9 q 183 9 181 8 z m 74 10 q 73 10 73 11 q 71 11 69 13 q 65 13 68 16 q 68 17 71 17 q 73 15 75 15 q 77 13 76 12 q 76 10 74 10 z m 193 14 q 192 14 191 15 q 191 18 192 18 q 194 19 196 21 q 199 21 199 20 q 202 17 199 17 q 197 16 196 16 q 196 15 194 14 z m 61 17 l 60 17 q 58 19 56 20 q 53 20 56 23 q 56 24 59 24 q 61 22 63 21 q 66 21 63 18 q 63 17 61 17 z m 205 21 q 204 22 203 22 q 203 25 204 26 q 206 28 208 29 q 210 29 211 28 q 212 26 211 25 q 209 24 207 22 q 206 22 206 22 q 206 21 205 21 z m 50 25 q 49 25 48 26 l 45 29 q 43 30 45 32 q 45 35 48 32 l 51 29 q 53 27 52 26 q 51 25 50 25 z m 216 31 l 214 31 l 214 35 q 216 36 218 38 q 219 39 221 38 q 222 36 221 35 q 220 34 220 33 q 219 32 218 31 z m 40 35 l 38 35 q 37 37 35 39 q 32 42 35 42 q 38 45 38 42 l 41 39 q 43 37 41 35 z m 226 41 q 225 41 224 42 q 221 42 224 45 q 226 47 226 49 q 228 51 230 49 q 231 47 230 46 q 229 45 228 44 q 228 43 227 42 q 226 41 226 41 z m 31 46 q 29 46 29 47 q 27 49 26 51 q 26 53 27 54 q 30 57 30 53 l 33 50 q 34 48 32 46 z m 234 53 l 232 53 q 231 54 231 56 q 232 58 234 60 q 234 64 237 61 q 241 61 238 58 q 236 56 236 54 q 234 53 234 53 z m 23 58 q 22 58 21 59 q 21 61 19 63 q 19 66 20 67 q 23 67 23 65 q 25 63 26 61 q 26 59 25 58 z m 240 65 q 239 65 239 66 q 235 66 238 69 q 239 70 239 71 q 239 72 240 73 q 240 77 243 74 q 247 74 244 71 q 244 69 242 67 q 242 65 240 65 z m 17 71 q 16 71 15 72 q 15 74 14 74 q 14 75 14 77 q 13 78 15 80 q 17 80 18 78 q 18 76 20 74 q 20 71 18 71 z m 245 79 q 243 79 243 82 q 244 83 244 84 q 244 85 245 86 q 245 88 248 88 q 249 87 249 85 q 249 83 248 82 q 248 82 248 80 q 247 79 245 79 z m 13 84 q 12 84 10 86 q 10 87 10 88 q 9 89 9 90 q 9 93 11 93 q 12 94 14 92 q 14 89 15 87 q 15 85 13 84 z m 249 92 q 247 92 247 95 q 248 97 248 100 q 250 102 251 101 q 253 101 253 98 q 253 97 252 96 q 252 95 252 94 q 250 92 249 92 z m 9 98 q 7 98 7 100 q 6 101 6 104 q 3 107 7 107 q 10 107 10 105 q 11 104 11 101 q 12 98 9 98 z m 253 106 l 252 106 q 250 106 250 109 q 251 110 251 113 q 251 115 254 115 q 256 115 256 113 q 255 111 255 108 q 255 106 253 106 z m 6 112 q 4 112 4 114 q 4 115 4 116 q 3 117 3 118 q 3 121 5 121 q 8 121 8 119 q 8 116 9 114 q 9 112 7 112 z m 255 120 q 252 120 252 123 q 253 124 253 127 q 253 129 256 129 q 258 129 258 127 q 258 125 258 124 q 257 124 257 122 q 257 120 255 120 z m 4 126 q 2 126 2 128 q 2 131 1 132 q 1 135 4 135 q 6 135 6 133 q 6 130 7 128 q 7 126 5 126 z m 256 134 q 254 134 254 137 l 254 141 q 254 146 257 143 q 259 143 259 141 l 259 136 q 259 134 256 134 z m 3 140 q 1 140 1 142 q 1 144 0 144 q 0 145 0 147 q 0 149 3 149 q 5 149 5 147 l 5 142 q 5 140 3 140 z m 257 148 q 255 148 255 151 l 255 155 q 255 158 257 158 q 260 158 260 155 l 260 150 q 258 148 257 148 z m 2 154 q 0 154 0 156 l 0 161 q 0 163 2 163 q 5 163 5 161 l 5 156 q 5 154 2 154 z m 257 162 q 255 162 255 165 l 255 166 q 255 168 257 168 q 260 168 260 166 l 260 165 q 260 162 257 162 z m 2 168 q 0 168 0 170 l 0 175 q 0 178 2 178 q 5 178 5 175 l 5 170 q 5 168 2 168 z m 2 182 q 0 182 0 185 l 0 189 q 0 192 2 192 q 5 192 5 189 l 5 185 q 5 182 2 182 z m 2 196 q 0 196 0 199 l 0 204 q 0 206 2 206 q 5 206 5 204 l 5 199 q 5 196 2 196 z m 2 211 q 0 211 0 213 l 0 218 q 0 220 2 220 q 5 220 5 218 l 5 213 q 5 211 2 211 z m 2 225 q 0 225 0 227 l 0 232 q 0 234 2 234 q 5 234 5 232 l 5 227 q 5 225 2 225 z m 2 239 q 0 239 0 241 l 0 246 q 0 248 2 248 q 5 248 5 246 l 5 241 q 5 239 2 239 z m 2 253 q 0 253 0 256 l 0 260 q 0 263 2 263 q 5 263 5 260 l 5 256 q 5 253 2 253 z m 2 267 q 0 267 0 270 l 0 274 q 0 277 2 277 q 5 277 5 274 l 5 270 q 5 267 2 267 z m 2 282 q 0 282 0 284 l 0 289 q 0 291 2 291 q 5 291 5 289 l 5 284 q 5 282 2 282 z m 2 296 q 0 296 0 298 l 0 303 q 0 305 2 305 q 5 305 5 303 l 5 298 q 5 296 2 296 z m 2 310 q 0 310 0 312 l 0 317 q 0 319 2 319 q 5 319 5 317 l 5 312 q 5 310 2 310 z m 2 324 q 0 324 0 326 l 0 331 q 0 334 2 334 q 5 334 5 331 l 5 326 q 5 324 2 324 z m 2 338 q 0 338 0 341 l 0 345 q 0 348 2 348 q 5 348 5 345 l 5 341 q 5 338 2 338 z m 2 352 q 0 352 0 355 l 0 360 q 0 362 2 362 q 5 362 5 360 l 5 355 q 5 352 2 352 z m 2 367 q 0 367 0 369 l 0 374 q 0 376 2 376 q 5 376 5 374 l 5 369 q 5 367 2 367 z m 2 381 q 0 381 0 383 l 0 388 q 0 390 2 390 q 5 390 5 388 l 5 383 q 5 381 2 381 z m 2 395 q 0 395 0 397 l 0 402 q 0 404 2 404 q 5 404 5 402 l 5 397 q 5 395 2 395 z m 2 409 q 0 409 0 412 l 0 416 q 0 419 2 419 q 5 419 5 416 l 5 412 q 5 409 2 409 z m 2 423 q 0 423 0 426 l 0 430 q 0 433 2 433 q 5 433 5 430 l 5 426 q 5 423 2 423 z m 2 438 q 0 438 0 440 l 0 445 q 0 447 2 447 q 5 447 5 445 l 5 440 q 5 438 2 438 z m 2 452 q 0 452 0 454 l 0 459 q 0 461 2 461 q 5 461 5 459 l 5 454 q 5 452 2 452 z m 2 466 q 0 466 0 468 l 0 473 q 0 475 2 475 q 5 475 5 473 l 5 468 q 5 466 2 466 z m 2 480 q 0 480 0 482 l 0 487 q 0 490 2 490 q 5 490 5 487 l 5 483 q 5 480 2 480 z m 257 480 q 255 480 255 483 l 255 487 q 255 490 257 490 q 260 490 260 487 l 260 483 q 260 480 257 480 z m 3 494 l 2 494 q 0 494 0 497 l 0 501 q 0 504 3 504 q 5 504 5 501 l 5 497 q 5 494 3 494 z m 257 494 q 255 494 255 497 l 255 501 q 255 504 257 504 q 259 504 259 502 q 259 500 260 499 q 260 498 260 497 q 260 494 257 494 z m 3 508 q 1 510 1 511 l 1 516 q 3 518 4 518 q 6 518 6 515 l 6 511 q 6 508 3 508 z m 256 509 q 254 509 254 511 l 254 515 q 254 518 256 518 q 258 518 258 516 q 259 514 259 511 q 259 509 257 509 z m 5 523 q 2 523 2 525 q 3 527 3 530 q 3 532 6 532 q 8 532 8 529 q 8 528 8 527 q 7 526 7 525 q 7 523 5 523 z m 255 523 q 253 523 253 525 q 252 526 252 529 q 252 532 254 532 q 255 532 257 530 l 257 525 q 257 523 255 523 z m 7 537 q 3 537 5 539 q 5 542 6 544 q 6 546 8 546 q 13 546 10 543 q 10 540 9 538 q 9 537 7 537 z m 253 537 q 251 537 250 539 l 250 543 q 247 546 251 546 q 254 546 254 544 q 254 543 254 542 q 255 541 255 539 q 255 537 253 537 z m 10 550 l 9 550 q 7 552 8 553 q 8 555 8 556 q 9 556 9 558 q 9 560 12 560 q 14 558 14 557 q 13 555 13 554 q 13 554 12 552 q 12 550 10 550 z m 250 550 q 249 550 247 552 q 247 555 246 557 q 246 558 248 560 q 249 560 251 558 q 251 557 252 556 q 252 555 252 553 q 252 551 250 551 z m 14 564 l 13 564 q 9 564 12 567 q 12 568 14 572 q 14 573 17 573 q 18 572 18 570 q 16 566 16 566 q 16 564 14 564 z m 246 564 q 245 564 243 566 q 243 567 242 568 q 242 569 242 570 q 239 573 243 573 q 246 576 246 572 q 247 570 247 570 q 247 569 248 567 q 248 565 246 564 z m 19 577 l 18 577 q 17 578 17 580 q 19 584 19 585 q 20 586 22 586 q 25 585 23 583 q 23 582 21 578 q 20 577 19 577 z m 240 577 l 238 579 q 238 579 236 583 q 236 585 237 586 q 239 587 241 585 q 241 583 243 581 q 243 578 241 577 z m 26 590 l 25 590 q 23 592 24 593 q 26 597 26 597 q 28 599 30 598 q 31 596 30 595 q 28 591 28 591 q 27 590 26 590 z m 234 590 q 232 590 232 591 q 231 592 230 593 q 230 594 229 595 q 229 597 230 598 q 233 601 233 597 q 235 595 236 593 q 237 592 235 590 z m 34 601 q 33 601 33 602 q 33 602 32 602 q 30 603 32 605 q 33 606 34 607 q 34 608 35 609 q 36 610 38 609 q 39 608 39 606 q 37 604 36 602 q 34 601 34 601 z m 226 602 l 224 602 q 223 604 221 606 q 219 607 221 609 q 223 611 225 609 q 227 607 228 605 q 229 604 227 602 z m 43 612 q 42 612 41 613 l 41 616 q 43 617 45 619 q 46 620 48 619 q 49 617 48 616 l 45 613 q 44 612 43 612 z m 217 612 q 215 612 215 613 l 212 616 q 210 618 211 619 q 213 621 215 619 l 218 616 q 219 614 218 613 q 217 612 217 612 z m 54 621 q 52 621 52 622 q 49 625 53 625 q 55 627 57 628 q 58 629 60 628 q 60 625 59 624 q 59 624 55 622 q 54 621 54 621 z m 206 621 q 205 621 204 622 q 203 623 202 623 q 202 623 201 624 q 199 625 200 628 q 201 629 203 628 q 207 626 207 626 q 208 625 208 622 q 206 621 206 621 z m 66 629 q 64 629 64 630 q 61 633 65 633 q 67 635 69 635 q 72 638 72 634 q 73 633 71 631 q 70 630 69 630 q 68 630 67 629 z m 194 629 l 193 629 q 189 631 189 631 q 187 632 187 634 q 189 636 191 635 q 191 635 195 633 q 196 633 196 630 q 195 629 194 629 z m 79 634 q 77 634 77 636 q 74 639 78 639 q 79 640 80 640 q 81 640 83 641 q 84 641 86 639 q 86 638 84 636 q 83 636 82 636 q 81 635 80 635 q 79 634 79 634 z m 181 635 l 180 635 q 179 635 178 636 q 177 636 176 636 q 174 637 174 639 q 176 641 177 641 q 179 640 180 640 q 180 640 182 639 q 186 639 183 636 q 183 635 181 635 z m 92 639 q 90 639 90 640 q 90 643 92 643 q 93 644 96 644 q 99 645 99 642 q 101 640 97 640 q 96 639 93 639 z m 167 639 q 164 639 162 640 q 160 640 160 643 q 162 645 163 644 q 166 644 168 643 q 170 643 170 640 q 169 639 167 639 z m 106 641 q 104 641 104 643 q 104 646 106 646 q 109 646 111 647 q 113 647 113 644 q 113 642 111 642 q 110 642 109 642 q 108 641 107 641 z m 153 641 q 152 641 151 642 q 150 642 148 642 q 146 642 146 644 q 146 647 149 647 q 151 646 154 646 q 156 646 156 643 q 156 641 153 641 z m 120 643 q 118 643 118 645 q 118 647 120 647 l 125 647 q 127 649 127 645 q 127 643 125 643 l 121 643 z m 139 643 l 134 643 q 132 643 132 645 q 132 648 135 647 l 139 647 q 142 647 142 645 q 142 643 139 643 z"},"W":{"x_min":0,"x_max":639,"ha":639,"o":"m 144 0 q 142 0 142 2 l 142 3 q 142 4 143 5 l 143 7 q 143 9 146 8 q 148 8 148 5 l 147 2 q 145 0 144 0 z m 428 1 q 426 2 426 4 l 427 8 q 424 8 424 10 l 423 14 q 421 17 425 17 q 427 19 427 15 l 428 11 l 428 10 q 429 11 430 10 q 433 10 431 8 l 430 3 q 430 1 428 1 z m 142 10 q 140 10 140 12 l 139 17 q 139 19 141 19 q 143 21 143 18 l 144 13 q 147 10 143 10 z m 147 13 q 145 13 145 16 l 146 20 q 146 22 149 22 q 151 22 151 19 l 150 15 q 148 13 147 13 z m 431 15 q 429 15 429 18 l 430 23 q 430 25 433 24 q 435 24 435 21 l 433 17 q 433 15 431 15 z m 423 22 q 421 22 421 24 l 420 28 q 418 31 422 31 q 424 31 424 29 l 425 25 q 426 22 424 22 z m 139 24 q 137 24 137 26 l 136 30 q 134 33 138 33 q 140 35 140 31 l 141 27 q 144 24 140 24 z m 150 27 q 148 27 148 30 l 149 34 q 149 36 152 36 q 154 36 154 33 l 153 29 q 152 27 150 27 z m 434 29 q 432 29 432 32 l 433 36 q 433 38 436 38 q 438 38 438 35 l 437 31 q 435 29 434 29 z m 420 36 q 418 36 418 38 l 417 42 q 414 45 418 45 q 421 45 421 43 l 422 39 q 423 36 420 36 z m 136 38 q 134 38 134 40 l 133 44 q 131 47 135 47 q 137 47 137 45 l 138 41 q 139 38 137 38 z m 153 41 q 151 41 151 43 l 152 48 q 152 50 155 50 q 157 50 157 47 l 156 42 q 155 41 153 41 z m 437 43 q 435 43 435 46 l 436 50 q 436 52 439 52 q 441 52 441 49 l 440 45 q 439 43 437 43 z m 417 49 q 415 49 415 51 l 414 56 q 411 59 415 59 q 418 59 418 57 l 419 52 q 421 50 417 50 z m 133 52 q 131 52 131 54 l 130 58 q 127 61 131 61 q 134 61 134 59 l 135 55 q 136 52 133 52 z m 156 54 q 154 56 154 57 l 155 62 q 155 64 158 64 q 160 62 160 61 l 159 56 q 157 54 156 54 z m 440 57 q 438 57 438 59 l 439 64 q 439 66 442 66 q 444 66 444 63 l 443 58 q 442 57 440 57 z m 414 63 q 412 63 412 65 l 411 70 q 410 71 412 73 q 415 73 415 71 l 416 66 q 416 64 414 63 z m 130 65 q 128 65 128 67 l 127 72 q 124 75 128 75 q 131 75 131 73 l 132 68 q 134 66 130 66 z m 159 68 q 157 70 157 71 l 158 76 q 158 78 161 78 q 163 76 163 75 l 162 70 q 162 68 159 68 z m 443 70 q 441 72 441 73 l 442 78 q 442 80 445 80 q 447 78 447 77 l 446 72 q 444 70 443 70 z m 411 77 q 409 77 409 79 l 407 84 q 407 86 409 86 q 412 87 412 85 l 413 80 q 413 78 411 77 z m 127 79 q 125 79 125 81 l 124 86 q 123 87 125 89 q 128 89 128 87 l 129 82 q 129 80 127 79 z m 162 82 q 160 82 160 85 l 161 90 q 161 94 164 91 q 166 91 166 89 l 165 84 q 165 82 162 82 z m 446 84 q 444 86 444 87 l 445 92 q 445 94 448 94 q 450 92 450 91 l 449 86 q 449 84 446 84 z m 408 91 q 407 91 405 93 l 404 98 q 404 100 406 100 q 409 101 409 99 l 410 94 q 410 91 408 91 z m 124 93 q 122 93 122 95 l 120 100 q 120 102 122 102 q 125 103 125 101 l 126 96 q 126 94 124 93 z m 166 96 l 165 96 q 163 96 163 99 l 164 103 q 166 106 167 105 q 169 105 169 102 l 168 98 q 168 96 166 96 z m 449 98 q 447 98 447 101 l 448 106 q 448 110 451 107 q 453 107 453 105 l 452 100 q 452 98 449 98 z m 405 105 q 404 105 402 107 l 401 111 q 401 114 403 114 q 406 114 406 112 l 407 108 q 407 105 405 105 z m 121 107 q 120 107 118 109 l 117 114 q 117 116 119 116 q 122 117 122 115 l 123 110 q 123 107 121 107 z m 169 110 l 168 110 q 166 110 166 113 l 167 117 q 168 119 170 119 q 172 119 172 116 l 171 112 q 171 110 169 110 z m 453 112 l 452 112 q 450 112 450 115 l 451 119 q 453 122 454 121 q 456 121 456 118 l 455 114 q 455 112 453 112 z m 402 119 q 400 119 399 121 l 398 125 q 398 128 400 128 q 403 128 403 126 l 404 122 q 404 119 402 119 z m 118 121 q 117 121 115 123 l 114 127 q 114 130 116 130 q 119 130 119 128 l 120 124 q 120 121 118 121 z m 172 124 l 171 124 q 169 124 169 127 l 170 131 q 172 133 173 133 q 175 133 175 130 l 174 126 q 174 124 172 124 z m 456 126 l 455 126 q 453 126 453 129 l 454 133 q 455 135 457 135 q 459 135 459 132 l 458 128 q 458 126 456 126 z m 399 133 q 397 133 396 134 l 395 139 q 395 142 397 142 q 400 142 400 140 l 401 135 q 401 133 399 133 z m 115 135 q 113 135 112 137 l 111 141 q 111 144 113 144 q 116 144 116 142 l 117 138 q 117 135 115 135 z m 175 137 l 174 138 q 172 138 172 140 l 173 145 q 175 147 176 147 q 178 147 178 144 l 177 139 q 177 137 175 137 z m 459 140 l 458 140 q 456 140 456 143 l 457 147 q 459 149 460 149 q 462 149 462 146 l 461 142 q 461 140 459 140 z m 396 146 q 393 146 393 148 l 392 153 q 392 154 394 156 q 397 156 397 154 l 398 149 q 398 148 396 146 z m 112 149 q 110 149 109 150 l 108 155 q 108 158 110 158 q 113 158 113 156 l 114 151 q 114 149 112 149 z m 178 151 l 177 151 q 175 153 175 154 l 176 159 q 178 161 179 161 q 181 160 181 158 l 180 153 q 180 151 178 151 z m 462 154 l 461 154 q 459 154 459 156 l 460 161 q 462 163 463 163 q 465 163 465 160 l 464 155 q 464 154 462 154 z m 393 160 q 390 160 390 162 l 389 167 q 389 168 391 170 q 394 170 394 168 l 395 163 q 395 162 393 160 z m 109 162 q 106 162 106 164 l 105 169 q 105 170 107 172 q 110 172 110 170 l 111 165 q 111 164 109 162 z m 181 165 l 180 165 q 178 167 179 168 l 180 173 q 180 176 182 174 q 184 174 184 172 l 183 167 q 183 165 181 165 z m 465 167 l 464 167 q 462 169 462 170 l 463 175 q 465 177 466 177 q 468 176 468 174 l 467 169 q 467 167 465 167 z m 389 174 q 387 174 387 176 l 386 181 q 386 183 388 183 q 389 184 391 182 l 392 177 q 392 174 390 174 z m 106 176 q 103 176 103 178 l 102 183 q 102 184 104 186 q 107 186 107 184 l 108 179 q 108 178 106 176 z m 184 179 l 183 179 q 179 179 182 182 l 183 187 q 183 190 185 188 q 187 188 187 186 l 186 181 q 186 179 184 179 z m 468 181 l 467 181 q 465 183 466 184 l 467 189 q 467 192 469 190 q 471 190 471 188 l 470 183 q 470 181 468 181 z m 386 188 q 384 188 384 190 l 383 194 q 383 197 385 197 q 386 198 388 195 l 389 191 q 389 188 387 188 z m 102 190 q 100 190 100 192 l 99 197 q 99 199 101 199 q 102 200 104 198 l 105 193 q 105 190 103 190 z m 187 193 l 186 193 q 183 193 185 196 l 186 200 q 186 202 188 202 q 191 202 190 199 l 189 195 q 189 193 187 193 z m 471 195 l 470 195 q 466 195 469 198 l 470 203 q 470 206 472 204 q 474 204 474 202 l 473 197 q 473 195 471 195 z m 383 202 q 381 202 381 204 l 380 208 q 380 211 382 211 q 384 211 385 209 l 386 205 q 386 202 384 202 z m 99 204 q 97 204 97 206 l 96 210 q 96 213 98 213 q 99 214 101 211 l 102 207 q 102 204 100 204 z m 190 207 l 189 207 q 186 207 188 210 l 189 214 q 189 216 192 216 q 196 216 193 213 l 192 209 q 192 207 190 207 z m 474 209 l 473 209 q 470 209 472 212 l 473 216 q 473 218 475 218 q 478 218 477 215 l 476 211 q 476 209 474 209 z m 380 216 q 378 216 378 218 l 377 222 q 377 225 379 225 q 380 225 382 223 l 383 219 q 383 216 381 216 z m 96 218 q 94 218 94 220 l 93 224 q 93 227 95 227 q 97 227 98 225 l 99 221 q 99 218 97 218 z m 193 221 q 189 221 191 223 l 192 228 q 192 230 195 230 q 199 230 196 227 l 195 222 q 195 221 193 221 z m 477 223 l 476 223 q 473 223 475 226 l 476 230 q 476 232 479 232 q 483 232 480 229 l 479 225 q 479 223 477 223 z m 377 230 q 375 230 375 231 l 374 236 q 374 239 376 239 q 377 239 379 237 l 380 232 q 380 230 378 230 z m 93 232 q 91 232 91 234 l 90 238 q 90 241 92 241 q 93 241 95 239 l 96 235 q 96 232 94 232 z m 196 234 q 193 236 194 237 l 195 242 q 195 244 198 244 q 200 242 199 241 l 198 236 q 198 234 196 234 z m 480 237 q 476 237 478 239 l 479 244 q 479 246 482 246 q 486 246 483 243 l 482 238 q 482 237 480 237 z m 374 243 q 372 243 372 245 l 371 250 q 371 252 373 253 q 375 253 375 251 l 376 246 q 377 245 375 243 z m 90 246 q 88 246 88 247 l 87 252 q 87 255 89 255 q 90 255 92 253 l 93 248 q 93 246 91 246 z m 199 248 q 197 249 197 251 l 198 256 q 198 258 201 258 q 203 256 202 255 l 201 250 q 201 248 199 248 z m 483 250 q 480 252 481 253 l 482 258 q 482 260 485 260 q 487 258 486 257 l 485 252 q 485 250 483 250 z m 371 257 q 369 257 369 259 l 368 264 q 368 266 370 266 q 372 268 372 265 l 373 260 q 374 259 372 257 z m 87 259 q 85 259 85 261 l 84 266 q 84 268 86 269 q 88 269 88 267 l 89 262 q 90 261 88 259 z m 202 262 q 200 262 200 265 l 201 270 q 201 272 204 271 q 206 271 206 269 l 204 264 q 204 262 202 262 z m 486 264 q 484 265 484 267 l 485 272 q 485 274 488 274 q 490 272 489 271 l 488 266 q 488 264 486 264 z m 368 271 q 366 271 366 273 l 365 278 q 363 280 367 280 q 369 282 369 279 l 370 274 q 373 271 369 271 z m 84 273 q 82 273 82 275 l 81 280 q 81 282 83 283 q 85 283 85 281 l 86 276 q 87 275 85 273 z m 205 276 q 203 276 203 279 l 204 283 q 204 286 207 285 q 209 285 209 282 l 208 278 q 206 276 205 276 z m 489 278 q 487 278 487 281 l 488 286 q 488 288 491 287 q 493 287 493 285 l 491 280 q 491 278 489 278 z m 365 285 q 363 285 363 287 l 362 291 q 360 294 363 294 q 366 294 366 292 l 367 288 q 370 285 366 285 z m 81 287 q 79 287 79 289 l 78 294 q 76 296 80 296 q 82 298 82 295 l 83 290 q 86 287 82 287 z m 208 290 q 206 290 206 293 l 207 297 q 207 299 210 299 q 212 299 212 296 l 211 292 q 209 290 208 290 z m 492 292 q 490 292 490 295 l 491 299 q 491 302 494 301 q 496 301 496 298 l 495 294 q 493 292 492 292 z m 362 299 q 360 299 360 301 l 359 305 q 357 308 360 308 q 363 308 363 306 l 364 302 q 365 299 362 299 z m 78 301 q 76 301 76 303 l 75 307 q 73 310 76 310 q 79 310 79 308 l 80 304 q 83 301 79 301 z m 211 304 q 209 304 209 307 l 210 311 q 210 313 213 313 q 215 313 215 310 l 214 306 q 213 304 211 304 z m 495 306 q 493 306 493 309 l 494 313 q 494 315 497 315 q 499 315 499 312 l 498 308 q 496 306 495 306 z m 359 313 q 357 313 357 314 l 356 319 q 353 322 357 322 q 360 322 360 320 l 361 315 q 363 313 359 313 z m 75 315 q 73 315 73 317 l 72 321 q 70 324 73 324 q 76 324 76 322 l 77 318 q 78 315 75 315 z m 214 318 q 212 318 212 320 l 213 325 q 213 327 216 327 q 218 327 218 324 l 217 319 q 216 318 214 318 z m 498 320 q 496 320 496 323 l 497 327 q 497 329 500 329 q 502 329 502 326 l 501 322 q 500 320 498 320 z m 356 326 q 354 326 354 328 l 353 333 q 352 334 354 336 q 357 336 357 334 l 358 329 q 358 327 356 327 z m 72 329 q 70 329 70 330 l 69 335 q 66 338 70 338 q 73 338 73 336 l 74 331 q 76 329 72 329 z m 217 331 q 215 333 215 334 l 216 339 q 216 341 219 341 q 221 339 221 338 l 220 333 q 220 331 217 331 z m 501 334 q 499 334 499 336 l 500 341 q 500 343 503 343 q 505 343 505 340 l 504 335 q 503 334 501 334 z m 353 340 q 351 340 351 342 l 349 347 q 349 348 351 350 q 354 350 354 348 l 355 343 q 355 341 353 340 z m 69 342 q 67 342 67 344 l 66 349 q 65 350 67 352 q 70 352 70 350 l 71 345 q 71 343 69 343 z m 221 345 l 220 345 q 218 347 218 348 l 219 353 q 219 355 222 355 q 224 353 224 352 l 223 347 q 223 345 221 345 z m 504 347 q 502 349 502 350 l 503 355 q 503 357 506 357 q 508 355 508 354 l 507 349 q 507 347 504 347 z m 350 354 q 349 354 347 356 l 346 361 q 346 363 348 363 q 351 364 351 362 l 352 357 q 352 354 350 354 z m 66 356 q 64 356 64 358 l 62 363 q 62 364 64 366 q 67 366 67 364 l 68 359 q 68 357 66 356 z m 224 359 l 223 359 q 221 359 221 362 l 222 367 q 224 369 225 368 q 227 368 227 366 l 226 361 q 226 359 224 359 z m 508 361 l 507 361 q 505 363 505 364 l 506 369 q 506 371 509 371 q 511 369 511 368 l 510 363 q 510 361 508 361 z m 347 368 q 346 368 344 370 l 343 374 q 343 377 345 377 q 348 380 348 375 l 349 371 q 349 368 347 368 z m 63 370 q 62 370 60 372 l 59 377 q 59 379 61 379 q 64 380 64 378 l 65 373 q 65 370 63 370 z m 227 373 l 226 373 q 224 373 224 376 l 225 380 q 226 382 228 382 q 230 382 230 379 l 229 375 q 229 373 227 373 z m 511 375 l 510 375 q 508 375 508 378 l 509 383 q 511 385 512 384 q 514 384 514 382 l 513 377 q 513 375 511 375 z m 344 382 q 343 382 341 384 l 340 388 q 340 391 342 391 q 345 391 345 389 l 346 385 q 346 382 344 382 z m 60 384 q 59 384 57 386 l 56 390 q 56 393 58 393 q 61 396 61 391 l 62 387 q 62 384 60 384 z m 230 387 l 229 387 q 227 387 227 390 l 228 394 q 229 396 231 396 q 233 396 233 393 l 232 389 q 232 387 230 387 z m 514 389 l 513 389 q 511 389 511 392 l 512 396 q 513 398 515 398 q 517 398 517 395 l 516 391 q 516 389 514 389 z m 341 396 q 339 396 338 398 l 337 402 q 337 405 339 405 q 342 405 342 403 l 343 399 q 343 396 341 396 z m 57 398 q 56 398 54 400 l 53 404 q 53 407 55 407 q 58 407 58 405 l 59 401 q 59 398 57 398 z m 233 401 l 232 401 q 230 401 230 403 l 231 408 q 233 410 234 410 q 236 410 236 407 l 235 402 q 235 401 233 401 z m 517 403 l 516 403 q 514 403 514 406 l 515 410 q 516 412 518 412 q 520 412 520 409 l 519 405 q 519 403 517 403 z m 338 410 q 335 410 335 411 l 334 416 q 334 419 336 419 q 339 419 339 417 l 340 412 q 340 410 338 410 z m 54 412 q 52 412 51 414 l 50 418 q 50 421 52 421 q 55 421 55 419 l 56 415 q 56 412 54 412 z m 236 414 q 235 414 235 415 q 233 415 233 417 l 234 422 q 236 424 237 424 q 239 423 239 421 l 238 416 q 238 414 236 414 z m 520 417 l 519 417 q 517 417 517 419 l 518 424 q 520 426 521 426 q 523 426 523 423 l 522 418 q 522 417 520 417 z m 334 423 q 332 423 332 425 l 331 430 q 331 431 333 433 q 336 433 336 431 l 337 426 q 337 425 335 423 z m 51 426 q 48 426 48 427 l 47 432 q 47 435 49 435 q 52 435 52 433 l 53 428 q 53 426 51 426 z m 239 428 l 238 428 q 236 430 237 431 l 238 436 q 238 438 240 438 q 242 437 242 435 l 241 430 q 241 428 239 428 z m 523 430 q 522 430 522 431 q 520 431 520 433 l 521 438 q 523 440 524 440 q 526 439 526 437 l 525 432 q 525 430 523 430 z m 331 437 q 329 437 329 439 l 328 444 q 328 445 330 447 q 331 447 333 445 l 334 440 q 334 439 332 437 z m 47 439 q 45 439 45 441 l 44 446 q 44 447 46 449 q 47 449 49 447 l 50 442 q 50 441 48 439 z m 242 442 l 241 442 q 237 442 240 445 l 241 450 q 241 453 243 451 q 245 451 245 449 l 244 444 q 244 442 242 442 z m 526 444 l 525 444 q 523 446 524 447 l 525 452 q 525 454 527 454 q 529 453 529 451 l 528 446 q 528 444 526 444 z m 328 451 q 326 451 326 453 l 325 458 q 325 460 327 460 q 328 461 330 459 l 331 454 q 331 451 329 451 z m 44 453 q 42 453 42 455 l 41 460 q 41 461 43 463 q 44 463 46 461 l 47 456 q 47 455 45 453 z m 245 456 l 244 456 q 240 456 243 459 l 244 463 q 244 467 246 465 q 249 465 248 462 l 247 458 q 247 456 245 456 z m 529 458 l 528 458 q 524 458 527 461 l 528 466 q 528 469 530 467 q 532 467 532 465 l 531 460 q 531 458 529 458 z m 325 465 q 323 465 323 467 l 322 471 q 322 474 324 474 q 326 474 327 472 l 328 468 q 328 465 326 465 z m 41 467 q 39 467 39 469 l 38 474 q 38 476 40 476 q 41 477 43 475 l 44 470 q 44 467 42 467 z m 248 470 l 247 470 q 244 470 246 473 l 247 477 q 247 479 250 479 q 252 479 251 476 l 250 472 q 250 470 248 470 z m 532 472 l 531 472 q 527 472 530 475 l 531 479 q 531 483 533 481 q 536 481 535 478 l 534 474 q 534 472 532 472 z m 322 479 q 320 479 320 481 l 319 485 q 319 488 321 488 q 323 488 324 486 l 325 482 q 325 479 323 479 z m 38 481 q 36 481 36 483 l 35 487 q 35 490 37 490 q 38 491 40 488 l 41 484 q 41 481 39 481 z m 251 484 q 247 484 249 487 l 250 491 q 250 493 253 493 q 257 493 254 490 l 253 486 q 253 484 251 484 z m 535 486 l 534 486 q 531 486 533 489 l 534 493 q 534 495 537 495 q 539 495 538 492 l 537 488 q 537 486 535 486 z m 319 493 q 317 493 317 494 l 316 499 q 316 502 318 502 q 319 502 321 500 l 322 495 q 322 493 320 493 z m 35 495 q 33 495 33 497 l 32 501 q 32 504 34 504 q 36 504 37 502 l 38 498 q 38 495 36 495 z m 254 498 q 252 498 252 500 l 253 505 q 253 507 256 507 q 260 507 257 504 l 256 499 q 256 498 254 498 z m 538 500 q 534 500 536 503 l 537 507 q 537 509 540 509 q 544 509 541 506 l 540 502 q 540 500 538 500 z m 316 506 q 314 506 314 508 l 313 513 q 313 515 315 516 q 317 516 317 514 l 318 509 q 320 507 317 507 q 316 506 316 506 z m 32 509 q 30 509 30 510 l 29 515 q 29 518 31 518 q 32 518 34 516 l 35 512 q 35 509 33 509 z m 257 511 q 255 512 255 514 l 256 519 q 256 521 259 521 q 261 519 260 518 l 259 513 q 259 511 257 511 z m 541 514 q 539 514 539 516 l 540 521 q 540 523 543 523 q 547 523 544 520 l 543 515 q 543 514 541 514 z m 313 520 q 311 520 311 522 l 310 527 q 310 529 312 530 q 314 530 314 528 l 315 523 q 316 522 314 520 z m 29 522 q 27 522 27 524 l 26 529 q 26 531 28 532 q 30 532 30 530 l 31 525 q 33 523 30 523 q 29 522 29 522 z m 260 525 q 258 526 258 528 l 259 533 q 259 535 262 535 q 264 533 264 532 l 263 527 q 261 525 260 525 z m 544 527 q 542 528 542 530 l 543 535 q 543 537 546 537 q 548 535 547 534 l 546 529 q 546 527 544 527 z m 310 534 q 308 534 308 536 l 307 541 q 305 543 309 543 q 311 545 311 542 l 312 537 q 313 536 311 534 z m 26 536 q 24 536 24 538 l 23 543 q 23 545 25 546 q 27 546 27 544 l 28 539 q 29 538 27 536 z m 263 539 q 261 539 261 542 l 262 547 q 262 549 265 548 q 267 548 267 546 l 266 541 q 264 539 263 539 z m 547 541 q 545 542 545 544 l 546 549 q 546 551 549 551 q 551 549 551 548 l 550 543 q 548 541 547 541 z m 307 548 q 305 548 305 550 l 304 554 q 302 557 305 557 q 308 558 308 556 l 309 551 q 312 548 308 548 z m 23 550 q 21 550 21 552 l 20 557 q 18 559 22 559 q 24 561 24 558 l 25 553 q 26 552 24 550 z m 266 553 q 264 553 264 556 l 265 560 q 265 565 268 562 q 270 562 270 559 l 269 555 q 267 553 266 553 z m 550 555 q 548 555 548 558 l 549 563 q 549 565 552 564 q 554 564 554 562 l 553 557 q 551 555 550 555 z m 304 562 q 302 562 302 564 l 301 568 q 299 571 302 571 q 305 571 305 569 l 306 565 q 307 562 304 562 z m 20 564 q 18 564 18 566 l 17 570 q 15 573 18 573 q 21 574 21 572 l 22 567 q 25 564 21 564 z m 269 567 q 267 567 267 570 l 268 574 q 268 576 271 576 q 273 576 273 573 l 272 569 q 270 567 269 567 z m 553 569 q 551 569 551 572 l 552 576 q 552 581 555 578 q 557 578 557 575 l 556 571 q 554 569 553 569 z m 301 576 q 299 576 299 578 l 298 582 q 295 585 299 585 q 302 585 302 583 l 303 579 q 303 576 301 576 z m 17 578 q 15 578 15 580 l 14 584 q 12 587 15 587 q 18 587 18 585 l 19 581 q 20 578 17 578 z m 272 581 q 270 581 270 584 l 271 588 q 271 590 274 590 q 276 590 276 587 l 275 582 q 274 581 272 581 z m 556 583 q 554 583 554 586 l 555 590 q 555 592 558 592 q 560 592 560 589 l 559 585 q 557 583 556 583 z m 298 590 q 296 590 296 591 l 295 596 q 292 599 296 599 q 299 599 299 597 l 300 592 q 300 590 298 590 z m 14 592 q 12 592 12 594 l 11 598 q 8 601 12 601 q 15 601 15 599 l 16 595 q 16 592 14 592 z m 275 594 l 275 595 q 273 595 273 597 l 274 602 q 274 604 277 604 q 279 602 279 601 l 278 596 q 278 594 275 594 z m 559 597 q 557 597 557 600 l 558 604 q 558 606 561 606 q 563 606 563 603 l 562 598 q 561 597 559 597 z m 295 603 q 294 603 292 605 l 291 610 q 291 611 293 613 q 296 613 296 611 l 297 606 q 297 604 295 603 z m 11 606 q 9 606 9 607 l 8 612 q 5 615 9 615 q 12 615 12 613 l 13 608 q 13 606 11 606 z m 279 608 l 278 608 q 276 610 276 611 l 277 616 q 279 618 280 618 q 282 616 282 615 l 281 610 q 281 608 279 608 z m 562 610 l 562 611 q 560 611 560 613 l 561 618 q 561 620 564 620 q 566 618 566 617 l 565 612 q 565 610 562 610 z m 292 617 q 291 617 289 619 l 288 624 q 288 625 290 627 q 293 627 293 625 l 294 620 q 294 618 292 617 z m 8 619 q 7 619 5 621 l 4 626 q 4 627 6 629 q 9 629 9 627 l 10 622 q 10 620 8 619 z m 282 622 l 281 622 q 279 624 279 625 l 280 630 q 282 632 283 631 q 285 631 285 629 l 284 624 q 284 622 282 622 z m 566 624 l 565 624 q 563 626 563 627 l 564 632 q 566 634 567 634 q 569 632 569 631 l 568 626 q 568 624 566 624 z m 289 631 q 288 631 286 633 l 286 636 l 284 636 q 282 636 282 639 l 283 644 q 285 646 286 645 q 288 645 288 642 l 287 640 q 290 641 290 639 l 291 634 q 291 631 289 631 z m 5 633 q 4 633 2 635 l 1 640 q 1 641 3 643 q 6 643 6 641 l 7 636 q 7 634 5 633 z m 569 638 l 568 638 q 566 640 566 641 l 567 646 q 569 648 570 647 q 572 647 572 645 l 571 640 q 571 638 569 638 z"}}}
